%TF.GenerationSoftware,KiCad,Pcbnew,10.0.1*%
%TF.CreationDate,2026-08-22T13:05:36-07:00*%
%TF.ProjectId,BurnWire,4275726e-5769-4726-952e-6b696361645f,rev?*%
%TF.SameCoordinates,Original*%
%TF.FileFunction,Paste,Top*%
%TF.FilePolarity,Positive*%
%FSLAX46Y46*%
G04 Gerber Fmt 4.6, Leading zero omitted, Abs format (unit mm)*
G04 Created by KiCad (PCBNEW 10.0.1) date 2026-08-22 13:05:36*
%MOMM*%
%LPD*%
G01*
G04 APERTURE LIST*
G04 Aperture macros list*
%AMRoundRect*
0 Rectangle with rounded corners*
0 $1 Rounding radius*
0 $2 $3 $4 $5 $6 $7 $8 $9 X,Y pos of 4 corners*
0 Add a 4 corners polygon primitive as box body*
4,1,4,$2,$3,$4,$5,$6,$7,$8,$9,$2,$3,0*
0 Add four circle primitives for the rounded corners*
1,1,$1+$1,$2,$3*
1,1,$1+$1,$4,$5*
1,1,$1+$1,$6,$7*
1,1,$1+$1,$8,$9*
0 Add four rect primitives between the rounded corners*
20,1,$1+$1,$2,$3,$4,$5,0*
20,1,$1+$1,$4,$5,$6,$7,0*
20,1,$1+$1,$6,$7,$8,$9,0*
20,1,$1+$1,$8,$9,$2,$3,0*%
G04 Aperture macros list end*
%ADD10RoundRect,0.250000X0.550000X-1.250000X0.550000X1.250000X-0.550000X1.250000X-0.550000X-1.250000X0*%
%ADD11RoundRect,0.250000X-0.450000X0.350000X-0.450000X-0.350000X0.450000X-0.350000X0.450000X0.350000X0*%
%ADD12R,0.900000X0.800000*%
%ADD13RoundRect,0.250000X0.475000X-0.337500X0.475000X0.337500X-0.475000X0.337500X-0.475000X-0.337500X0*%
%ADD14R,2.006600X5.994400*%
%ADD15R,2.159000X1.803400*%
%ADD16RoundRect,0.230000X-0.230000X-0.375000X0.230000X-0.375000X0.230000X0.375000X-0.230000X0.375000X0*%
%ADD17RoundRect,0.150000X-0.825000X-0.150000X0.825000X-0.150000X0.825000X0.150000X-0.825000X0.150000X0*%
%ADD18RoundRect,0.250000X0.337500X0.475000X-0.337500X0.475000X-0.337500X-0.475000X0.337500X-0.475000X0*%
%ADD19RoundRect,0.250000X-0.350000X-0.450000X0.350000X-0.450000X0.350000X0.450000X-0.350000X0.450000X0*%
%ADD20RoundRect,0.250000X0.350000X0.450000X-0.350000X0.450000X-0.350000X-0.450000X0.350000X-0.450000X0*%
%ADD21RoundRect,0.237500X-0.250000X-0.237500X0.250000X-0.237500X0.250000X0.237500X-0.250000X0.237500X0*%
%ADD22RoundRect,0.250000X0.362500X1.425000X-0.362500X1.425000X-0.362500X-1.425000X0.362500X-1.425000X0*%
G04 APERTURE END LIST*
D10*
%TO.C,C3*%
X168851100Y-119503600D03*
X168851100Y-115103600D03*
%TD*%
%TO.C,C4*%
X162801100Y-119503600D03*
X162801100Y-115103600D03*
%TD*%
D11*
%TO.C,R4*%
X169701100Y-124073600D03*
X169701100Y-126073600D03*
%TD*%
D12*
%TO.C,R1*%
X128001100Y-126023600D03*
X128001100Y-127423600D03*
%TD*%
D13*
%TO.C,C1*%
X128551100Y-122886100D03*
X128551100Y-120811100D03*
%TD*%
D14*
%TO.C,L1*%
X152041100Y-120503600D03*
X147723100Y-120503600D03*
%TD*%
D15*
%TO.C,D1*%
X140976100Y-125642000D03*
X140976100Y-121705000D03*
%TD*%
D16*
%TO.C,U1*%
X133106100Y-122908600D03*
X133106100Y-124408600D03*
X134246100Y-122908600D03*
X134246100Y-124408600D03*
D17*
X131201100Y-121753600D03*
X131201100Y-123023600D03*
X131201100Y-124293600D03*
X131201100Y-125563600D03*
X136151100Y-125563600D03*
X136151100Y-124293600D03*
X136151100Y-123023600D03*
X136151100Y-121753600D03*
%TD*%
D18*
%TO.C,C2*%
X136038600Y-119823600D03*
X133963600Y-119823600D03*
%TD*%
D19*
%TO.C,R1*%
X114351100Y-125073600D03*
X116351100Y-125073600D03*
%TD*%
D20*
%TO.C,R2*%
X135551100Y-127373600D03*
X133551100Y-127373600D03*
%TD*%
D21*
%TO.C,R6*%
X134401100Y-130073600D03*
X136226100Y-130073600D03*
%TD*%
%TO.C,R5*%
X137751100Y-130073600D03*
X139576100Y-130073600D03*
%TD*%
D22*
%TO.C,R3*%
X178563600Y-124948600D03*
X172638600Y-124948600D03*
%TD*%
D10*
%TO.C,C5*%
X156751100Y-119553600D03*
X156751100Y-115153600D03*
%TD*%
M02*
