%TF.GenerationSoftware,KiCad,Pcbnew,10.0.1*%
%TF.CreationDate,2026-08-22T13:05:36-07:00*%
%TF.ProjectId,BurnWire,4275726e-5769-4726-952e-6b696361645f,rev?*%
%TF.SameCoordinates,Original*%
%TF.FileFunction,Copper,L1,Top*%
%TF.FilePolarity,Positive*%
%FSLAX46Y46*%
G04 Gerber Fmt 4.6, Leading zero omitted, Abs format (unit mm)*
G04 Created by KiCad (PCBNEW 10.0.1) date 2026-08-22 13:05:36*
%MOMM*%
%LPD*%
G01*
G04 APERTURE LIST*
G04 Aperture macros list*
%AMRoundRect*
0 Rectangle with rounded corners*
0 $1 Rounding radius*
0 $2 $3 $4 $5 $6 $7 $8 $9 X,Y pos of 4 corners*
0 Add a 4 corners polygon primitive as box body*
4,1,4,$2,$3,$4,$5,$6,$7,$8,$9,$2,$3,0*
0 Add four circle primitives for the rounded corners*
1,1,$1+$1,$2,$3*
1,1,$1+$1,$4,$5*
1,1,$1+$1,$6,$7*
1,1,$1+$1,$8,$9*
0 Add four rect primitives between the rounded corners*
20,1,$1+$1,$2,$3,$4,$5,0*
20,1,$1+$1,$4,$5,$6,$7,0*
20,1,$1+$1,$6,$7,$8,$9,0*
20,1,$1+$1,$8,$9,$2,$3,0*%
G04 Aperture macros list end*
%TA.AperFunction,ComponentPad*%
%ADD10C,1.524000*%
%TD*%
%TA.AperFunction,SMDPad,CuDef*%
%ADD11RoundRect,0.250000X0.550000X-1.250000X0.550000X1.250000X-0.550000X1.250000X-0.550000X-1.250000X0*%
%TD*%
%TA.AperFunction,SMDPad,CuDef*%
%ADD12RoundRect,0.250000X-0.450000X0.350000X-0.450000X-0.350000X0.450000X-0.350000X0.450000X0.350000X0*%
%TD*%
%TA.AperFunction,SMDPad,CuDef*%
%ADD13R,0.900000X0.800000*%
%TD*%
%TA.AperFunction,SMDPad,CuDef*%
%ADD14RoundRect,0.250000X0.475000X-0.337500X0.475000X0.337500X-0.475000X0.337500X-0.475000X-0.337500X0*%
%TD*%
%TA.AperFunction,SMDPad,CuDef*%
%ADD15R,2.006600X5.994400*%
%TD*%
%TA.AperFunction,SMDPad,CuDef*%
%ADD16R,2.159000X1.803400*%
%TD*%
%TA.AperFunction,ComponentPad*%
%ADD17R,1.700000X1.700000*%
%TD*%
%TA.AperFunction,ComponentPad*%
%ADD18C,1.700000*%
%TD*%
%TA.AperFunction,SMDPad,CuDef*%
%ADD19RoundRect,0.150000X-0.825000X-0.150000X0.825000X-0.150000X0.825000X0.150000X-0.825000X0.150000X0*%
%TD*%
%TA.AperFunction,HeatsinkPad*%
%ADD20R,2.290000X3.000000*%
%TD*%
%TA.AperFunction,SMDPad,CuDef*%
%ADD21RoundRect,0.250000X0.337500X0.475000X-0.337500X0.475000X-0.337500X-0.475000X0.337500X-0.475000X0*%
%TD*%
%TA.AperFunction,SMDPad,CuDef*%
%ADD22RoundRect,0.250000X-0.350000X-0.450000X0.350000X-0.450000X0.350000X0.450000X-0.350000X0.450000X0*%
%TD*%
%TA.AperFunction,SMDPad,CuDef*%
%ADD23RoundRect,0.250000X0.350000X0.450000X-0.350000X0.450000X-0.350000X-0.450000X0.350000X-0.450000X0*%
%TD*%
%TA.AperFunction,SMDPad,CuDef*%
%ADD24RoundRect,0.237500X-0.250000X-0.237500X0.250000X-0.237500X0.250000X0.237500X-0.250000X0.237500X0*%
%TD*%
%TA.AperFunction,SMDPad,CuDef*%
%ADD25RoundRect,0.250000X0.362500X1.425000X-0.362500X1.425000X-0.362500X-1.425000X0.362500X-1.425000X0*%
%TD*%
%TA.AperFunction,ViaPad*%
%ADD26C,0.500000*%
%TD*%
%TA.AperFunction,ViaPad*%
%ADD27C,0.600000*%
%TD*%
%TA.AperFunction,Conductor*%
%ADD28C,0.254000*%
%TD*%
%TA.AperFunction,Conductor*%
%ADD29C,1.270000*%
%TD*%
%TA.AperFunction,Conductor*%
%ADD30C,1.000000*%
%TD*%
%TA.AperFunction,Conductor*%
%ADD31C,0.200000*%
%TD*%
G04 APERTURE END LIST*
D10*
%TO.P,TP2,1*%
%TO.N,+VBATT*%
X121076500Y-115123600D03*
%TD*%
D11*
%TO.P,C3,1,1_1*%
%TO.N,/BURN_POS*%
X168851100Y-119503600D03*
%TO.P,C3,2,2_2*%
%TO.N,GND*%
X168851100Y-115103600D03*
%TD*%
%TO.P,C4,1,1_1*%
%TO.N,/BURN_POS*%
X162801100Y-119503600D03*
%TO.P,C4,2,2_2*%
%TO.N,GND*%
X162801100Y-115103600D03*
%TD*%
D12*
%TO.P,R4,1*%
%TO.N,/BURN_NEG*%
X169701100Y-124073600D03*
%TO.P,R4,2*%
%TO.N,TO_COMPUTE*%
X169701100Y-126073600D03*
%TD*%
D13*
%TO.P,R1,1*%
%TO.N,PGOOD*%
X128001100Y-126023600D03*
%TO.P,R1,2*%
%TO.N,+VBATT*%
X128001100Y-127423600D03*
%TD*%
D10*
%TO.P,TP5,1*%
%TO.N,GND*%
X154926500Y-128023600D03*
%TD*%
%TO.P,TP3,1*%
%TO.N,/BURN_NEG*%
X132326500Y-129023600D03*
%TD*%
D14*
%TO.P,C1,1,1_1*%
%TO.N,+VBATT*%
X128551100Y-122886100D03*
%TO.P,C1,2,2_2*%
%TO.N,GND*%
X128551100Y-120811100D03*
%TD*%
D15*
%TO.P,L1,*%
%TO.N,/BURN_POS*%
X152041100Y-120503600D03*
%TO.P,L1,2,2_2*%
%TO.N,Net-(D1-A)*%
X147723100Y-120503600D03*
%TD*%
D16*
%TO.P,D1,1,K_1*%
%TO.N,GND*%
X140976100Y-125642000D03*
%TO.P,D1,2,A_2*%
%TO.N,Net-(D1-A)*%
X140976100Y-121705000D03*
%TD*%
D17*
%TO.P,J4,1,Pin_1_1*%
%TO.N,TO_COMPUTE*%
X169876100Y-128698600D03*
%TD*%
D10*
%TO.P,TP4,1*%
%TO.N,GND*%
X150401100Y-113223600D03*
%TD*%
D17*
%TO.P,J1,1,Pin_1_1*%
%TO.N,/ENABLE*%
X119251100Y-128023600D03*
D18*
%TO.P,J1,2,Pin_2_2*%
%TO.N,+VBATT*%
X116711100Y-128023600D03*
%TO.P,J1,3,Pin_3_3*%
%TO.N,PGOOD*%
X114171100Y-128023600D03*
%TO.P,J1,4,Pin_4_4*%
%TO.N,GND*%
X111631100Y-128023600D03*
%TO.P,J1,5,Pin_5_5*%
X109091100Y-128023600D03*
%TO.P,J1,6,Pin_6_6*%
X106551100Y-128023600D03*
%TD*%
D19*
%TO.P,U1,1,BST_1*%
%TO.N,Net-(U1-BST)*%
X131201100Y-121753600D03*
%TO.P,U1,2,Vin_2*%
%TO.N,+VBATT*%
X131201100Y-123023600D03*
%TO.P,U1,3,EN_3*%
%TO.N,/ENABLE*%
X131201100Y-124293600D03*
%TO.P,U1,4,PGOOD_4*%
%TO.N,PGOOD*%
X131201100Y-125563600D03*
%TO.P,U1,5,FB_5*%
%TO.N,Net-(U1-FB)*%
X136151100Y-125563600D03*
%TO.P,U1,6,NC_6*%
%TO.N,unconnected-(U1-NC-Pad6)*%
X136151100Y-124293600D03*
%TO.P,U1,7,GND_7*%
%TO.N,GND*%
X136151100Y-123023600D03*
%TO.P,U1,8,SW_8*%
%TO.N,Net-(D1-A)*%
X136151100Y-121753600D03*
D20*
%TO.P,U1,9,PADGND_9*%
%TO.N,GND*%
X133676100Y-123658600D03*
%TD*%
D17*
%TO.P,J3,1,Pin_1_1*%
%TO.N,/BURN_NEG*%
X165176100Y-124148600D03*
D18*
%TO.P,J3,2,Pin_2_2*%
%TO.N,/BURN_POS*%
X162636100Y-124148600D03*
%TD*%
D17*
%TO.P,J2,1,1_1*%
%TO.N,+VBATT*%
X106551100Y-113348600D03*
D18*
%TO.P,J2,2,2_2*%
%TO.N,GND*%
X106551100Y-115888600D03*
%TD*%
D10*
%TO.P,TP1,1*%
%TO.N,/BURN_POS*%
X172301100Y-121873600D03*
%TD*%
D21*
%TO.P,C2,1,1_1*%
%TO.N,Net-(D1-A)*%
X136038600Y-119823600D03*
%TO.P,C2,2,2_2*%
%TO.N,Net-(U1-BST)*%
X133963600Y-119823600D03*
%TD*%
D22*
%TO.P,R1,1*%
%TO.N,PGOOD*%
X114351100Y-125073600D03*
%TO.P,R1,2*%
%TO.N,+VBATT*%
X116351100Y-125073600D03*
%TD*%
D23*
%TO.P,R2,1*%
%TO.N,Net-(U1-FB)*%
X135551100Y-127373600D03*
%TO.P,R2,2*%
%TO.N,/BURN_NEG*%
X133551100Y-127373600D03*
%TD*%
D24*
%TO.P,R6,1*%
%TO.N,GND*%
X134401100Y-130073600D03*
%TO.P,R6,2*%
%TO.N,Net-(U1-FB)*%
X136226100Y-130073600D03*
%TD*%
%TO.P,R5,1*%
%TO.N,Net-(U1-FB)*%
X137751100Y-130073600D03*
%TO.P,R5,2*%
%TO.N,/BURN_POS*%
X139576100Y-130073600D03*
%TD*%
D25*
%TO.P,R3,1*%
%TO.N,GND*%
X178563600Y-124948600D03*
%TO.P,R3,2*%
%TO.N,/BURN_NEG*%
X172638600Y-124948600D03*
%TD*%
D11*
%TO.P,C5,1,1_1*%
%TO.N,/BURN_POS*%
X156751100Y-119553600D03*
%TO.P,C5,2,2_2*%
%TO.N,GND*%
X156751100Y-115153600D03*
%TD*%
D26*
%TO.N,+VBATT*%
X126476100Y-122073600D03*
X128001100Y-128538130D03*
%TO.N,/BURN_POS*%
X139601100Y-128923600D03*
X161494540Y-127330160D03*
%TO.N,GND*%
X109101100Y-129448600D03*
X144701100Y-125373600D03*
X139181100Y-127283600D03*
X117301100Y-115873600D03*
X130461100Y-119893600D03*
X125801100Y-129873600D03*
X108301100Y-114873600D03*
X178301100Y-114873600D03*
X133801100Y-125423600D03*
X120801100Y-129873600D03*
X137701100Y-123123600D03*
X153301100Y-124873600D03*
X175801100Y-129873600D03*
X148301100Y-114873600D03*
X160801100Y-129873600D03*
X130801100Y-129873600D03*
X118301100Y-114873600D03*
X145791100Y-128803600D03*
X174201100Y-115823600D03*
X173301100Y-114873600D03*
X175901100Y-112523600D03*
X148301100Y-124873600D03*
X159001100Y-126823600D03*
X129051100Y-115373600D03*
X168651100Y-113798600D03*
X160901100Y-129123600D03*
X138301100Y-124873600D03*
X115801100Y-129873600D03*
X155801100Y-129292600D03*
X110211100Y-125763600D03*
X177901100Y-129423600D03*
X177801100Y-124623600D03*
X106551100Y-129423600D03*
X107581100Y-125133600D03*
X160501100Y-113903600D03*
X159176100Y-112223600D03*
X133901100Y-121923600D03*
X142871100Y-127993600D03*
X153301100Y-114873600D03*
X157101100Y-129123600D03*
X115801100Y-119873600D03*
X177601100Y-115723600D03*
X143341100Y-126873600D03*
X128301100Y-114873600D03*
X167676100Y-115323600D03*
X179401100Y-128023600D03*
X150801100Y-129292600D03*
X134201100Y-128723600D03*
X163301100Y-114873600D03*
X143301100Y-114873600D03*
X133301100Y-114873600D03*
X170901100Y-116148600D03*
X137701100Y-124323600D03*
X176401100Y-127123600D03*
X111676100Y-129423600D03*
X143501100Y-128523600D03*
X158301100Y-124873600D03*
%TO.N,/BURN_NEG*%
X172576100Y-127548600D03*
D27*
%TO.N,PGOOD*%
X115251100Y-125043600D03*
D26*
X123801100Y-125123600D03*
%TD*%
%TO.N,+VBATT*%
D28*
X112956100Y-113408600D02*
X112901100Y-113353600D01*
X116611100Y-123783600D02*
X112956100Y-120128600D01*
X116611100Y-127913600D02*
X116611100Y-123783600D01*
D29*
X123131100Y-113353600D02*
X125651100Y-115873600D01*
D28*
X128001100Y-128538130D02*
X128001100Y-127423600D01*
D29*
X106551100Y-113353600D02*
X112901100Y-113353600D01*
X121051100Y-113353600D02*
X123131100Y-113353600D01*
D28*
X121076500Y-115123600D02*
X121076500Y-113379000D01*
D29*
X127412900Y-123010400D02*
X131601100Y-123010400D01*
X112901100Y-113353600D02*
X121051100Y-113353600D01*
D28*
X112956100Y-120128600D02*
X112956100Y-113408600D01*
D29*
X125651100Y-115873600D02*
X125651100Y-121248600D01*
D28*
X116721100Y-128023600D02*
X116611100Y-127913600D01*
X121051100Y-113353600D02*
X121076500Y-113379000D01*
D29*
X125651100Y-121248600D02*
X127412900Y-123010400D01*
%TO.N,/BURN_POS*%
D30*
X152041100Y-120503600D02*
X152041100Y-120613600D01*
D28*
X162502660Y-127082040D02*
X162636100Y-126948600D01*
X161494540Y-127330160D02*
X161494540Y-127263600D01*
D30*
X152041100Y-120503600D02*
X155801100Y-120503600D01*
D28*
X139601100Y-130048600D02*
X139576100Y-130073600D01*
X162636100Y-126948600D02*
X162636100Y-124148600D01*
D30*
X155801100Y-120503600D02*
X156751100Y-119553600D01*
D28*
X139601100Y-128923600D02*
X139601100Y-130048600D01*
X161676100Y-127082040D02*
X162502660Y-127082040D01*
X161494540Y-127263600D02*
X161676100Y-127082040D01*
%TO.N,GND*%
D31*
X109101100Y-128023600D02*
X109101100Y-129448600D01*
X111641100Y-128023600D02*
X111641100Y-129388600D01*
X106561100Y-128023600D02*
X106561100Y-129413600D01*
X111641100Y-129388600D02*
X111676100Y-129423600D01*
X106561100Y-129413600D02*
X106551100Y-129423600D01*
%TO.N,/BURN_NEG*%
D29*
X171863600Y-124173600D02*
X165201100Y-124173600D01*
D28*
X172576100Y-127548600D02*
X172638600Y-127486100D01*
D29*
X165201100Y-124173600D02*
X165176100Y-124148600D01*
D28*
X132326500Y-128898200D02*
X133528100Y-127696600D01*
X172638600Y-127486100D02*
X172638600Y-124948600D01*
X133851100Y-127423600D02*
X133851100Y-127373600D01*
X132326500Y-129023600D02*
X132326500Y-128898200D01*
X133528100Y-127696600D02*
X133578100Y-127696600D01*
D29*
X172638600Y-124948600D02*
X171863600Y-124173600D01*
D28*
X133578100Y-127696600D02*
X133851100Y-127423600D01*
%TO.N,TO_COMPUTE*%
D31*
X169701100Y-128523600D02*
X169876100Y-128698600D01*
X169701100Y-126073600D02*
X169701100Y-128523600D01*
%TO.N,PGOOD*%
D28*
X114351100Y-125073600D02*
X114351100Y-127843600D01*
X128001100Y-126023600D02*
X130741100Y-126023600D01*
X127051100Y-125123600D02*
X127951100Y-126023600D01*
X114051100Y-125123600D02*
X114071100Y-125143600D01*
X115251100Y-125043600D02*
X114381100Y-125043600D01*
X130741100Y-126023600D02*
X131201100Y-125563600D01*
X114351100Y-127843600D02*
X114171100Y-128023600D01*
X127951100Y-126023600D02*
X128001100Y-126023600D01*
X123801100Y-125123600D02*
X127051100Y-125123600D01*
%TO.N,/ENABLE*%
X119151100Y-127583600D02*
X119151100Y-126503600D01*
X119151100Y-126503600D02*
X122146100Y-123508600D01*
X122146100Y-123508600D02*
X124986100Y-123508600D01*
X125757900Y-124280400D02*
X131195700Y-124280400D01*
X124986100Y-123508600D02*
X125757900Y-124280400D01*
%TO.N,Net-(U1-BST)*%
X134201100Y-119973600D02*
X134201100Y-119923600D01*
X131323090Y-121613000D02*
X132561700Y-121613000D01*
X132561700Y-121613000D02*
X134201100Y-119973600D01*
X131195700Y-121740400D02*
X131323090Y-121613000D01*
%TO.N,Net-(U1-FB)*%
X135251100Y-127423600D02*
X135251100Y-127373600D01*
X135460690Y-125550400D02*
X136145700Y-125550400D01*
X135251100Y-127373600D02*
X135251100Y-125759990D01*
D31*
X136226100Y-130073600D02*
X137751100Y-130073600D01*
D28*
X135251100Y-125759990D02*
X135460690Y-125550400D01*
X135251100Y-127423600D02*
X135601100Y-127773600D01*
D31*
X135551100Y-127373600D02*
X135551100Y-129398600D01*
X135551100Y-129398600D02*
X136226100Y-130073600D01*
%TD*%
%TA.AperFunction,Conductor*%
%TO.N,GND*%
G36*
X119801624Y-114494123D02*
G01*
X119814903Y-114498022D01*
X119814410Y-114499699D01*
X119869238Y-114530589D01*
X119898790Y-114586458D01*
X119900421Y-114586030D01*
X119901578Y-114590435D01*
X119901542Y-114591661D01*
X119901906Y-114592348D01*
X119901994Y-114592780D01*
X119901507Y-114592879D01*
X119899577Y-114660253D01*
X119845087Y-114827958D01*
X119814000Y-115024233D01*
X119814000Y-115222965D01*
X119845086Y-115419233D01*
X119845087Y-115419240D01*
X119906484Y-115608205D01*
X119906491Y-115608224D01*
X119906491Y-115608225D01*
X119906492Y-115608228D01*
X119906493Y-115608229D01*
X119906494Y-115608232D01*
X119996170Y-115784229D01*
X119996713Y-115785294D01*
X120113519Y-115946064D01*
X120254036Y-116086581D01*
X120414806Y-116203387D01*
X120501649Y-116247635D01*
X120591867Y-116293605D01*
X120591870Y-116293606D01*
X120635002Y-116307620D01*
X120780864Y-116355013D01*
X120977139Y-116386100D01*
X120977140Y-116386100D01*
X121175860Y-116386100D01*
X121175861Y-116386100D01*
X121372136Y-116355013D01*
X121561132Y-116293605D01*
X121738194Y-116203387D01*
X121898964Y-116086581D01*
X122039481Y-115946064D01*
X122156287Y-115785294D01*
X122246505Y-115608232D01*
X122307913Y-115419236D01*
X122307913Y-115419235D01*
X122307914Y-115419233D01*
X122310685Y-115401740D01*
X122339000Y-115222965D01*
X122339000Y-115024239D01*
X122338999Y-115024233D01*
X122307913Y-114827964D01*
X122266043Y-114699099D01*
X122256057Y-114668366D01*
X122250047Y-114633818D01*
X122249747Y-114623298D01*
X122249723Y-114623131D01*
X122249614Y-114619537D01*
X122257585Y-114588992D01*
X122263815Y-114558049D01*
X122266340Y-114555443D01*
X122267257Y-114551932D01*
X122290476Y-114530545D01*
X122307808Y-114512667D01*
X122306897Y-114511249D01*
X122309876Y-114509334D01*
X122309879Y-114509333D01*
X122310732Y-114508784D01*
X122311906Y-114508439D01*
X122312447Y-114507882D01*
X122312711Y-114507733D01*
X122313091Y-114507519D01*
X122313367Y-114508010D01*
X122315681Y-114507331D01*
X122318650Y-114504597D01*
X122334333Y-114501854D01*
X122377770Y-114489100D01*
X122591569Y-114489100D01*
X122622203Y-114493504D01*
X122626501Y-114494121D01*
X122651745Y-114501534D01*
X122704491Y-114532830D01*
X124466673Y-116295012D01*
X124487823Y-116323264D01*
X124500431Y-116346353D01*
X124515600Y-116405782D01*
X124515600Y-121337975D01*
X124543557Y-121514489D01*
X124543557Y-121514490D01*
X124575407Y-121612515D01*
X124575415Y-121612537D01*
X124575923Y-121614101D01*
X124598789Y-121684478D01*
X124598791Y-121684481D01*
X124605759Y-121698156D01*
X124605762Y-121698165D01*
X124679933Y-121843732D01*
X124771159Y-121969293D01*
X124771161Y-121969295D01*
X124784986Y-121988324D01*
X124785003Y-121988343D01*
X126225270Y-123428610D01*
X126245587Y-123455361D01*
X126246005Y-123456103D01*
X126248491Y-123460655D01*
X126248728Y-123460928D01*
X126251776Y-123466331D01*
X126258420Y-123494958D01*
X126267700Y-123522850D01*
X126266230Y-123528606D01*
X126267573Y-123534392D01*
X126257683Y-123562071D01*
X126250412Y-123590547D01*
X126246063Y-123594598D01*
X126244066Y-123600188D01*
X126220908Y-123618029D01*
X126207927Y-123630121D01*
X126209340Y-123632319D01*
X126207933Y-123633223D01*
X126203063Y-123634652D01*
X126199353Y-123638109D01*
X126197887Y-123638844D01*
X126196774Y-123636624D01*
X126188718Y-123642831D01*
X126169653Y-123644460D01*
X126140905Y-123652900D01*
X126087011Y-123652900D01*
X126087010Y-123652899D01*
X126087010Y-123652900D01*
X126052075Y-123647877D01*
X126026833Y-123640465D01*
X125974088Y-123609169D01*
X125684599Y-123319680D01*
X125386111Y-123021191D01*
X125386106Y-123021187D01*
X125377668Y-123015549D01*
X125377662Y-123015545D01*
X125377614Y-123015512D01*
X125377575Y-123015487D01*
X125374020Y-123013112D01*
X125374005Y-123013094D01*
X125374002Y-123013100D01*
X125283339Y-122952520D01*
X125283326Y-122952513D01*
X125231119Y-122930889D01*
X125231116Y-122930888D01*
X125227545Y-122929409D01*
X125227543Y-122929407D01*
X125223922Y-122927907D01*
X125223920Y-122927906D01*
X125169135Y-122905214D01*
X125169127Y-122905212D01*
X125169120Y-122905210D01*
X125169101Y-122905206D01*
X125047910Y-122881100D01*
X125047907Y-122881100D01*
X125047903Y-122881100D01*
X122207904Y-122881100D01*
X122084297Y-122881100D01*
X122084292Y-122881100D01*
X122084290Y-122881100D01*
X121963090Y-122905208D01*
X121963056Y-122905216D01*
X121872739Y-122942626D01*
X121872727Y-122942633D01*
X121848870Y-122952515D01*
X121848860Y-122952520D01*
X121759502Y-123012228D01*
X121759477Y-123012244D01*
X121746098Y-123021182D01*
X121746088Y-123021191D01*
X121746084Y-123021194D01*
X119463630Y-125303651D01*
X118721362Y-126045918D01*
X118721348Y-126045932D01*
X118719813Y-126047468D01*
X118663686Y-126103594D01*
X118663685Y-126103596D01*
X118653796Y-126118394D01*
X118653791Y-126118401D01*
X118595019Y-126206362D01*
X118595011Y-126206378D01*
X118584531Y-126231678D01*
X118584532Y-126231679D01*
X118549876Y-126315344D01*
X118547714Y-126320564D01*
X118534023Y-126389398D01*
X118527218Y-126423608D01*
X118523600Y-126441797D01*
X118523600Y-126536176D01*
X118523476Y-126538945D01*
X118521964Y-126543353D01*
X118517081Y-126573074D01*
X118512758Y-126585874D01*
X118501766Y-126602251D01*
X118500811Y-126605037D01*
X118498862Y-126606578D01*
X118476510Y-126639883D01*
X118475058Y-126641142D01*
X118420193Y-126668619D01*
X118412628Y-126670265D01*
X118386270Y-126673100D01*
X118353231Y-126673100D01*
X118353227Y-126673100D01*
X118353046Y-126673111D01*
X118352184Y-126673212D01*
X118293616Y-126679507D01*
X118188982Y-126718534D01*
X118159761Y-126729433D01*
X118158766Y-126729804D01*
X118043556Y-126816050D01*
X118043555Y-126816052D01*
X118043550Y-126816056D01*
X117957308Y-126931261D01*
X117957300Y-126931273D01*
X117914519Y-127045977D01*
X117914518Y-127045978D01*
X117914518Y-127045979D01*
X117897603Y-127076955D01*
X117889286Y-127088065D01*
X117833352Y-127129936D01*
X117763668Y-127134921D01*
X117763662Y-127134919D01*
X117763661Y-127134920D01*
X117763659Y-127134919D01*
X117759185Y-127133946D01*
X117697860Y-127100464D01*
X117590888Y-126993492D01*
X117590887Y-126993491D01*
X117590886Y-126993490D01*
X117418917Y-126868549D01*
X117418911Y-126868546D01*
X117418910Y-126868545D01*
X117322190Y-126819263D01*
X117293347Y-126798930D01*
X117280936Y-126787209D01*
X117246376Y-126729433D01*
X117242901Y-126716585D01*
X117238600Y-126684210D01*
X117238600Y-126116659D01*
X117243622Y-126081726D01*
X117251034Y-126056481D01*
X117282329Y-126003738D01*
X117293812Y-125992256D01*
X117385914Y-125842934D01*
X117441099Y-125676397D01*
X117451600Y-125573609D01*
X117451599Y-124573592D01*
X117448234Y-124540655D01*
X117441099Y-124470803D01*
X117441098Y-124470800D01*
X117435090Y-124452669D01*
X117385914Y-124304266D01*
X117293812Y-124154944D01*
X117287521Y-124148653D01*
X117266374Y-124120402D01*
X117253767Y-124097313D01*
X117238600Y-124037888D01*
X117238600Y-123721795D01*
X117237490Y-123716218D01*
X117237488Y-123716207D01*
X117232724Y-123692256D01*
X117214486Y-123600566D01*
X117214484Y-123600562D01*
X117214483Y-123600557D01*
X117173641Y-123501960D01*
X117173640Y-123501958D01*
X117167417Y-123486935D01*
X117167289Y-123486525D01*
X117101992Y-123388801D01*
X117101177Y-123387514D01*
X117101070Y-123387142D01*
X117098512Y-123383593D01*
X113632526Y-119917607D01*
X113632521Y-119917602D01*
X113611374Y-119889351D01*
X113598767Y-119866262D01*
X113583600Y-119806837D01*
X113583600Y-114630929D01*
X113588623Y-114595993D01*
X113589538Y-114592879D01*
X113593027Y-114580994D01*
X113630772Y-114522244D01*
X113632141Y-114521057D01*
X113687020Y-114493577D01*
X113694579Y-114491933D01*
X113720932Y-114489100D01*
X119766690Y-114489100D01*
X119801624Y-114494123D01*
G37*
%TD.AperFunction*%
%TA.AperFunction,Conductor*%
G36*
X175143706Y-30509123D02*
G01*
X175158704Y-30513527D01*
X175217455Y-30551272D01*
X175218642Y-30552641D01*
X175246118Y-30607502D01*
X175247763Y-30615060D01*
X175250600Y-30641431D01*
X175250600Y-40319490D01*
X175284708Y-40446788D01*
X175317654Y-40503850D01*
X175350600Y-40560914D01*
X175443786Y-40654100D01*
X175557914Y-40719992D01*
X175685208Y-40754100D01*
X175816992Y-40754100D01*
X182108771Y-40754100D01*
X182143706Y-40759123D01*
X182158704Y-40763527D01*
X182217455Y-40801272D01*
X182217479Y-40801300D01*
X182217482Y-40801302D01*
X182217483Y-40801304D01*
X182218642Y-40802641D01*
X182246118Y-40857502D01*
X182247763Y-40865060D01*
X182250600Y-40891431D01*
X182250600Y-134061270D01*
X182250599Y-134061276D01*
X182250600Y-134061279D01*
X182245575Y-134096214D01*
X182241170Y-134111212D01*
X182203427Y-134169955D01*
X182203392Y-134169985D01*
X182203391Y-134169987D01*
X182203389Y-134169987D01*
X182202058Y-134171142D01*
X182147197Y-134198618D01*
X182139639Y-134200263D01*
X182113268Y-134203100D01*
X175685208Y-134203100D01*
X175557908Y-134237209D01*
X175557906Y-134237210D01*
X175443796Y-134303093D01*
X175443782Y-134303102D01*
X175443777Y-134303106D01*
X175350606Y-134396277D01*
X175350602Y-134396282D01*
X175350593Y-134396296D01*
X175284710Y-134510406D01*
X175284709Y-134510408D01*
X175250600Y-134637708D01*
X175250600Y-144285069D01*
X175250599Y-144285075D01*
X175250600Y-144285078D01*
X175245575Y-144320013D01*
X175241170Y-144335011D01*
X175203437Y-144393746D01*
X175202051Y-144394948D01*
X175147215Y-144422425D01*
X175139695Y-144424064D01*
X175113374Y-144426908D01*
X100643515Y-144477948D01*
X100643515Y-144477949D01*
X100643514Y-144477948D01*
X100643514Y-144477949D01*
X100608577Y-144472950D01*
X100593574Y-144468556D01*
X100534770Y-144430824D01*
X100533584Y-144429456D01*
X100506098Y-144374605D01*
X100504441Y-144367002D01*
X100501600Y-144340609D01*
X100501600Y-139825748D01*
X112050600Y-139825748D01*
X112050600Y-140081450D01*
X112070056Y-140229225D01*
X112083974Y-140334939D01*
X112101726Y-140401191D01*
X112150149Y-140581911D01*
X112150157Y-140581931D01*
X112247996Y-140818137D01*
X112247999Y-140818142D01*
X112375834Y-141039557D01*
X112375845Y-141039573D01*
X112375853Y-141039583D01*
X112531481Y-141242403D01*
X112531485Y-141242408D01*
X112531488Y-141242411D01*
X112531494Y-141242418D01*
X112531502Y-141242426D01*
X112712267Y-141423192D01*
X112712283Y-141423207D01*
X112712291Y-141423213D01*
X112915142Y-141578866D01*
X112915368Y-141578996D01*
X113133110Y-141704710D01*
X113136557Y-141706700D01*
X113136562Y-141706702D01*
X113136565Y-141706704D01*
X113372787Y-141804550D01*
X113619760Y-141870726D01*
X113873257Y-141904100D01*
X113873264Y-141904100D01*
X114128936Y-141904100D01*
X114128943Y-141904100D01*
X114382440Y-141870726D01*
X114629413Y-141804550D01*
X114865635Y-141706704D01*
X115087065Y-141578861D01*
X115289913Y-141423210D01*
X115470710Y-141242413D01*
X115626361Y-141039565D01*
X115754204Y-140818135D01*
X115852050Y-140581913D01*
X115918226Y-140334940D01*
X115951600Y-140081443D01*
X115951600Y-139825757D01*
X115951599Y-139825748D01*
X166800600Y-139825748D01*
X166800600Y-140081450D01*
X166820056Y-140229225D01*
X166833974Y-140334939D01*
X166851726Y-140401191D01*
X166900149Y-140581911D01*
X166900157Y-140581931D01*
X166997996Y-140818137D01*
X166997999Y-140818142D01*
X167125834Y-141039557D01*
X167125845Y-141039573D01*
X167125853Y-141039583D01*
X167281481Y-141242403D01*
X167281485Y-141242408D01*
X167281488Y-141242411D01*
X167281494Y-141242418D01*
X167281502Y-141242426D01*
X167462267Y-141423192D01*
X167462283Y-141423207D01*
X167462291Y-141423213D01*
X167665142Y-141578866D01*
X167665368Y-141578996D01*
X167883110Y-141704710D01*
X167886557Y-141706700D01*
X167886562Y-141706702D01*
X167886565Y-141706704D01*
X168122787Y-141804550D01*
X168369760Y-141870726D01*
X168623257Y-141904100D01*
X168623264Y-141904100D01*
X168878936Y-141904100D01*
X168878943Y-141904100D01*
X169132440Y-141870726D01*
X169379413Y-141804550D01*
X169615635Y-141706704D01*
X169837065Y-141578861D01*
X170039913Y-141423210D01*
X170220710Y-141242413D01*
X170376361Y-141039565D01*
X170504204Y-140818135D01*
X170602050Y-140581913D01*
X170668226Y-140334940D01*
X170701600Y-140081443D01*
X170701600Y-139825757D01*
X170668226Y-139572260D01*
X170602050Y-139325287D01*
X170504204Y-139089065D01*
X170504203Y-139089064D01*
X170504087Y-139088783D01*
X170503294Y-139087355D01*
X170502214Y-139085617D01*
X170376496Y-138867868D01*
X170376366Y-138867642D01*
X170376366Y-138867641D01*
X170220713Y-138664791D01*
X170220707Y-138664783D01*
X170220692Y-138664767D01*
X170039926Y-138484002D01*
X170039918Y-138483994D01*
X170039911Y-138483988D01*
X170039908Y-138483985D01*
X170039903Y-138483981D01*
X169840650Y-138331089D01*
X169840638Y-138331080D01*
X169837073Y-138328345D01*
X169837071Y-138328343D01*
X169837065Y-138328339D01*
X169837060Y-138328336D01*
X169837057Y-138328334D01*
X169835311Y-138327326D01*
X169835307Y-138327323D01*
X169744133Y-138274684D01*
X169615642Y-138200499D01*
X169615637Y-138200496D01*
X169383468Y-138104329D01*
X169383461Y-138104326D01*
X169379419Y-138102651D01*
X169192710Y-138052623D01*
X169132440Y-138036474D01*
X169132434Y-138036473D01*
X169132433Y-138036473D01*
X169111418Y-138033706D01*
X169076107Y-138029057D01*
X169076106Y-138029056D01*
X168878957Y-138003100D01*
X168878950Y-138003100D01*
X168878943Y-138003100D01*
X168623257Y-138003100D01*
X168623249Y-138003100D01*
X168623241Y-138003100D01*
X168397926Y-138032764D01*
X168397926Y-138032765D01*
X168393655Y-138033327D01*
X168369762Y-138036473D01*
X168122790Y-138102648D01*
X168122767Y-138102657D01*
X167886561Y-138200496D01*
X167665146Y-138328331D01*
X167665129Y-138328343D01*
X167665115Y-138328353D01*
X167462295Y-138483981D01*
X167462280Y-138483995D01*
X167462272Y-138484002D01*
X167281502Y-138664772D01*
X167281495Y-138664780D01*
X167281481Y-138664795D01*
X167125853Y-138867615D01*
X167125843Y-138867629D01*
X167125831Y-138867646D01*
X166997996Y-139089061D01*
X166900157Y-139325267D01*
X166900148Y-139325290D01*
X166846084Y-139527063D01*
X166833975Y-139572260D01*
X166833974Y-139572262D01*
X166800600Y-139825748D01*
X115951599Y-139825748D01*
X115918226Y-139572260D01*
X115852050Y-139325287D01*
X115754204Y-139089065D01*
X115754203Y-139089064D01*
X115754087Y-139088783D01*
X115753294Y-139087355D01*
X115752214Y-139085617D01*
X115626496Y-138867868D01*
X115626366Y-138867642D01*
X115626366Y-138867641D01*
X115470713Y-138664791D01*
X115470707Y-138664783D01*
X115470692Y-138664767D01*
X115289926Y-138484002D01*
X115289918Y-138483994D01*
X115289911Y-138483988D01*
X115289908Y-138483985D01*
X115289903Y-138483981D01*
X115090650Y-138331089D01*
X115090638Y-138331080D01*
X115087073Y-138328345D01*
X115087071Y-138328343D01*
X115087065Y-138328339D01*
X115087060Y-138328336D01*
X115087057Y-138328334D01*
X115085311Y-138327326D01*
X115085307Y-138327323D01*
X114994133Y-138274684D01*
X114865642Y-138200499D01*
X114865637Y-138200496D01*
X114633468Y-138104329D01*
X114633461Y-138104326D01*
X114629419Y-138102651D01*
X114442710Y-138052623D01*
X114382440Y-138036474D01*
X114382434Y-138036473D01*
X114382433Y-138036473D01*
X114361418Y-138033706D01*
X114326107Y-138029057D01*
X114326106Y-138029056D01*
X114128957Y-138003100D01*
X114128950Y-138003100D01*
X114128943Y-138003100D01*
X113873257Y-138003100D01*
X113873249Y-138003100D01*
X113873241Y-138003100D01*
X113647926Y-138032764D01*
X113647926Y-138032765D01*
X113643655Y-138033327D01*
X113619762Y-138036473D01*
X113372790Y-138102648D01*
X113372767Y-138102657D01*
X113136561Y-138200496D01*
X112915146Y-138328331D01*
X112915129Y-138328343D01*
X112915115Y-138328353D01*
X112712295Y-138483981D01*
X112712280Y-138483995D01*
X112712272Y-138484002D01*
X112531502Y-138664772D01*
X112531495Y-138664780D01*
X112531481Y-138664795D01*
X112375853Y-138867615D01*
X112375843Y-138867629D01*
X112375831Y-138867646D01*
X112247996Y-139089061D01*
X112150157Y-139325267D01*
X112150148Y-139325290D01*
X112096084Y-139527063D01*
X112083975Y-139572260D01*
X112083974Y-139572262D01*
X112050600Y-139825748D01*
X100501600Y-139825748D01*
X100501600Y-112450739D01*
X105200600Y-112450739D01*
X105200600Y-114246476D01*
X105200759Y-114248406D01*
X105200985Y-114250054D01*
X105207007Y-114306082D01*
X105234790Y-114380571D01*
X105257302Y-114440928D01*
X105257303Y-114440930D01*
X105257304Y-114440932D01*
X105257305Y-114440933D01*
X105343550Y-114556142D01*
X105343556Y-114556148D01*
X105372519Y-114577829D01*
X105458764Y-114642393D01*
X105458771Y-114642397D01*
X105593617Y-114692691D01*
X105593616Y-114692691D01*
X105600544Y-114693435D01*
X105653227Y-114699100D01*
X107448972Y-114699099D01*
X107508583Y-114692691D01*
X107643431Y-114642396D01*
X107758646Y-114556146D01*
X107760958Y-114553056D01*
X107785916Y-114528101D01*
X107804118Y-114514476D01*
X107856404Y-114491716D01*
X107859992Y-114491069D01*
X107869053Y-114490258D01*
X107869583Y-114490061D01*
X107870071Y-114490167D01*
X107882000Y-114489100D01*
X112186770Y-114489100D01*
X112221706Y-114494123D01*
X112236704Y-114498527D01*
X112251694Y-114508157D01*
X112268775Y-114513167D01*
X112295455Y-114536272D01*
X112296642Y-114537641D01*
X112324118Y-114592502D01*
X112325763Y-114600060D01*
X112328600Y-114626431D01*
X112328600Y-120190411D01*
X112352709Y-120311621D01*
X112352713Y-120311635D01*
X112368026Y-120348600D01*
X112378385Y-120373608D01*
X112400017Y-120425833D01*
X112455502Y-120508872D01*
X112458069Y-120512714D01*
X112458077Y-120512728D01*
X112468676Y-120528590D01*
X112468692Y-120528612D01*
X112468705Y-120528626D01*
X114882011Y-122941930D01*
X115680176Y-123740095D01*
X115700343Y-123767034D01*
X115701325Y-123768346D01*
X115707977Y-123780528D01*
X115722829Y-123848801D01*
X115698413Y-123914266D01*
X115698410Y-123914267D01*
X115692710Y-123921883D01*
X115658541Y-123953110D01*
X115643945Y-123962114D01*
X115532438Y-124030891D01*
X115451385Y-124111945D01*
X115451382Y-124111946D01*
X115451382Y-124111948D01*
X115423127Y-124133098D01*
X115409409Y-124140588D01*
X115341151Y-124155439D01*
X115341136Y-124155437D01*
X115341136Y-124155438D01*
X115341135Y-124155437D01*
X115339345Y-124155310D01*
X115281144Y-124135942D01*
X115274629Y-124131755D01*
X115253993Y-124115125D01*
X115169757Y-124030889D01*
X115169756Y-124030888D01*
X115032002Y-123945921D01*
X115032002Y-123945920D01*
X115020440Y-123938789D01*
X115020437Y-123938788D01*
X115020436Y-123938787D01*
X115020431Y-123938785D01*
X115018962Y-123938298D01*
X114862365Y-123886407D01*
X114859545Y-123885241D01*
X114853892Y-123883599D01*
X114751119Y-123873100D01*
X114751110Y-123873100D01*
X113951098Y-123873100D01*
X113951080Y-123873101D01*
X113951072Y-123873101D01*
X113951053Y-123873103D01*
X113848297Y-123883600D01*
X113848293Y-123883601D01*
X113848132Y-123883656D01*
X113681767Y-123938785D01*
X113681765Y-123938786D01*
X113681763Y-123938787D01*
X113643944Y-123962114D01*
X113532440Y-124030890D01*
X113408390Y-124154940D01*
X113375299Y-124208589D01*
X113321945Y-124295091D01*
X113316286Y-124304265D01*
X113316277Y-124304291D01*
X113293477Y-124373096D01*
X113293477Y-124373100D01*
X113290622Y-124381717D01*
X113271400Y-124439723D01*
X113262952Y-124452669D01*
X113261465Y-124467230D01*
X113260642Y-124473481D01*
X113260459Y-124477076D01*
X113250600Y-124573573D01*
X113250600Y-124573580D01*
X113250600Y-124573583D01*
X113250600Y-125573601D01*
X113250600Y-125573609D01*
X113250603Y-125573645D01*
X113260612Y-125671616D01*
X113261100Y-125676396D01*
X113261101Y-125676399D01*
X113298310Y-125788687D01*
X113316286Y-125842934D01*
X113408388Y-125992256D01*
X113532444Y-126116312D01*
X113641537Y-126183601D01*
X113649522Y-126188526D01*
X113676615Y-126211137D01*
X113689846Y-126225846D01*
X113718569Y-126281287D01*
X113720516Y-126289853D01*
X113723600Y-126317336D01*
X113723600Y-126642093D01*
X113718576Y-126677032D01*
X113713766Y-126693411D01*
X113704673Y-126707897D01*
X113700519Y-126723259D01*
X113677984Y-126750422D01*
X113668113Y-126759353D01*
X113641214Y-126777888D01*
X113463281Y-126868550D01*
X113463279Y-126868551D01*
X113291314Y-126993489D01*
X113291311Y-126993491D01*
X113140992Y-127143810D01*
X113016049Y-127315782D01*
X112919545Y-127505182D01*
X112853852Y-127707362D01*
X112832751Y-127840589D01*
X112827860Y-127871473D01*
X112827554Y-127873406D01*
X112820600Y-127917309D01*
X112820600Y-128129886D01*
X112822667Y-128142937D01*
X112822667Y-128142939D01*
X112851129Y-128322644D01*
X112853853Y-128339840D01*
X112853855Y-128339846D01*
X112916034Y-128531215D01*
X112919544Y-128542015D01*
X112982236Y-128665055D01*
X113016051Y-128731420D01*
X113140990Y-128903386D01*
X113140992Y-128903388D01*
X113291316Y-129053712D01*
X113463269Y-129178642D01*
X113463277Y-129178647D01*
X113463279Y-129178648D01*
X113463281Y-129178649D01*
X113463282Y-129178650D01*
X113463300Y-129178660D01*
X113463542Y-129178782D01*
X113652688Y-129275157D01*
X113854857Y-129340846D01*
X114064813Y-129374100D01*
X114064814Y-129374100D01*
X114277386Y-129374100D01*
X114277387Y-129374100D01*
X114487343Y-129340846D01*
X114689512Y-129275157D01*
X114878916Y-129178651D01*
X114920362Y-129148539D01*
X115050886Y-129053709D01*
X115050887Y-129053706D01*
X115050890Y-129053705D01*
X115050892Y-129053704D01*
X115050893Y-129053702D01*
X115050944Y-129053666D01*
X115051705Y-129052890D01*
X115201204Y-128903392D01*
X115201206Y-128903388D01*
X115201209Y-128903386D01*
X115326148Y-128731420D01*
X115326147Y-128731420D01*
X115326151Y-128731416D01*
X115326153Y-128731411D01*
X115329015Y-128727473D01*
X115329015Y-128727472D01*
X115334165Y-128720384D01*
X115344338Y-128708122D01*
X115351751Y-128700273D01*
X115412094Y-128665055D01*
X115481899Y-128668050D01*
X115535606Y-128704214D01*
X115541811Y-128711376D01*
X115553826Y-128727789D01*
X115556046Y-128731413D01*
X115556050Y-128731419D01*
X115556051Y-128731420D01*
X115680990Y-128903386D01*
X115680992Y-128903388D01*
X115831316Y-129053712D01*
X116003269Y-129178642D01*
X116003277Y-129178647D01*
X116003279Y-129178648D01*
X116003281Y-129178649D01*
X116003282Y-129178650D01*
X116003300Y-129178660D01*
X116003542Y-129178782D01*
X116192688Y-129275157D01*
X116394857Y-129340846D01*
X116604813Y-129374100D01*
X116604814Y-129374100D01*
X116817386Y-129374100D01*
X116817387Y-129374100D01*
X117027343Y-129340846D01*
X117229512Y-129275157D01*
X117418916Y-129178651D01*
X117515573Y-129108426D01*
X117587425Y-129056223D01*
X117589642Y-129054727D01*
X117593081Y-129052113D01*
X117598927Y-129047865D01*
X117604764Y-129039831D01*
X117691825Y-128952769D01*
X117720073Y-128931623D01*
X117732256Y-128924971D01*
X117800527Y-128910121D01*
X117865991Y-128934539D01*
X117865998Y-128934543D01*
X117869671Y-128937293D01*
X117911535Y-128993221D01*
X117920235Y-129016546D01*
X117957302Y-129115928D01*
X117957306Y-129115935D01*
X117989352Y-129158742D01*
X118043550Y-129231142D01*
X118043556Y-129231148D01*
X118056575Y-129240894D01*
X118158764Y-129317393D01*
X118158771Y-129317397D01*
X118293617Y-129367691D01*
X118293616Y-129367691D01*
X118300544Y-129368435D01*
X118353227Y-129374100D01*
X120148972Y-129374099D01*
X120208583Y-129367691D01*
X120343431Y-129317396D01*
X120458646Y-129231146D01*
X120544896Y-129115931D01*
X120595191Y-128981083D01*
X120601600Y-128921473D01*
X120601599Y-127125728D01*
X120595191Y-127066117D01*
X120593910Y-127062683D01*
X120593722Y-127062180D01*
X120576614Y-127016310D01*
X120544897Y-126931271D01*
X120544893Y-126931264D01*
X120458647Y-126816055D01*
X120458644Y-126816052D01*
X120458643Y-126816051D01*
X120458642Y-126816050D01*
X120366685Y-126747211D01*
X120343435Y-126729806D01*
X120343433Y-126729805D01*
X120343432Y-126729804D01*
X120343430Y-126729803D01*
X120343428Y-126729802D01*
X120208582Y-126679508D01*
X120208583Y-126679508D01*
X120161274Y-126674422D01*
X120151252Y-126671600D01*
X120147853Y-126669468D01*
X120137410Y-126666803D01*
X120126305Y-126662203D01*
X120071902Y-126618362D01*
X120049838Y-126552067D01*
X120066002Y-126486287D01*
X120071195Y-126477168D01*
X120091263Y-126450853D01*
X122357100Y-124185018D01*
X122385345Y-124163875D01*
X122408437Y-124151267D01*
X122467862Y-124136100D01*
X123641838Y-124136100D01*
X123676755Y-124141118D01*
X123680630Y-124142255D01*
X123682616Y-124142838D01*
X123741400Y-124180603D01*
X123770434Y-124244155D01*
X123760501Y-124313315D01*
X123714756Y-124366124D01*
X123713269Y-124367080D01*
X123670404Y-124384393D01*
X123582197Y-124401938D01*
X123582179Y-124401944D01*
X123445617Y-124458508D01*
X123445608Y-124458513D01*
X123445591Y-124458523D01*
X123322681Y-124540649D01*
X123322680Y-124540650D01*
X123322674Y-124540655D01*
X123218155Y-124645174D01*
X123218150Y-124645180D01*
X123218149Y-124645181D01*
X123136023Y-124768091D01*
X123136013Y-124768108D01*
X123136008Y-124768117D01*
X123079444Y-124904679D01*
X123079438Y-124904698D01*
X123050600Y-125049676D01*
X123050600Y-125153151D01*
X123045337Y-125171071D01*
X123079438Y-125342499D01*
X123079440Y-125342507D01*
X123079443Y-125342517D01*
X123083366Y-125351987D01*
X123136008Y-125479081D01*
X123136013Y-125479090D01*
X123136023Y-125479107D01*
X123218150Y-125602018D01*
X123218155Y-125602024D01*
X123322674Y-125706543D01*
X123322680Y-125706548D01*
X123322684Y-125706551D01*
X123445598Y-125788680D01*
X123445611Y-125788687D01*
X123511969Y-125816173D01*
X123576575Y-125842933D01*
X123580985Y-125845019D01*
X123727176Y-125874100D01*
X123727179Y-125874100D01*
X123727182Y-125874100D01*
X123875020Y-125874100D01*
X123972562Y-125854696D01*
X124020013Y-125845258D01*
X124156595Y-125788684D01*
X124166751Y-125781897D01*
X124198584Y-125766668D01*
X124230220Y-125756763D01*
X124267269Y-125751100D01*
X126721989Y-125751100D01*
X126756921Y-125756121D01*
X126782165Y-125763534D01*
X126834911Y-125794830D01*
X127001674Y-125961593D01*
X127022823Y-125989844D01*
X127035431Y-126012933D01*
X127050600Y-126072362D01*
X127050600Y-126471470D01*
X127050601Y-126471476D01*
X127057008Y-126531083D01*
X127104598Y-126658678D01*
X127105981Y-126663579D01*
X127105969Y-126664638D01*
X127107807Y-126670897D01*
X127114469Y-126701531D01*
X127112279Y-126762811D01*
X127106471Y-126782594D01*
X127103675Y-126790997D01*
X127057007Y-126916116D01*
X127050600Y-126975724D01*
X127050600Y-127871474D01*
X127050759Y-127873406D01*
X127050985Y-127875054D01*
X127057007Y-127931082D01*
X127107304Y-128065933D01*
X127107306Y-128065935D01*
X127155181Y-128129887D01*
X127193554Y-128181146D01*
X127224570Y-128204364D01*
X127232333Y-128212801D01*
X127233922Y-128216023D01*
X127240347Y-128222448D01*
X127250074Y-128235441D01*
X127274410Y-128299813D01*
X127275586Y-128314435D01*
X127273602Y-128348567D01*
X127250600Y-128464204D01*
X127250600Y-128567681D01*
X127245337Y-128585601D01*
X127279438Y-128757029D01*
X127279444Y-128757049D01*
X127336008Y-128893611D01*
X127336013Y-128893620D01*
X127336023Y-128893637D01*
X127418149Y-129016547D01*
X127418150Y-129016548D01*
X127418155Y-129016554D01*
X127522674Y-129121073D01*
X127522680Y-129121078D01*
X127522684Y-129121081D01*
X127645598Y-129203210D01*
X127645611Y-129203217D01*
X127766427Y-129253260D01*
X127776590Y-129257469D01*
X127780986Y-129259549D01*
X127927176Y-129288630D01*
X128075020Y-129288630D01*
X128075021Y-129288630D01*
X128141423Y-129275421D01*
X128172958Y-129269148D01*
X128172959Y-129269148D01*
X128184801Y-129266792D01*
X128220013Y-129259788D01*
X128356595Y-129203214D01*
X128479516Y-129121081D01*
X128584051Y-129016546D01*
X128645728Y-128924239D01*
X131064000Y-128924239D01*
X131064000Y-129122961D01*
X131072039Y-129173714D01*
X131075209Y-129193731D01*
X131095087Y-129319240D01*
X131156484Y-129508205D01*
X131156492Y-129508228D01*
X131156494Y-129508232D01*
X131231829Y-129656082D01*
X131246713Y-129685294D01*
X131363519Y-129846064D01*
X131504036Y-129986581D01*
X131664806Y-130103387D01*
X131751649Y-130147635D01*
X131841867Y-130193605D01*
X131841870Y-130193606D01*
X131936366Y-130224309D01*
X132030864Y-130255013D01*
X132227139Y-130286100D01*
X132227140Y-130286100D01*
X132425860Y-130286100D01*
X132425861Y-130286100D01*
X132622136Y-130255013D01*
X132811132Y-130193605D01*
X132988194Y-130103387D01*
X133148964Y-129986581D01*
X133289481Y-129846064D01*
X133406287Y-129685294D01*
X133496505Y-129508232D01*
X133557913Y-129319236D01*
X133589000Y-129122961D01*
X133589000Y-128924239D01*
X133559723Y-128739397D01*
X133558353Y-128713791D01*
X133558475Y-128711371D01*
X133559277Y-128695363D01*
X133582294Y-128629394D01*
X133637319Y-128586343D01*
X133646075Y-128582864D01*
X133691866Y-128574099D01*
X133951102Y-128574099D01*
X133951108Y-128574099D01*
X134053897Y-128563599D01*
X134220434Y-128508414D01*
X134369756Y-128416312D01*
X134450817Y-128335250D01*
X134479064Y-128314105D01*
X134492788Y-128306611D01*
X134561046Y-128291760D01*
X134562856Y-128291889D01*
X134621053Y-128311255D01*
X134627571Y-128315444D01*
X134648206Y-128332074D01*
X134732444Y-128416312D01*
X134868464Y-128500209D01*
X134885298Y-128512672D01*
X134904305Y-128529404D01*
X134941482Y-128588003D01*
X134945711Y-128602614D01*
X134950600Y-128637089D01*
X134950600Y-129310190D01*
X134950599Y-129310264D01*
X134950599Y-129311948D01*
X134950599Y-129477654D01*
X134950598Y-129477654D01*
X134950599Y-129477657D01*
X134954672Y-129492859D01*
X134954673Y-129492866D01*
X134977562Y-129578286D01*
X134982435Y-129596470D01*
X134991524Y-129630387D01*
X134991527Y-129630394D01*
X134999173Y-129643637D01*
X134999180Y-129643649D01*
X135070570Y-129767302D01*
X135070577Y-129767312D01*
X135070582Y-129767318D01*
X135070588Y-129767325D01*
X135189173Y-129885910D01*
X135189176Y-129885912D01*
X135210325Y-129914163D01*
X135222932Y-129937251D01*
X135238100Y-129996678D01*
X135238100Y-130360269D01*
X135238101Y-130360287D01*
X135238103Y-130360311D01*
X135238104Y-130360318D01*
X135248424Y-130461348D01*
X135248424Y-130461350D01*
X135248425Y-130461352D01*
X135302692Y-130625115D01*
X135302693Y-130625118D01*
X135336995Y-130680729D01*
X135393260Y-130771950D01*
X135515250Y-130893940D01*
X135662084Y-130984508D01*
X135825847Y-131038774D01*
X135926923Y-131049100D01*
X136525276Y-131049099D01*
X136525284Y-131049098D01*
X136525287Y-131049098D01*
X136525295Y-131049097D01*
X136525585Y-131049079D01*
X136526601Y-131048963D01*
X136570942Y-131044433D01*
X136580631Y-131043444D01*
X136580631Y-131043443D01*
X136626353Y-131038774D01*
X136790116Y-130984508D01*
X136908334Y-130911589D01*
X136940688Y-130897530D01*
X136956975Y-130893074D01*
X137024637Y-130893701D01*
X137037717Y-130897542D01*
X137067876Y-130910980D01*
X137185231Y-130983366D01*
X137186778Y-130984358D01*
X137187081Y-130984506D01*
X137187084Y-130984508D01*
X137187086Y-130984508D01*
X137187089Y-130984510D01*
X137228926Y-130998373D01*
X137350847Y-131038774D01*
X137451923Y-131049100D01*
X138050276Y-131049099D01*
X138050284Y-131049098D01*
X138050287Y-131049098D01*
X138050295Y-131049097D01*
X138050585Y-131049079D01*
X138051601Y-131048963D01*
X138095942Y-131044433D01*
X138105631Y-131043444D01*
X138105631Y-131043443D01*
X138151353Y-131038774D01*
X138315116Y-130984508D01*
X138461950Y-130893940D01*
X138563317Y-130792572D01*
X138591564Y-130771427D01*
X138605288Y-130763933D01*
X138673546Y-130749082D01*
X138675356Y-130749211D01*
X138733553Y-130768577D01*
X138740071Y-130772766D01*
X138760706Y-130789396D01*
X138865250Y-130893940D01*
X139012084Y-130984508D01*
X139175847Y-131038774D01*
X139276923Y-131049100D01*
X139875276Y-131049099D01*
X139875284Y-131049098D01*
X139875287Y-131049098D01*
X139875295Y-131049097D01*
X139875585Y-131049079D01*
X139876601Y-131048963D01*
X139920942Y-131044433D01*
X139930631Y-131043444D01*
X139930631Y-131043443D01*
X139976353Y-131038774D01*
X140140116Y-130984508D01*
X140286950Y-130893940D01*
X140408940Y-130771950D01*
X140499508Y-130625116D01*
X140553774Y-130461353D01*
X140564100Y-130360277D01*
X140564099Y-129786924D01*
X140553774Y-129685847D01*
X140499508Y-129522084D01*
X140408940Y-129375250D01*
X140351026Y-129317336D01*
X140349755Y-129315639D01*
X140329874Y-129289080D01*
X140322382Y-129275359D01*
X140307531Y-129207088D01*
X140307809Y-129203210D01*
X140308502Y-129193511D01*
X140317626Y-129154904D01*
X140322755Y-129142521D01*
X140322755Y-129142518D01*
X140322758Y-129142513D01*
X140331592Y-129098101D01*
X140335508Y-129078417D01*
X140335508Y-129078415D01*
X140351600Y-128997521D01*
X140351600Y-128849676D01*
X140322519Y-128703485D01*
X140320432Y-128699072D01*
X140309160Y-128671859D01*
X140305824Y-128663804D01*
X140284386Y-128612048D01*
X140266190Y-128568117D01*
X140266185Y-128568108D01*
X140266180Y-128568098D01*
X140184051Y-128445184D01*
X140184048Y-128445180D01*
X140184043Y-128445174D01*
X140079524Y-128340655D01*
X140079518Y-128340650D01*
X140079517Y-128340649D01*
X139956607Y-128258523D01*
X139956606Y-128258522D01*
X139956601Y-128258519D01*
X139956588Y-128258512D01*
X139956581Y-128258508D01*
X139820019Y-128201944D01*
X139820020Y-128201944D01*
X139820017Y-128201943D01*
X139820007Y-128201940D01*
X139820005Y-128201939D01*
X139820000Y-128201938D01*
X139675022Y-128173100D01*
X139675020Y-128173100D01*
X139675018Y-128173100D01*
X139527182Y-128173100D01*
X139527180Y-128173100D01*
X139527178Y-128173100D01*
X139382196Y-128201938D01*
X139382179Y-128201944D01*
X139245617Y-128258508D01*
X139245608Y-128258513D01*
X139245591Y-128258523D01*
X139122681Y-128340649D01*
X139122680Y-128340650D01*
X139122674Y-128340655D01*
X139018155Y-128445174D01*
X139018150Y-128445180D01*
X139018149Y-128445181D01*
X138936023Y-128568091D01*
X138936013Y-128568108D01*
X138936008Y-128568117D01*
X138879444Y-128704679D01*
X138879438Y-128704698D01*
X138850600Y-128849676D01*
X138850600Y-128849679D01*
X138850600Y-128849682D01*
X138850600Y-128997518D01*
X138850600Y-128997520D01*
X138850599Y-128997520D01*
X138878719Y-129138884D01*
X138879188Y-129142128D01*
X138878930Y-129143928D01*
X138880457Y-129158742D01*
X138880561Y-129170298D01*
X138880286Y-129170300D01*
X138881100Y-129190526D01*
X138880335Y-129197955D01*
X138872461Y-129230439D01*
X138872155Y-129231221D01*
X138855958Y-129260332D01*
X138854682Y-129262037D01*
X138843086Y-129275421D01*
X138763887Y-129354620D01*
X138735631Y-129375772D01*
X138721910Y-129383264D01*
X138704492Y-129387053D01*
X138688854Y-129395595D01*
X138653650Y-129398116D01*
X138651844Y-129397987D01*
X138593643Y-129378619D01*
X138587128Y-129374432D01*
X138566492Y-129357802D01*
X138461950Y-129253260D01*
X138461946Y-129253257D01*
X138348011Y-129182981D01*
X138348006Y-129182979D01*
X138340985Y-129178648D01*
X138315118Y-129162693D01*
X138315113Y-129162691D01*
X138272248Y-129148487D01*
X138266372Y-129146540D01*
X138266368Y-129146538D01*
X138159821Y-129111232D01*
X138157001Y-129110066D01*
X138151348Y-129108424D01*
X138050287Y-129098100D01*
X138050278Y-129098100D01*
X137451930Y-129098100D01*
X137451912Y-129098101D01*
X137451890Y-129098103D01*
X137451880Y-129098104D01*
X137350850Y-129108424D01*
X137350847Y-129108425D01*
X137187084Y-129162692D01*
X137187081Y-129162693D01*
X137187079Y-129162693D01*
X137187079Y-129162694D01*
X137187076Y-129162695D01*
X137088092Y-129223750D01*
X137088088Y-129223753D01*
X137068868Y-129235607D01*
X137036506Y-129249668D01*
X137020227Y-129254123D01*
X137001811Y-129253952D01*
X137001475Y-129254045D01*
X137001162Y-129253946D01*
X136952560Y-129253498D01*
X136939481Y-129249657D01*
X136909326Y-129236222D01*
X136815985Y-129178648D01*
X136790118Y-129162693D01*
X136790113Y-129162691D01*
X136747248Y-129148487D01*
X136741365Y-129146537D01*
X136741364Y-129146537D01*
X136634821Y-129111232D01*
X136631995Y-129110064D01*
X136626352Y-129108424D01*
X136525293Y-129098100D01*
X136525284Y-129098100D01*
X136525277Y-129098100D01*
X136293430Y-129098100D01*
X136293425Y-129098099D01*
X136293423Y-129098100D01*
X136258489Y-129093075D01*
X136243490Y-129088670D01*
X136184744Y-129050927D01*
X136184715Y-129050893D01*
X136184714Y-129050893D01*
X136184713Y-129050891D01*
X136183557Y-129049558D01*
X136156077Y-128994683D01*
X136154432Y-128987121D01*
X136151600Y-128960768D01*
X136151600Y-128637337D01*
X136156623Y-128602402D01*
X136161102Y-128587148D01*
X136198503Y-128528695D01*
X136215371Y-128513963D01*
X136215370Y-128513961D01*
X136217085Y-128512464D01*
X136233556Y-128500319D01*
X136369756Y-128416312D01*
X136493812Y-128292256D01*
X136585914Y-128142934D01*
X136641099Y-127976397D01*
X136651600Y-127873609D01*
X136651599Y-126873592D01*
X136645964Y-126818433D01*
X136641099Y-126770803D01*
X136641098Y-126770800D01*
X136627513Y-126729804D01*
X136627512Y-126729802D01*
X136608727Y-126673111D01*
X136585914Y-126604266D01*
X136563770Y-126568366D01*
X136549707Y-126535997D01*
X136548362Y-126531083D01*
X136546045Y-126522611D01*
X136547339Y-126452755D01*
X136558493Y-126436086D01*
X136586190Y-126394692D01*
X136586710Y-126394258D01*
X136640931Y-126368053D01*
X136647480Y-126366692D01*
X136672703Y-126364100D01*
X137041786Y-126364100D01*
X137041794Y-126364100D01*
X137078669Y-126361198D01*
X137078671Y-126361197D01*
X137078673Y-126361197D01*
X137078676Y-126361196D01*
X137078690Y-126361195D01*
X137079430Y-126360985D01*
X137088273Y-126358528D01*
X137089466Y-126358061D01*
X137120291Y-126349105D01*
X137236498Y-126315344D01*
X137377965Y-126231681D01*
X137494181Y-126115465D01*
X137577844Y-125973998D01*
X137611605Y-125857791D01*
X137623697Y-125816173D01*
X137623698Y-125816167D01*
X137626600Y-125779294D01*
X137626600Y-125347906D01*
X137623698Y-125311031D01*
X137622438Y-125306695D01*
X137617465Y-125289578D01*
X137578107Y-125154106D01*
X137577859Y-125153227D01*
X137515671Y-125048073D01*
X137514468Y-125043334D01*
X137513752Y-125043726D01*
X137489058Y-124998559D01*
X137482721Y-124986969D01*
X137478923Y-124969553D01*
X137470370Y-124953909D01*
X137467833Y-124918710D01*
X137467959Y-124916928D01*
X137487332Y-124858673D01*
X137491040Y-124852904D01*
X137491039Y-124852903D01*
X137506222Y-124829279D01*
X137506514Y-124826762D01*
X137513935Y-124812061D01*
X137577844Y-124703998D01*
X137577844Y-124703994D01*
X137577846Y-124703993D01*
X137623697Y-124546173D01*
X137623697Y-124546171D01*
X137623698Y-124546169D01*
X137626600Y-124509294D01*
X137626600Y-124077906D01*
X137623698Y-124041031D01*
X137620751Y-124030889D01*
X137612154Y-124001299D01*
X137577961Y-123883604D01*
X137577939Y-123883531D01*
X137577844Y-123883202D01*
X137494181Y-123741735D01*
X137494180Y-123741734D01*
X137494179Y-123741732D01*
X137494176Y-123741728D01*
X137377975Y-123625527D01*
X137377957Y-123625513D01*
X137256903Y-123553923D01*
X137256900Y-123553922D01*
X137248020Y-123548670D01*
X137236498Y-123541856D01*
X137236497Y-123541855D01*
X137236496Y-123541855D01*
X137236493Y-123541854D01*
X137210809Y-123534392D01*
X137078679Y-123496003D01*
X137078673Y-123496002D01*
X137078672Y-123496001D01*
X137078670Y-123496001D01*
X137041808Y-123493100D01*
X137041801Y-123493100D01*
X137041794Y-123493100D01*
X135260406Y-123493100D01*
X135260398Y-123493100D01*
X135260390Y-123493100D01*
X135223528Y-123496001D01*
X135223526Y-123496001D01*
X135223525Y-123496002D01*
X135223519Y-123496003D01*
X135065712Y-123541852D01*
X135065699Y-123541856D01*
X134924241Y-123625514D01*
X134924234Y-123625518D01*
X134924223Y-123625527D01*
X134808027Y-123741723D01*
X134808018Y-123741734D01*
X134808014Y-123741741D01*
X134724356Y-123883199D01*
X134724352Y-123883212D01*
X134678503Y-124041019D01*
X134678502Y-124041025D01*
X134678501Y-124041026D01*
X134678501Y-124041028D01*
X134675600Y-124077890D01*
X134675600Y-124509308D01*
X134678501Y-124546170D01*
X134678501Y-124546172D01*
X134678502Y-124546173D01*
X134678503Y-124546179D01*
X134724350Y-124703980D01*
X134724356Y-124703998D01*
X134724357Y-124704000D01*
X134758649Y-124761985D01*
X134758650Y-124761986D01*
X134758652Y-124761989D01*
X134786513Y-124809100D01*
X134787722Y-124813867D01*
X134788476Y-124813456D01*
X134819508Y-124870288D01*
X134834359Y-124938561D01*
X134834359Y-124938563D01*
X134834230Y-124940366D01*
X134814860Y-124998559D01*
X134795969Y-125027952D01*
X134795679Y-125030452D01*
X134788261Y-125045141D01*
X134724356Y-125153200D01*
X134724352Y-125153212D01*
X134678503Y-125311019D01*
X134678502Y-125311025D01*
X134678501Y-125311026D01*
X134678501Y-125311028D01*
X134675600Y-125347890D01*
X134675600Y-125472754D01*
X134673217Y-125496948D01*
X134668543Y-125520443D01*
X134661487Y-125543702D01*
X134647718Y-125576941D01*
X134647713Y-125576955D01*
X134647708Y-125576979D01*
X134623601Y-125698170D01*
X134623600Y-125698184D01*
X134623600Y-126267540D01*
X134623599Y-126267542D01*
X134623600Y-126267543D01*
X134620313Y-126290399D01*
X134618576Y-126302478D01*
X134615389Y-126313331D01*
X134577614Y-126372108D01*
X134514057Y-126401131D01*
X134444907Y-126391190D01*
X134437929Y-126388003D01*
X134401757Y-126362889D01*
X134369757Y-126330889D01*
X134369756Y-126330888D01*
X134267052Y-126267540D01*
X134220436Y-126238787D01*
X134220431Y-126238785D01*
X134062365Y-126186407D01*
X134059545Y-126185241D01*
X134053892Y-126183599D01*
X133951119Y-126173100D01*
X133951110Y-126173100D01*
X133151098Y-126173100D01*
X133151080Y-126173101D01*
X133151072Y-126173101D01*
X133151053Y-126173103D01*
X133048297Y-126183600D01*
X133048293Y-126183601D01*
X133048132Y-126183656D01*
X132881767Y-126238785D01*
X132881765Y-126238786D01*
X132881763Y-126238787D01*
X132826658Y-126272776D01*
X132732440Y-126330890D01*
X132608390Y-126454940D01*
X132593764Y-126478653D01*
X132519846Y-126598494D01*
X132516285Y-126604267D01*
X132516278Y-126604285D01*
X132492885Y-126674884D01*
X132492884Y-126674887D01*
X132471398Y-126739724D01*
X132462952Y-126752667D01*
X132461465Y-126767230D01*
X132460642Y-126773481D01*
X132460459Y-126777076D01*
X132450600Y-126873573D01*
X132450600Y-127619270D01*
X132450599Y-127619276D01*
X132450600Y-127619279D01*
X132445575Y-127654214D01*
X132441170Y-127669212D01*
X132403427Y-127727955D01*
X132403392Y-127727985D01*
X132403391Y-127727987D01*
X132403389Y-127727987D01*
X132402058Y-127729142D01*
X132347197Y-127756618D01*
X132339639Y-127758263D01*
X132313268Y-127761100D01*
X132227139Y-127761100D01*
X132202401Y-127765017D01*
X132202402Y-127765018D01*
X132030858Y-127792187D01*
X131841893Y-127853584D01*
X131841874Y-127853591D01*
X131841873Y-127853591D01*
X131664804Y-127943813D01*
X131619957Y-127976397D01*
X131504033Y-128060621D01*
X131504031Y-128060623D01*
X131504030Y-128060623D01*
X131363523Y-128201130D01*
X131363523Y-128201131D01*
X131363521Y-128201133D01*
X131338595Y-128235441D01*
X131246713Y-128361904D01*
X131156491Y-128538973D01*
X131156491Y-128538974D01*
X131156484Y-128538993D01*
X131095087Y-128727958D01*
X131075905Y-128849067D01*
X131075888Y-128849174D01*
X131075809Y-128849679D01*
X131064000Y-128924239D01*
X128645728Y-128924239D01*
X128666184Y-128893625D01*
X128722758Y-128757043D01*
X128741305Y-128663804D01*
X128751600Y-128612050D01*
X128751600Y-128464210D01*
X128747814Y-128445181D01*
X128742071Y-128416311D01*
X128742071Y-128416310D01*
X128728705Y-128349118D01*
X128726817Y-128313879D01*
X128728264Y-128297710D01*
X128734816Y-128280835D01*
X128734933Y-128279532D01*
X128735711Y-128278529D01*
X128753167Y-128233573D01*
X128762068Y-128221902D01*
X128786351Y-128197835D01*
X128808646Y-128181146D01*
X128894896Y-128065931D01*
X128945191Y-127931083D01*
X128951600Y-127871473D01*
X128951599Y-126975728D01*
X128945191Y-126916117D01*
X128936291Y-126892256D01*
X128914986Y-126835136D01*
X128907485Y-126800649D01*
X128906495Y-126786806D01*
X128910284Y-126769385D01*
X128910003Y-126765445D01*
X128911896Y-126761978D01*
X128921347Y-126718534D01*
X128970752Y-126669129D01*
X128976006Y-126666261D01*
X129035420Y-126651100D01*
X130805017Y-126651100D01*
X130809547Y-126649777D01*
X130924135Y-126626986D01*
X131004884Y-126593537D01*
X131038333Y-126579683D01*
X131141108Y-126511011D01*
X131228511Y-126423608D01*
X131239100Y-126413018D01*
X131267345Y-126391875D01*
X131290437Y-126379267D01*
X131349862Y-126364100D01*
X132091786Y-126364100D01*
X132091794Y-126364100D01*
X132128669Y-126361198D01*
X132128671Y-126361197D01*
X132128673Y-126361197D01*
X132128676Y-126361196D01*
X132128690Y-126361195D01*
X132129430Y-126360985D01*
X132138273Y-126358528D01*
X132139466Y-126358061D01*
X132170291Y-126349105D01*
X132286498Y-126315344D01*
X132427965Y-126231681D01*
X132544181Y-126115465D01*
X132627844Y-125973998D01*
X132661605Y-125857791D01*
X132673697Y-125816173D01*
X132673698Y-125816167D01*
X132676600Y-125779294D01*
X132676600Y-125347906D01*
X132673698Y-125311031D01*
X132672438Y-125306695D01*
X132667465Y-125289578D01*
X132628107Y-125154106D01*
X132627859Y-125153227D01*
X132565671Y-125048073D01*
X132564468Y-125043334D01*
X132563752Y-125043726D01*
X132539058Y-124998559D01*
X132532721Y-124986969D01*
X132528923Y-124969553D01*
X132520370Y-124953909D01*
X132517833Y-124918710D01*
X132517959Y-124916928D01*
X132537332Y-124858673D01*
X132541040Y-124852904D01*
X132541039Y-124852903D01*
X132556222Y-124829279D01*
X132556514Y-124826762D01*
X132563935Y-124812061D01*
X132627844Y-124703998D01*
X132627844Y-124703994D01*
X132627846Y-124703993D01*
X132673697Y-124546173D01*
X132673697Y-124546171D01*
X132673698Y-124546169D01*
X132676600Y-124509294D01*
X132676600Y-124077906D01*
X132673698Y-124041031D01*
X132670751Y-124030889D01*
X132662154Y-124001299D01*
X132627961Y-123883604D01*
X132627939Y-123883531D01*
X132627844Y-123883202D01*
X132562913Y-123773410D01*
X132549456Y-123740789D01*
X132545612Y-123725639D01*
X132548203Y-123655822D01*
X132552789Y-123642110D01*
X132570078Y-123608544D01*
X132572267Y-123605532D01*
X132653409Y-123446281D01*
X132671596Y-123390306D01*
X132677934Y-123370801D01*
X132708512Y-123276692D01*
X132708637Y-123276312D01*
X132708639Y-123276300D01*
X132708640Y-123276297D01*
X132736600Y-123099766D01*
X132736600Y-122921034D01*
X132708640Y-122744503D01*
X132708639Y-122744499D01*
X132708639Y-122744498D01*
X132653410Y-122574521D01*
X132653409Y-122574518D01*
X132578586Y-122427671D01*
X132568295Y-122399464D01*
X132567694Y-122396883D01*
X132566812Y-122392183D01*
X132566392Y-122391282D01*
X132564892Y-122384831D01*
X132566606Y-122354850D01*
X132565847Y-122324829D01*
X132568579Y-122320329D01*
X132568880Y-122315076D01*
X132586506Y-122290813D01*
X132602106Y-122265130D01*
X132603608Y-122263760D01*
X132608914Y-122259970D01*
X132609947Y-122258549D01*
X132612051Y-122257729D01*
X132627628Y-122246605D01*
X132630812Y-122244862D01*
X132666162Y-122232014D01*
X132744735Y-122216386D01*
X132825484Y-122182937D01*
X132858933Y-122169083D01*
X132961708Y-122100411D01*
X133049111Y-122013008D01*
X133798299Y-121263817D01*
X133859622Y-121230333D01*
X133929313Y-121235317D01*
X133985247Y-121277188D01*
X134006571Y-121322625D01*
X134092297Y-121680656D01*
X134092312Y-121680713D01*
X134105963Y-121727592D01*
X134113764Y-121750241D01*
X134131886Y-121795604D01*
X134209670Y-121916637D01*
X134209678Y-121916648D01*
X134255422Y-121969440D01*
X134255425Y-121969443D01*
X134255429Y-121969447D01*
X134364163Y-122063667D01*
X134364166Y-122063668D01*
X134364167Y-122063669D01*
X134444625Y-122100414D01*
X134495040Y-122123438D01*
X134562079Y-122143123D01*
X134562083Y-122143124D01*
X134667114Y-122158224D01*
X134694110Y-122170553D01*
X134722085Y-122180451D01*
X134726585Y-122185383D01*
X134730668Y-122187248D01*
X134747461Y-122204981D01*
X134752232Y-122211135D01*
X134755338Y-122216386D01*
X134808017Y-122305462D01*
X134808023Y-122305470D01*
X134885268Y-122382715D01*
X134890052Y-122388885D01*
X134890891Y-122391025D01*
X134896372Y-122397826D01*
X134950234Y-122481637D01*
X134950243Y-122481648D01*
X134995987Y-122534440D01*
X134995990Y-122534443D01*
X134995994Y-122534447D01*
X135104728Y-122628667D01*
X135235605Y-122688438D01*
X135302644Y-122708123D01*
X135302648Y-122708124D01*
X135445064Y-122728600D01*
X136979091Y-122728600D01*
X137013673Y-122733520D01*
X137015567Y-122734070D01*
X137019088Y-122735093D01*
X137047622Y-122747438D01*
X137088053Y-122771349D01*
X137103160Y-122781873D01*
X137110030Y-122787460D01*
X137152311Y-122815169D01*
X137244316Y-122862774D01*
X137384340Y-122895861D01*
X137453931Y-122902088D01*
X137597602Y-122894387D01*
X137664988Y-122880982D01*
X137689179Y-122878600D01*
X137713018Y-122878600D01*
X137737202Y-122880981D01*
X137738546Y-122881248D01*
X137760589Y-122885632D01*
X137783838Y-122892684D01*
X137805879Y-122901814D01*
X137827300Y-122913264D01*
X137847126Y-122926512D01*
X137865908Y-122941926D01*
X137896660Y-122972677D01*
X137905080Y-122981998D01*
X137943793Y-123029486D01*
X137943798Y-123029492D01*
X137943801Y-123029495D01*
X137976675Y-123062800D01*
X138050138Y-123124301D01*
X138050141Y-123124302D01*
X138050142Y-123124303D01*
X138179107Y-123188086D01*
X138179111Y-123188088D01*
X138245161Y-123209719D01*
X138245496Y-123209829D01*
X138245500Y-123209830D01*
X138245506Y-123209832D01*
X138245509Y-123209833D01*
X138245516Y-123209834D01*
X138245519Y-123209835D01*
X138387217Y-123234697D01*
X138387218Y-123234697D01*
X138387224Y-123234698D01*
X138718903Y-123244947D01*
X138831904Y-123235718D01*
X138886138Y-123225070D01*
X138897015Y-123221630D01*
X138966868Y-123220187D01*
X139026414Y-123256738D01*
X139056747Y-123319680D01*
X139058400Y-123339861D01*
X139058400Y-126416700D01*
X139820400Y-126416700D01*
X139820400Y-124831329D01*
X139825423Y-124796393D01*
X139829827Y-124781395D01*
X139867572Y-124722644D01*
X139867600Y-124722619D01*
X139867599Y-124722619D01*
X139868941Y-124721456D01*
X139923820Y-124693977D01*
X139931379Y-124692333D01*
X139957732Y-124689500D01*
X141989971Y-124689500D01*
X142024906Y-124694523D01*
X142039904Y-124698927D01*
X142098655Y-124736672D01*
X142098679Y-124736700D01*
X142098682Y-124736702D01*
X142098683Y-124736704D01*
X142099842Y-124738041D01*
X142127318Y-124792902D01*
X142128963Y-124800460D01*
X142131800Y-124826831D01*
X142131800Y-126416700D01*
X142893800Y-126416700D01*
X142893800Y-123225749D01*
X142913485Y-123158710D01*
X142966289Y-123112955D01*
X143035447Y-123103011D01*
X143057112Y-123108146D01*
X143105431Y-123124301D01*
X143148704Y-123138769D01*
X143148706Y-123138769D01*
X143148708Y-123138770D01*
X143259963Y-123158998D01*
X143268236Y-123160130D01*
X143303790Y-123165000D01*
X143312091Y-123165768D01*
X143325387Y-123166999D01*
X143369587Y-123169145D01*
X146095888Y-123182065D01*
X146162833Y-123202067D01*
X146208337Y-123255088D01*
X146219300Y-123306064D01*
X146219300Y-123548676D01*
X146219459Y-123550606D01*
X146219685Y-123552254D01*
X146225707Y-123608282D01*
X146242349Y-123652900D01*
X146276002Y-123743128D01*
X146276006Y-123743135D01*
X146287185Y-123758068D01*
X146362250Y-123858342D01*
X146362252Y-123858344D01*
X146362255Y-123858347D01*
X146477464Y-123944593D01*
X146477471Y-123944597D01*
X146612317Y-123994891D01*
X146612316Y-123994891D01*
X146619244Y-123995635D01*
X146671927Y-124001300D01*
X148774272Y-124001299D01*
X148833883Y-123994891D01*
X148968731Y-123944596D01*
X149083946Y-123858346D01*
X149170196Y-123743131D01*
X149220491Y-123608283D01*
X149226900Y-123548673D01*
X149226899Y-117458528D01*
X149226899Y-117458525D01*
X150537300Y-117458525D01*
X150537300Y-123548676D01*
X150537459Y-123550606D01*
X150537685Y-123552254D01*
X150543707Y-123608282D01*
X150560349Y-123652900D01*
X150594002Y-123743128D01*
X150594006Y-123743135D01*
X150605185Y-123758068D01*
X150680250Y-123858342D01*
X150680252Y-123858344D01*
X150680255Y-123858347D01*
X150795464Y-123944593D01*
X150795471Y-123944597D01*
X150930317Y-123994891D01*
X150930316Y-123994891D01*
X150937244Y-123995635D01*
X150989927Y-124001300D01*
X153092272Y-124001299D01*
X153151883Y-123994891D01*
X153286731Y-123944596D01*
X153401946Y-123858346D01*
X153488196Y-123743131D01*
X153538491Y-123608283D01*
X153544900Y-123548673D01*
X153544900Y-123503100D01*
X153564585Y-123436061D01*
X153617389Y-123390306D01*
X153668900Y-123379100D01*
X158790353Y-123379100D01*
X158857392Y-123398785D01*
X158878034Y-123415419D01*
X159346832Y-123884216D01*
X160310080Y-124847465D01*
X160343565Y-124908788D01*
X160343870Y-124910229D01*
X160351123Y-124945585D01*
X160445731Y-125406801D01*
X160449035Y-125419365D01*
X160459809Y-125460343D01*
X160459817Y-125460373D01*
X160468123Y-125486133D01*
X160468128Y-125486147D01*
X160487971Y-125537816D01*
X160487972Y-125537818D01*
X160487974Y-125537822D01*
X160564920Y-125659399D01*
X160579623Y-125676607D01*
X160610306Y-125712518D01*
X160718379Y-125807488D01*
X160718383Y-125807490D01*
X160718384Y-125807491D01*
X160848844Y-125868169D01*
X160910207Y-125886651D01*
X160913992Y-125887791D01*
X160915390Y-125888234D01*
X160915741Y-125888317D01*
X160915745Y-125888319D01*
X160915748Y-125888320D01*
X161058018Y-125909785D01*
X161885464Y-125915530D01*
X161952362Y-125935680D01*
X161997749Y-125988800D01*
X162008600Y-126039527D01*
X162008600Y-126312710D01*
X162008599Y-126312716D01*
X162008600Y-126312719D01*
X162003575Y-126347652D01*
X162002999Y-126349615D01*
X161999170Y-126362652D01*
X161961427Y-126421395D01*
X161961392Y-126421425D01*
X161961391Y-126421427D01*
X161961389Y-126421427D01*
X161960058Y-126422582D01*
X161905197Y-126450058D01*
X161897639Y-126451703D01*
X161871268Y-126454540D01*
X161614292Y-126454540D01*
X161493073Y-126478651D01*
X161480038Y-126481244D01*
X161464376Y-126490537D01*
X161437457Y-126501687D01*
X161437440Y-126501692D01*
X161378883Y-126525948D01*
X161378863Y-126525957D01*
X161300203Y-126578516D01*
X161300204Y-126578517D01*
X161298309Y-126579784D01*
X161298308Y-126579784D01*
X161298280Y-126579803D01*
X161276096Y-126594625D01*
X161271383Y-126598494D01*
X161271236Y-126598315D01*
X161256293Y-126610323D01*
X161250356Y-126614116D01*
X161249176Y-126614576D01*
X161239063Y-126621332D01*
X161237988Y-126622020D01*
X161236953Y-126622320D01*
X161218673Y-126632091D01*
X161139052Y-126665072D01*
X161139038Y-126665078D01*
X161139030Y-126665083D01*
X161016121Y-126747209D01*
X161016120Y-126747210D01*
X161016114Y-126747215D01*
X160911595Y-126851734D01*
X160911590Y-126851740D01*
X160911589Y-126851741D01*
X160829463Y-126974651D01*
X160829453Y-126974668D01*
X160829448Y-126974677D01*
X160772884Y-127111239D01*
X160772878Y-127111258D01*
X160744040Y-127256236D01*
X160744040Y-127359711D01*
X160738777Y-127377631D01*
X160772878Y-127549059D01*
X160772884Y-127549079D01*
X160829448Y-127685641D01*
X160829453Y-127685650D01*
X160829463Y-127685667D01*
X160911589Y-127808577D01*
X160911590Y-127808578D01*
X160911595Y-127808584D01*
X161016114Y-127913103D01*
X161016120Y-127913108D01*
X161016124Y-127913111D01*
X161139038Y-127995240D01*
X161139051Y-127995247D01*
X161275622Y-128051816D01*
X161275627Y-128051818D01*
X161275631Y-128051818D01*
X161275632Y-128051819D01*
X161275897Y-128051871D01*
X161275898Y-128051872D01*
X161275922Y-128051877D01*
X161420617Y-128080660D01*
X161568460Y-128080660D01*
X161568461Y-128080660D01*
X161618834Y-128070639D01*
X161669208Y-128060619D01*
X161669209Y-128060619D01*
X161680343Y-128058403D01*
X161713453Y-128051818D01*
X161850035Y-127995244D01*
X161972956Y-127913111D01*
X162077491Y-127808576D01*
X162096939Y-127779467D01*
X162120521Y-127753215D01*
X162136619Y-127739762D01*
X162190867Y-127713512D01*
X162197449Y-127712142D01*
X162222717Y-127709540D01*
X162566713Y-127709540D01*
X162567278Y-127709345D01*
X162571824Y-127708075D01*
X162685695Y-127685426D01*
X162746624Y-127660187D01*
X162782316Y-127645404D01*
X162789229Y-127642539D01*
X162789242Y-127642538D01*
X162789241Y-127642536D01*
X162795208Y-127640063D01*
X162799893Y-127638123D01*
X162902668Y-127569451D01*
X162990071Y-127482048D01*
X163123511Y-127348608D01*
X163123850Y-127348100D01*
X163192183Y-127245833D01*
X163211776Y-127198530D01*
X163239486Y-127131634D01*
X163263600Y-127010403D01*
X163263600Y-126886797D01*
X163263600Y-126049965D01*
X163283285Y-125982926D01*
X163336089Y-125937171D01*
X163388460Y-125925968D01*
X163720315Y-125928273D01*
X163804674Y-125920980D01*
X163814010Y-125920174D01*
X163814011Y-125920173D01*
X163814021Y-125920173D01*
X163859229Y-125911975D01*
X163949820Y-125886653D01*
X164075493Y-125816598D01*
X164131059Y-125774239D01*
X164231904Y-125671616D01*
X164269121Y-125602019D01*
X164289117Y-125564626D01*
X164338088Y-125514790D01*
X164398464Y-125499099D01*
X166073971Y-125499099D01*
X166073972Y-125499099D01*
X166133583Y-125492691D01*
X166268431Y-125442396D01*
X166353200Y-125378937D01*
X166354261Y-125378154D01*
X166391230Y-125351182D01*
X166391485Y-125351438D01*
X166414810Y-125333979D01*
X166415372Y-125333570D01*
X166420249Y-125331818D01*
X166466473Y-125311708D01*
X166469724Y-125311122D01*
X166470053Y-125311063D01*
X166480711Y-125310111D01*
X166481132Y-125309960D01*
X166481486Y-125310041D01*
X166492031Y-125309100D01*
X168408271Y-125309100D01*
X168443203Y-125314121D01*
X168456522Y-125318032D01*
X168471520Y-125327671D01*
X168488629Y-125332695D01*
X168500303Y-125346168D01*
X168515300Y-125355806D01*
X168522707Y-125372025D01*
X168534383Y-125385500D01*
X168544322Y-125419353D01*
X168544326Y-125419361D01*
X168544326Y-125419365D01*
X168545299Y-125426133D01*
X168540267Y-125482782D01*
X168521399Y-125539722D01*
X168512952Y-125552667D01*
X168511464Y-125567235D01*
X168510460Y-125577068D01*
X168510459Y-125577069D01*
X168510459Y-125577076D01*
X168500600Y-125673573D01*
X168500600Y-125673582D01*
X168500600Y-125673583D01*
X168500600Y-126473601D01*
X168500600Y-126473609D01*
X168500603Y-126473645D01*
X168508564Y-126551572D01*
X168511100Y-126576396D01*
X168511101Y-126576399D01*
X168549718Y-126692936D01*
X168566286Y-126742934D01*
X168658388Y-126892256D01*
X168782444Y-127016312D01*
X168899662Y-127088612D01*
X168931771Y-127108417D01*
X168938316Y-127111469D01*
X168937748Y-127112686D01*
X168961134Y-127123438D01*
X168969170Y-127129002D01*
X168980366Y-127142858D01*
X168986988Y-127147442D01*
X168990083Y-127154884D01*
X169013082Y-127183348D01*
X169020641Y-127252808D01*
X168989448Y-127315328D01*
X168937819Y-127348579D01*
X168928807Y-127351585D01*
X168928080Y-127351791D01*
X168927988Y-127351855D01*
X168927842Y-127351859D01*
X168918914Y-127354397D01*
X168908548Y-127358264D01*
X168904457Y-127359708D01*
X168891374Y-127364072D01*
X168883817Y-127367487D01*
X168783771Y-127404801D01*
X168783765Y-127404805D01*
X168668556Y-127491050D01*
X168668550Y-127491056D01*
X168582305Y-127606265D01*
X168582303Y-127606268D01*
X168532007Y-127741116D01*
X168526518Y-127792190D01*
X168525602Y-127800708D01*
X168525600Y-127800736D01*
X168525600Y-129596470D01*
X168525759Y-129598406D01*
X168525985Y-129600054D01*
X168532007Y-129656082D01*
X168543109Y-129685847D01*
X168582302Y-129790928D01*
X168582303Y-129790930D01*
X168582304Y-129790932D01*
X168582305Y-129790933D01*
X168668550Y-129906142D01*
X168668552Y-129906144D01*
X168668555Y-129906147D01*
X168783764Y-129992393D01*
X168783771Y-129992397D01*
X168918617Y-130042691D01*
X168918616Y-130042691D01*
X168925544Y-130043435D01*
X168978227Y-130049100D01*
X170773972Y-130049099D01*
X170833583Y-130042691D01*
X170968431Y-129992396D01*
X171083646Y-129906146D01*
X171169896Y-129790931D01*
X171220191Y-129656083D01*
X171226600Y-129596473D01*
X171226599Y-127800728D01*
X171220191Y-127741117D01*
X171208414Y-127709540D01*
X171208413Y-127709538D01*
X171169897Y-127606271D01*
X171169895Y-127606268D01*
X171169893Y-127606264D01*
X171083647Y-127491055D01*
X171083644Y-127491052D01*
X171083642Y-127491050D01*
X171025716Y-127447686D01*
X170968435Y-127404806D01*
X170968432Y-127404804D01*
X170968430Y-127404803D01*
X170968428Y-127404802D01*
X170833582Y-127354508D01*
X170833583Y-127354508D01*
X170773983Y-127348101D01*
X170773981Y-127348100D01*
X170773973Y-127348100D01*
X170773965Y-127348100D01*
X170772941Y-127348100D01*
X170533363Y-127348100D01*
X170498418Y-127343074D01*
X170491585Y-127341067D01*
X170432810Y-127303288D01*
X170403791Y-127239729D01*
X170413740Y-127170572D01*
X170457697Y-127118953D01*
X170503277Y-127088534D01*
X170503329Y-127088612D01*
X170507102Y-127085796D01*
X170619756Y-127016312D01*
X170743812Y-126892256D01*
X170835914Y-126742934D01*
X170891099Y-126576397D01*
X170901600Y-126473609D01*
X170901599Y-125673592D01*
X170894287Y-125602016D01*
X170891099Y-125570803D01*
X170870829Y-125509633D01*
X170862683Y-125485052D01*
X170861633Y-125480978D01*
X170861778Y-125476616D01*
X170857779Y-125454283D01*
X170857302Y-125440414D01*
X170863829Y-125414982D01*
X170863957Y-125411147D01*
X170865320Y-125409173D01*
X170874671Y-125372739D01*
X170925867Y-125325197D01*
X170928502Y-125323883D01*
X170932004Y-125322137D01*
X170987350Y-125309100D01*
X171324070Y-125309100D01*
X171356305Y-125313363D01*
X171357665Y-125313729D01*
X171371339Y-125317744D01*
X171377798Y-125319149D01*
X171380702Y-125319931D01*
X171408028Y-125336631D01*
X171436141Y-125351980D01*
X171436148Y-125351987D01*
X171476673Y-125392512D01*
X171497823Y-125420764D01*
X171510431Y-125443853D01*
X171525600Y-125503282D01*
X171525600Y-126423601D01*
X171525600Y-126423609D01*
X171525603Y-126423645D01*
X171536036Y-126525771D01*
X171536100Y-126526396D01*
X171536101Y-126526399D01*
X171591285Y-126692931D01*
X171591287Y-126692936D01*
X171614026Y-126729802D01*
X171667225Y-126816052D01*
X171683389Y-126842257D01*
X171807444Y-126966312D01*
X171863477Y-127000873D01*
X171882195Y-127016495D01*
X171890569Y-127023484D01*
X171901026Y-127035109D01*
X171931222Y-127098109D01*
X171931320Y-127098711D01*
X171925128Y-127161929D01*
X171921594Y-127171414D01*
X171911737Y-127191899D01*
X171911018Y-127193096D01*
X171911014Y-127193105D01*
X171854448Y-127329666D01*
X171854443Y-127329683D01*
X171854438Y-127329698D01*
X171825600Y-127474676D01*
X171825600Y-127578151D01*
X171820337Y-127596071D01*
X171854438Y-127767499D01*
X171854440Y-127767507D01*
X171854443Y-127767517D01*
X171859396Y-127779474D01*
X171911008Y-127904081D01*
X171911013Y-127904090D01*
X171911023Y-127904107D01*
X171993149Y-128027017D01*
X171993150Y-128027018D01*
X171993155Y-128027024D01*
X172097674Y-128131543D01*
X172097680Y-128131548D01*
X172097684Y-128131551D01*
X172220598Y-128213680D01*
X172220611Y-128213687D01*
X172220613Y-128213687D01*
X172220617Y-128213690D01*
X172273130Y-128235441D01*
X172328839Y-128258516D01*
X172328856Y-128258523D01*
X172351573Y-128267933D01*
X172355984Y-128270019D01*
X172502176Y-128299100D01*
X172502179Y-128299100D01*
X172502182Y-128299100D01*
X172650020Y-128299100D01*
X172747562Y-128279696D01*
X172795013Y-128270258D01*
X172931595Y-128213684D01*
X173054516Y-128131551D01*
X173159051Y-128027016D01*
X173241184Y-127904095D01*
X173297758Y-127767513D01*
X173309290Y-127709539D01*
X173326600Y-127622520D01*
X173326600Y-127474679D01*
X173326600Y-127474676D01*
X173297519Y-127328484D01*
X173295434Y-127324075D01*
X173292000Y-127315785D01*
X173291998Y-127315781D01*
X173280210Y-127287321D01*
X173273156Y-127264069D01*
X173271792Y-127257215D01*
X173268413Y-127244677D01*
X173267362Y-127237366D01*
X173266100Y-127219722D01*
X173266100Y-127178963D01*
X173271123Y-127144028D01*
X173276696Y-127125048D01*
X173308805Y-127071496D01*
X173315080Y-127065336D01*
X173336840Y-127048294D01*
X173469756Y-126966312D01*
X173593812Y-126842256D01*
X173685914Y-126692934D01*
X173741099Y-126526397D01*
X173751600Y-126423609D01*
X173751599Y-125194665D01*
X173751981Y-125184942D01*
X173752744Y-125175242D01*
X173753885Y-125165592D01*
X173760616Y-125123100D01*
X173774100Y-125037967D01*
X173774100Y-124859234D01*
X173774100Y-124859228D01*
X173753887Y-124731613D01*
X173752744Y-124721954D01*
X173751981Y-124712255D01*
X173751599Y-124702530D01*
X173751599Y-123503100D01*
X173771284Y-123436061D01*
X173824088Y-123390306D01*
X173875599Y-123379100D01*
X177677090Y-123379100D01*
X177677100Y-123379100D01*
X177784556Y-123367547D01*
X177836067Y-123356341D01*
X177885581Y-123339861D01*
X177938597Y-123322216D01*
X177938601Y-123322213D01*
X177938604Y-123322213D01*
X178059643Y-123244425D01*
X178112447Y-123198670D01*
X178206667Y-123089936D01*
X178266438Y-122959059D01*
X178286123Y-122892020D01*
X178286124Y-122892016D01*
X178306600Y-122749600D01*
X178306600Y-117997600D01*
X178295047Y-117890144D01*
X178283841Y-117838633D01*
X178282159Y-117833579D01*
X178249716Y-117736102D01*
X178249713Y-117736096D01*
X178171928Y-117615062D01*
X178171925Y-117615057D01*
X178171920Y-117615051D01*
X178126176Y-117562259D01*
X178126172Y-117562256D01*
X178126170Y-117562253D01*
X178017436Y-117468033D01*
X178017433Y-117468031D01*
X178017431Y-117468030D01*
X177886565Y-117408264D01*
X177886560Y-117408262D01*
X177886559Y-117408262D01*
X177819520Y-117388577D01*
X177819522Y-117388577D01*
X177819517Y-117388576D01*
X177761370Y-117380216D01*
X177677100Y-117368100D01*
X177677098Y-117368100D01*
X169803551Y-117368100D01*
X169725040Y-117374234D01*
X169686999Y-117380216D01*
X169610385Y-117398472D01*
X169610383Y-117398473D01*
X169481127Y-117461661D01*
X169481119Y-117461665D01*
X169451802Y-117481616D01*
X169385303Y-117503057D01*
X169382042Y-117503100D01*
X168325695Y-117503100D01*
X168258656Y-117483415D01*
X168244492Y-117472813D01*
X168238975Y-117468032D01*
X168238971Y-117468030D01*
X168108105Y-117408264D01*
X168108100Y-117408262D01*
X168108099Y-117408262D01*
X168041060Y-117388577D01*
X168041062Y-117388577D01*
X168041057Y-117388576D01*
X167982910Y-117380216D01*
X167898640Y-117368100D01*
X167898638Y-117368100D01*
X163753551Y-117368100D01*
X163675040Y-117374234D01*
X163636999Y-117380216D01*
X163560385Y-117398472D01*
X163560383Y-117398473D01*
X163431127Y-117461661D01*
X163431119Y-117461665D01*
X163401802Y-117481616D01*
X163335303Y-117503057D01*
X163332042Y-117503100D01*
X162275695Y-117503100D01*
X162208656Y-117483415D01*
X162194492Y-117472813D01*
X162188975Y-117468032D01*
X162188971Y-117468030D01*
X162058105Y-117408264D01*
X162058100Y-117408262D01*
X162058099Y-117408262D01*
X161991060Y-117388577D01*
X161991062Y-117388577D01*
X161991057Y-117388576D01*
X161932910Y-117380216D01*
X161848640Y-117368100D01*
X161848638Y-117368100D01*
X157665419Y-117368100D01*
X157647436Y-117368420D01*
X157639791Y-117368693D01*
X157638546Y-117368738D01*
X157638542Y-117368738D01*
X157638520Y-117368739D01*
X157620534Y-117369703D01*
X157620519Y-117369705D01*
X157479943Y-117400286D01*
X157479938Y-117400287D01*
X157479937Y-117400288D01*
X157464111Y-117406190D01*
X157414471Y-117424705D01*
X157414467Y-117424707D01*
X157288199Y-117493655D01*
X157288198Y-117493656D01*
X157265069Y-117516783D01*
X157203747Y-117550267D01*
X157177391Y-117553100D01*
X156321519Y-117553100D01*
X156254480Y-117533415D01*
X156240316Y-117522812D01*
X156177101Y-117468035D01*
X156177093Y-117468030D01*
X156046227Y-117408264D01*
X156046222Y-117408262D01*
X156046221Y-117408262D01*
X155979182Y-117388577D01*
X155979184Y-117388577D01*
X155979179Y-117388576D01*
X155921032Y-117380216D01*
X155836762Y-117368100D01*
X155836760Y-117368100D01*
X153613092Y-117368100D01*
X153594838Y-117362740D01*
X153575818Y-117362365D01*
X153562007Y-117353099D01*
X153546053Y-117348415D01*
X153533596Y-117334039D01*
X153517796Y-117323439D01*
X153504399Y-117300344D01*
X153500298Y-117295611D01*
X153499304Y-117293377D01*
X153498029Y-117290434D01*
X153488196Y-117264069D01*
X153488195Y-117264068D01*
X153488193Y-117264064D01*
X153484436Y-117259045D01*
X153484193Y-117258484D01*
X153482889Y-117256979D01*
X153401947Y-117148855D01*
X153401944Y-117148852D01*
X153401942Y-117148850D01*
X153344016Y-117105486D01*
X153286735Y-117062606D01*
X153286732Y-117062604D01*
X153286730Y-117062603D01*
X153286728Y-117062602D01*
X153151882Y-117012308D01*
X153151883Y-117012308D01*
X153092283Y-117005901D01*
X153092281Y-117005900D01*
X153092273Y-117005900D01*
X153092264Y-117005900D01*
X153091241Y-117005900D01*
X150989923Y-117005900D01*
X150987992Y-117006059D01*
X150986345Y-117006285D01*
X150930316Y-117012308D01*
X150795466Y-117062604D01*
X150795465Y-117062605D01*
X150680256Y-117148850D01*
X150680250Y-117148856D01*
X150594005Y-117264065D01*
X150594003Y-117264068D01*
X150543708Y-117398916D01*
X150537300Y-117458525D01*
X149226899Y-117458525D01*
X149220491Y-117398917D01*
X149220325Y-117398473D01*
X149196293Y-117334039D01*
X149170196Y-117264069D01*
X149170195Y-117264068D01*
X149170193Y-117264064D01*
X149170182Y-117264049D01*
X149167792Y-117260329D01*
X149167791Y-117260328D01*
X149164889Y-117256979D01*
X149083947Y-117148855D01*
X149083944Y-117148852D01*
X149083942Y-117148850D01*
X149026016Y-117105486D01*
X148968735Y-117062606D01*
X148968732Y-117062604D01*
X148968730Y-117062603D01*
X148968728Y-117062602D01*
X148833882Y-117012308D01*
X148833883Y-117012308D01*
X148774283Y-117005901D01*
X148774281Y-117005900D01*
X148774273Y-117005900D01*
X148774264Y-117005900D01*
X148773241Y-117005900D01*
X146671923Y-117005900D01*
X146669992Y-117006059D01*
X146668345Y-117006285D01*
X146612316Y-117012308D01*
X146477466Y-117062604D01*
X146477465Y-117062605D01*
X146362256Y-117148850D01*
X146362250Y-117148856D01*
X146276005Y-117264065D01*
X146276003Y-117264068D01*
X146225708Y-117398916D01*
X146219300Y-117458525D01*
X146219300Y-117766540D01*
X146199615Y-117833579D01*
X146146811Y-117879334D01*
X146097377Y-117890523D01*
X135497886Y-118068083D01*
X135495809Y-118068100D01*
X135478984Y-118068100D01*
X135446952Y-118069116D01*
X135442739Y-118069383D01*
X135431237Y-118070113D01*
X135399288Y-118073164D01*
X135045374Y-118118345D01*
X135045363Y-118118347D01*
X134970820Y-118133639D01*
X134970802Y-118133643D01*
X134935016Y-118143845D01*
X134935011Y-118143847D01*
X134863596Y-118170162D01*
X134863595Y-118170163D01*
X134742562Y-118247947D01*
X134742551Y-118247955D01*
X134689759Y-118293699D01*
X134595533Y-118402440D01*
X134595531Y-118402442D01*
X134536202Y-118532353D01*
X134490446Y-118585156D01*
X134423407Y-118604840D01*
X134410807Y-118604198D01*
X134351121Y-118598100D01*
X134351110Y-118598100D01*
X133576098Y-118598100D01*
X133576080Y-118598101D01*
X133576072Y-118598101D01*
X133576053Y-118598103D01*
X133473297Y-118608600D01*
X133473293Y-118608601D01*
X133473132Y-118608656D01*
X133306767Y-118663785D01*
X133306765Y-118663786D01*
X133306763Y-118663787D01*
X133207215Y-118725188D01*
X133157440Y-118755890D01*
X133033390Y-118879940D01*
X132941287Y-119029262D01*
X132941252Y-119029370D01*
X132897150Y-119162457D01*
X132897144Y-119162475D01*
X132886101Y-119195803D01*
X132886101Y-119195804D01*
X132886100Y-119195804D01*
X132885330Y-119203335D01*
X132885329Y-119203341D01*
X132875600Y-119298573D01*
X132875600Y-120335071D01*
X132873502Y-120357782D01*
X132867784Y-120388473D01*
X132846262Y-120438563D01*
X132845544Y-120439553D01*
X132836427Y-120450235D01*
X132836154Y-120450774D01*
X132835781Y-120450992D01*
X132832845Y-120454433D01*
X132350708Y-120936572D01*
X132322458Y-120957721D01*
X132311177Y-120963881D01*
X132311127Y-120963910D01*
X132310942Y-120964030D01*
X132310911Y-120964038D01*
X132309256Y-120965021D01*
X132309005Y-120964598D01*
X132285685Y-120971437D01*
X132261756Y-120982406D01*
X132248220Y-120982424D01*
X132243896Y-120983693D01*
X132226462Y-120982455D01*
X132221938Y-120981811D01*
X132204823Y-120978126D01*
X132155799Y-120963884D01*
X132155798Y-120963883D01*
X132155795Y-120963881D01*
X132155795Y-120963882D01*
X132150710Y-120962405D01*
X132130992Y-120956676D01*
X132129121Y-120956092D01*
X132128667Y-120956000D01*
X132091810Y-120953100D01*
X132091801Y-120953100D01*
X132091794Y-120953100D01*
X130310406Y-120953100D01*
X130310398Y-120953100D01*
X130310390Y-120953100D01*
X130273528Y-120956001D01*
X130273526Y-120956001D01*
X130273525Y-120956002D01*
X130273519Y-120956003D01*
X130115712Y-121001852D01*
X130115699Y-121001856D01*
X129974241Y-121085514D01*
X129974234Y-121085518D01*
X129974223Y-121085527D01*
X129858027Y-121201723D01*
X129858018Y-121201734D01*
X129858014Y-121201741D01*
X129774356Y-121343199D01*
X129774352Y-121343212D01*
X129728503Y-121501019D01*
X129728502Y-121501025D01*
X129728501Y-121501026D01*
X129728501Y-121501028D01*
X129725600Y-121537890D01*
X129725600Y-121733066D01*
X129723731Y-121754512D01*
X129722093Y-121763840D01*
X129720692Y-121766671D01*
X129720576Y-121768004D01*
X129719293Y-121772373D01*
X129718325Y-121772088D01*
X129714211Y-121788207D01*
X129714897Y-121788463D01*
X129713834Y-121791311D01*
X129713205Y-121792150D01*
X129712759Y-121793900D01*
X129711522Y-121796609D01*
X129710289Y-121796046D01*
X129701352Y-121807987D01*
X129698506Y-121817694D01*
X129693154Y-121822334D01*
X129691111Y-121826465D01*
X129684599Y-121830369D01*
X129675499Y-121842527D01*
X129676373Y-121843537D01*
X129675317Y-121844451D01*
X129673407Y-121845322D01*
X129672010Y-121847190D01*
X129669570Y-121849018D01*
X129668485Y-121847570D01*
X129659125Y-121851843D01*
X129645719Y-121863469D01*
X129611858Y-121873424D01*
X129610422Y-121873631D01*
X129592730Y-121874900D01*
X129410338Y-121874900D01*
X129383497Y-121871960D01*
X129352602Y-121865110D01*
X129349183Y-121864352D01*
X129337021Y-121860998D01*
X129187365Y-121811407D01*
X129184545Y-121810241D01*
X129178892Y-121808599D01*
X129076119Y-121798100D01*
X129076110Y-121798100D01*
X128026098Y-121798100D01*
X128026080Y-121798101D01*
X128026069Y-121798102D01*
X128026056Y-121798103D01*
X127923297Y-121808601D01*
X127921968Y-121808886D01*
X127900281Y-121811557D01*
X127881324Y-121812208D01*
X127815632Y-121795992D01*
X127803796Y-121789241D01*
X127777551Y-121769211D01*
X126835526Y-120827186D01*
X126814374Y-120798930D01*
X126801767Y-120775841D01*
X126786600Y-120716416D01*
X126786600Y-115784231D01*
X126786600Y-115784229D01*
X126770041Y-115679684D01*
X126770041Y-115679682D01*
X126758768Y-115608507D01*
X126758658Y-115607778D01*
X126758642Y-115607707D01*
X126703408Y-115437717D01*
X126696205Y-115423581D01*
X126693991Y-115419236D01*
X126693991Y-115419235D01*
X126693989Y-115419233D01*
X126622267Y-115278468D01*
X126581938Y-115222960D01*
X126557380Y-115189158D01*
X126536860Y-115160916D01*
X126536859Y-115160913D01*
X126536857Y-115160912D01*
X126517211Y-115133871D01*
X123870828Y-112487489D01*
X123726232Y-112382433D01*
X123566981Y-112301291D01*
X123566975Y-112301288D01*
X123525294Y-112287746D01*
X123428419Y-112256269D01*
X123405823Y-112248927D01*
X123401305Y-112247075D01*
X123392116Y-112244906D01*
X123387353Y-112244531D01*
X123367488Y-112241384D01*
X123220475Y-112218100D01*
X123220470Y-112218100D01*
X123220466Y-112218100D01*
X121140466Y-112218100D01*
X112990466Y-112218100D01*
X107896222Y-112218100D01*
X107896219Y-112218099D01*
X107896218Y-112218100D01*
X107861283Y-112213076D01*
X107839462Y-112206668D01*
X107789901Y-112178443D01*
X107787244Y-112175969D01*
X107781163Y-112169199D01*
X107780685Y-112168892D01*
X107780475Y-112168434D01*
X107772476Y-112159528D01*
X107758650Y-112141058D01*
X107758647Y-112141055D01*
X107758646Y-112141054D01*
X107758642Y-112141051D01*
X107758611Y-112141027D01*
X107643437Y-112054807D01*
X107643435Y-112054806D01*
X107643433Y-112054804D01*
X107599583Y-112038449D01*
X107508582Y-112004508D01*
X107508583Y-112004508D01*
X107448983Y-111998101D01*
X107448981Y-111998100D01*
X107448973Y-111998100D01*
X107448964Y-111998100D01*
X107447941Y-111998100D01*
X105653223Y-111998100D01*
X105651292Y-111998259D01*
X105649645Y-111998485D01*
X105593616Y-112004508D01*
X105458766Y-112054804D01*
X105458765Y-112054805D01*
X105343556Y-112141050D01*
X105343553Y-112141053D01*
X105343552Y-112141055D01*
X105257305Y-112256265D01*
X105257303Y-112256268D01*
X105207007Y-112391116D01*
X105200601Y-112450716D01*
X105200600Y-112450739D01*
X100501600Y-112450739D01*
X100501600Y-68595929D01*
X100506623Y-68560993D01*
X100511027Y-68545995D01*
X100548772Y-68487244D01*
X100548800Y-68487219D01*
X100548799Y-68487219D01*
X100550141Y-68486056D01*
X100605020Y-68458577D01*
X100612579Y-68456933D01*
X100638932Y-68454100D01*
X108166990Y-68454100D01*
X108166992Y-68454100D01*
X108294286Y-68419992D01*
X108408414Y-68354100D01*
X108501600Y-68260914D01*
X108567492Y-68146786D01*
X108601600Y-68019492D01*
X108601600Y-47387708D01*
X108567492Y-47260414D01*
X108501600Y-47146286D01*
X108408414Y-47053100D01*
X108351350Y-47020154D01*
X108294287Y-46987208D01*
X108230639Y-46970154D01*
X108166992Y-46953100D01*
X108166991Y-46953100D01*
X100643430Y-46953100D01*
X100643425Y-46953099D01*
X100643423Y-46953100D01*
X100608489Y-46948075D01*
X100593490Y-46943670D01*
X100534744Y-46905927D01*
X100534715Y-46905893D01*
X100534714Y-46905893D01*
X100534713Y-46905891D01*
X100533557Y-46904558D01*
X100506077Y-46849683D01*
X100504432Y-46842121D01*
X100501600Y-46815768D01*
X100501600Y-34875748D01*
X112050600Y-34875748D01*
X112050600Y-35131450D01*
X112070056Y-35279225D01*
X112083974Y-35384939D01*
X112101726Y-35451191D01*
X112150149Y-35631911D01*
X112150157Y-35631931D01*
X112247996Y-35868137D01*
X112247999Y-35868142D01*
X112375834Y-36089557D01*
X112375845Y-36089573D01*
X112375853Y-36089583D01*
X112531481Y-36292403D01*
X112531485Y-36292408D01*
X112531488Y-36292411D01*
X112531494Y-36292418D01*
X112531502Y-36292426D01*
X112712267Y-36473192D01*
X112712283Y-36473207D01*
X112712291Y-36473213D01*
X112915142Y-36628866D01*
X112915368Y-36628996D01*
X113133110Y-36754710D01*
X113136557Y-36756700D01*
X113136562Y-36756702D01*
X113136565Y-36756704D01*
X113372787Y-36854550D01*
X113619760Y-36920726D01*
X113873257Y-36954100D01*
X113873264Y-36954100D01*
X114128936Y-36954100D01*
X114128943Y-36954100D01*
X114382440Y-36920726D01*
X114629413Y-36854550D01*
X114865635Y-36756704D01*
X115087065Y-36628861D01*
X115289913Y-36473210D01*
X115470710Y-36292413D01*
X115626361Y-36089565D01*
X115754204Y-35868135D01*
X115852050Y-35631913D01*
X115918226Y-35384940D01*
X115951600Y-35131443D01*
X115951600Y-34875757D01*
X115951599Y-34875748D01*
X166800600Y-34875748D01*
X166800600Y-35131450D01*
X166820056Y-35279225D01*
X166833974Y-35384939D01*
X166851726Y-35451191D01*
X166900149Y-35631911D01*
X166900157Y-35631931D01*
X166997996Y-35868137D01*
X166997999Y-35868142D01*
X167125834Y-36089557D01*
X167125845Y-36089573D01*
X167125853Y-36089583D01*
X167281481Y-36292403D01*
X167281485Y-36292408D01*
X167281488Y-36292411D01*
X167281494Y-36292418D01*
X167281502Y-36292426D01*
X167462267Y-36473192D01*
X167462283Y-36473207D01*
X167462291Y-36473213D01*
X167665142Y-36628866D01*
X167665368Y-36628996D01*
X167883110Y-36754710D01*
X167886557Y-36756700D01*
X167886562Y-36756702D01*
X167886565Y-36756704D01*
X168122787Y-36854550D01*
X168369760Y-36920726D01*
X168623257Y-36954100D01*
X168623264Y-36954100D01*
X168878936Y-36954100D01*
X168878943Y-36954100D01*
X169132440Y-36920726D01*
X169379413Y-36854550D01*
X169615635Y-36756704D01*
X169837065Y-36628861D01*
X170039913Y-36473210D01*
X170220710Y-36292413D01*
X170376361Y-36089565D01*
X170504204Y-35868135D01*
X170602050Y-35631913D01*
X170668226Y-35384940D01*
X170701600Y-35131443D01*
X170701600Y-34875757D01*
X170668226Y-34622260D01*
X170602050Y-34375287D01*
X170504204Y-34139065D01*
X170504203Y-34139064D01*
X170504087Y-34138783D01*
X170503294Y-34137355D01*
X170502214Y-34135617D01*
X170376496Y-33917868D01*
X170376366Y-33917642D01*
X170376366Y-33917641D01*
X170220713Y-33714791D01*
X170220707Y-33714783D01*
X170220692Y-33714767D01*
X170039926Y-33534002D01*
X170039918Y-33533994D01*
X170039911Y-33533988D01*
X170039908Y-33533985D01*
X170039903Y-33533981D01*
X169840650Y-33381089D01*
X169840638Y-33381080D01*
X169837073Y-33378345D01*
X169837071Y-33378343D01*
X169837065Y-33378339D01*
X169837060Y-33378336D01*
X169837057Y-33378334D01*
X169835311Y-33377326D01*
X169835307Y-33377323D01*
X169744133Y-33324684D01*
X169615642Y-33250499D01*
X169615637Y-33250496D01*
X169383468Y-33154329D01*
X169383461Y-33154326D01*
X169379419Y-33152651D01*
X169192710Y-33102623D01*
X169132440Y-33086474D01*
X169132434Y-33086473D01*
X169132433Y-33086473D01*
X169111418Y-33083706D01*
X169076107Y-33079057D01*
X169076106Y-33079056D01*
X168878957Y-33053100D01*
X168878950Y-33053100D01*
X168878943Y-33053100D01*
X168623257Y-33053100D01*
X168623249Y-33053100D01*
X168623241Y-33053100D01*
X168397926Y-33082764D01*
X168397926Y-33082765D01*
X168393655Y-33083327D01*
X168369762Y-33086473D01*
X168122790Y-33152648D01*
X168122767Y-33152657D01*
X167886561Y-33250496D01*
X167665146Y-33378331D01*
X167665129Y-33378343D01*
X167665115Y-33378353D01*
X167462295Y-33533981D01*
X167462280Y-33533995D01*
X167462272Y-33534002D01*
X167281502Y-33714772D01*
X167281495Y-33714780D01*
X167281481Y-33714795D01*
X167125853Y-33917615D01*
X167125843Y-33917629D01*
X167125831Y-33917646D01*
X166997996Y-34139061D01*
X166900157Y-34375267D01*
X166900148Y-34375290D01*
X166846084Y-34577063D01*
X166833975Y-34622260D01*
X166833974Y-34622262D01*
X166800600Y-34875748D01*
X115951599Y-34875748D01*
X115918226Y-34622260D01*
X115852050Y-34375287D01*
X115754204Y-34139065D01*
X115754203Y-34139064D01*
X115754087Y-34138783D01*
X115753294Y-34137355D01*
X115752214Y-34135617D01*
X115626496Y-33917868D01*
X115626366Y-33917642D01*
X115626366Y-33917641D01*
X115470713Y-33714791D01*
X115470707Y-33714783D01*
X115470692Y-33714767D01*
X115289926Y-33534002D01*
X115289918Y-33533994D01*
X115289911Y-33533988D01*
X115289908Y-33533985D01*
X115289903Y-33533981D01*
X115090650Y-33381089D01*
X115090638Y-33381080D01*
X115087073Y-33378345D01*
X115087071Y-33378343D01*
X115087065Y-33378339D01*
X115087060Y-33378336D01*
X115087057Y-33378334D01*
X115085311Y-33377326D01*
X115085307Y-33377323D01*
X114994133Y-33324684D01*
X114865642Y-33250499D01*
X114865637Y-33250496D01*
X114633468Y-33154329D01*
X114633461Y-33154326D01*
X114629419Y-33152651D01*
X114442710Y-33102623D01*
X114382440Y-33086474D01*
X114382434Y-33086473D01*
X114382433Y-33086473D01*
X114361418Y-33083706D01*
X114326107Y-33079057D01*
X114326106Y-33079056D01*
X114128957Y-33053100D01*
X114128950Y-33053100D01*
X114128943Y-33053100D01*
X113873257Y-33053100D01*
X113873249Y-33053100D01*
X113873241Y-33053100D01*
X113647926Y-33082764D01*
X113647926Y-33082765D01*
X113643655Y-33083327D01*
X113619762Y-33086473D01*
X113372790Y-33152648D01*
X113372767Y-33152657D01*
X113136561Y-33250496D01*
X112915146Y-33378331D01*
X112915129Y-33378343D01*
X112915115Y-33378353D01*
X112712295Y-33533981D01*
X112712280Y-33533995D01*
X112712272Y-33534002D01*
X112531502Y-33714772D01*
X112531495Y-33714780D01*
X112531481Y-33714795D01*
X112375853Y-33917615D01*
X112375843Y-33917629D01*
X112375831Y-33917646D01*
X112247996Y-34139061D01*
X112150157Y-34375267D01*
X112150148Y-34375290D01*
X112096084Y-34577063D01*
X112083975Y-34622260D01*
X112083974Y-34622262D01*
X112050600Y-34875748D01*
X100501600Y-34875748D01*
X100501600Y-30645929D01*
X100506623Y-30610993D01*
X100511027Y-30595995D01*
X100548772Y-30537244D01*
X100548800Y-30537219D01*
X100548799Y-30537219D01*
X100550141Y-30536056D01*
X100605020Y-30508577D01*
X100612579Y-30506933D01*
X100638932Y-30504100D01*
X175108770Y-30504100D01*
X175143706Y-30509123D01*
G37*
%TD.AperFunction*%
%TD*%
%TA.AperFunction,Conductor*%
%TO.N,Net-(D1-A)*%
G36*
X148434044Y-118376639D02*
G01*
X148480677Y-118428670D01*
X148492745Y-118480051D01*
X148569490Y-123209438D01*
X148550895Y-123276788D01*
X148498841Y-123323394D01*
X148454389Y-123335131D01*
X147649674Y-123392928D01*
X147581397Y-123378097D01*
X147531977Y-123328707D01*
X147517104Y-123260438D01*
X147517545Y-123255586D01*
X147581100Y-122683600D01*
X147546878Y-122683437D01*
X143371983Y-122663651D01*
X143350389Y-122661652D01*
X143239134Y-122641424D01*
X143176698Y-122610065D01*
X143141126Y-122549927D01*
X143137401Y-122524027D01*
X143134968Y-122458519D01*
X143071600Y-120752500D01*
X143062776Y-120752422D01*
X142061100Y-120743599D01*
X142061099Y-120743600D01*
X141756047Y-122145464D01*
X141722559Y-122206785D01*
X141661233Y-122240266D01*
X141592949Y-122235792D01*
X141565705Y-122226002D01*
X141079032Y-122051116D01*
X140704330Y-121916467D01*
X140647897Y-121875271D01*
X140643849Y-121869681D01*
X140626046Y-121843600D01*
X139881273Y-120752500D01*
X138880601Y-120752500D01*
X138880600Y-120752500D01*
X138880599Y-120752500D01*
X138880599Y-120752501D01*
X138862340Y-122616961D01*
X138842000Y-122683805D01*
X138788750Y-122729040D01*
X138734516Y-122739688D01*
X138402837Y-122729439D01*
X138336438Y-122707693D01*
X138303564Y-122674388D01*
X138295054Y-122661652D01*
X138284051Y-122645184D01*
X138284049Y-122645181D01*
X138179519Y-122540651D01*
X138179515Y-122540648D01*
X138056601Y-122458519D01*
X138056588Y-122458512D01*
X137920017Y-122401943D01*
X137920007Y-122401940D01*
X137775020Y-122373100D01*
X137775018Y-122373100D01*
X137627182Y-122373100D01*
X137627179Y-122373100D01*
X137498983Y-122398600D01*
X137429392Y-122392373D01*
X137387111Y-122364664D01*
X137377970Y-122355523D01*
X137377962Y-122355517D01*
X137236496Y-122271855D01*
X137236493Y-122271854D01*
X137078673Y-122226002D01*
X137078667Y-122226001D01*
X137041801Y-122223100D01*
X137041794Y-122223100D01*
X135445064Y-122223100D01*
X135378025Y-122203415D01*
X135332270Y-122150611D01*
X135321774Y-122112354D01*
X135320520Y-122100690D01*
X135315191Y-122051117D01*
X135264896Y-121916269D01*
X135264895Y-121916268D01*
X135264893Y-121916264D01*
X135178647Y-121801055D01*
X135178644Y-121801052D01*
X135063435Y-121714806D01*
X135063428Y-121714802D01*
X134928582Y-121664508D01*
X134928583Y-121664508D01*
X134868983Y-121658101D01*
X134868981Y-121658100D01*
X134868973Y-121658100D01*
X134868965Y-121658100D01*
X134704499Y-121658100D01*
X134637460Y-121638415D01*
X134591705Y-121585611D01*
X134583908Y-121562974D01*
X134496320Y-121197167D01*
X134496684Y-121189959D01*
X134493827Y-121183333D01*
X134498428Y-121155528D01*
X134499853Y-121127387D01*
X134504334Y-121119837D01*
X134505234Y-121114401D01*
X134524938Y-121085124D01*
X134600649Y-121001405D01*
X134627512Y-120979048D01*
X134769756Y-120891312D01*
X134893812Y-120767256D01*
X134985914Y-120617934D01*
X135041099Y-120451397D01*
X135051600Y-120348609D01*
X135051599Y-119298592D01*
X135041099Y-119195803D01*
X135007394Y-119094087D01*
X135001100Y-119055083D01*
X135001100Y-118742776D01*
X135020785Y-118675737D01*
X135073589Y-118629982D01*
X135109393Y-118619775D01*
X135463282Y-118574597D01*
X135478984Y-118573600D01*
X135501077Y-118573600D01*
X135501100Y-118573600D01*
X148366684Y-118358080D01*
X148434044Y-118376639D01*
G37*
%TD.AperFunction*%
%TD*%
%TA.AperFunction,Conductor*%
%TO.N,/BURN_POS*%
G36*
X155903801Y-117893285D02*
G01*
X155949556Y-117946089D01*
X155959500Y-118015247D01*
X155930475Y-118078803D01*
X155924443Y-118085281D01*
X155912314Y-118097409D01*
X155912312Y-118097411D01*
X155861012Y-118202348D01*
X155861011Y-118202351D01*
X155851100Y-118270380D01*
X155851100Y-119428600D01*
X157651099Y-119428600D01*
X157651099Y-118270382D01*
X157641187Y-118202350D01*
X157589884Y-118097408D01*
X157577757Y-118085281D01*
X157544272Y-118023958D01*
X157549256Y-117954266D01*
X157591128Y-117898333D01*
X157656592Y-117873916D01*
X157665438Y-117873600D01*
X161848640Y-117873600D01*
X161915679Y-117893285D01*
X161961434Y-117946089D01*
X161971378Y-118015247D01*
X161960041Y-118052060D01*
X161911011Y-118152352D01*
X161901100Y-118220380D01*
X161901100Y-119378600D01*
X163701099Y-119378600D01*
X163701099Y-118220382D01*
X163691186Y-118152348D01*
X163642159Y-118052060D01*
X163630399Y-117983187D01*
X163657743Y-117918890D01*
X163715507Y-117879583D01*
X163753559Y-117873600D01*
X167898640Y-117873600D01*
X167965679Y-117893285D01*
X168011434Y-117946089D01*
X168021378Y-118015247D01*
X168010041Y-118052060D01*
X167961011Y-118152352D01*
X167951100Y-118220380D01*
X167951100Y-119378600D01*
X169751099Y-119378600D01*
X169751099Y-118220382D01*
X169741186Y-118152348D01*
X169692159Y-118052060D01*
X169680399Y-117983187D01*
X169707743Y-117918890D01*
X169765507Y-117879583D01*
X169803559Y-117873600D01*
X177677100Y-117873600D01*
X177744139Y-117893285D01*
X177789894Y-117946089D01*
X177801100Y-117997600D01*
X177801100Y-122749600D01*
X177781415Y-122816639D01*
X177728611Y-122862394D01*
X177677100Y-122873600D01*
X173412043Y-122873600D01*
X173346947Y-122855139D01*
X173320440Y-122838789D01*
X173320435Y-122838787D01*
X173320434Y-122838786D01*
X173153897Y-122783601D01*
X173153895Y-122783600D01*
X173051116Y-122773100D01*
X172915235Y-122773100D01*
X172848196Y-122753415D01*
X172802441Y-122700611D01*
X172792497Y-122631453D01*
X172821522Y-122567897D01*
X172846347Y-122545996D01*
X172850594Y-122543158D01*
X172970656Y-122423096D01*
X172970659Y-122423092D01*
X173064991Y-122281916D01*
X173064998Y-122281903D01*
X173129972Y-122125040D01*
X173129975Y-122125028D01*
X173155124Y-121998600D01*
X172662047Y-121998600D01*
X172682100Y-121923760D01*
X172682100Y-121823440D01*
X172662047Y-121748600D01*
X173155124Y-121748600D01*
X173155124Y-121748599D01*
X173129975Y-121622171D01*
X173129972Y-121622159D01*
X173064998Y-121465296D01*
X173064991Y-121465283D01*
X172970659Y-121324107D01*
X172970656Y-121324103D01*
X172850596Y-121204043D01*
X172850592Y-121204040D01*
X172709416Y-121109708D01*
X172709403Y-121109701D01*
X172552540Y-121044727D01*
X172552528Y-121044724D01*
X172426100Y-121019575D01*
X172426100Y-121512652D01*
X172351260Y-121492600D01*
X172250940Y-121492600D01*
X172176100Y-121512652D01*
X172176100Y-121019576D01*
X172176099Y-121019575D01*
X172049671Y-121044724D01*
X172049659Y-121044727D01*
X171892796Y-121109701D01*
X171892783Y-121109708D01*
X171751607Y-121204040D01*
X171751603Y-121204043D01*
X171631543Y-121324103D01*
X171631540Y-121324107D01*
X171537208Y-121465283D01*
X171537201Y-121465296D01*
X171472227Y-121622159D01*
X171472224Y-121622171D01*
X171447075Y-121748599D01*
X171447076Y-121748600D01*
X171940153Y-121748600D01*
X171920100Y-121823440D01*
X171920100Y-121923760D01*
X171940153Y-121998600D01*
X171447076Y-121998600D01*
X171472224Y-122125028D01*
X171472227Y-122125040D01*
X171537201Y-122281903D01*
X171537208Y-122281916D01*
X171631540Y-122423092D01*
X171631543Y-122423096D01*
X171751603Y-122543156D01*
X171751607Y-122543159D01*
X171892791Y-122637496D01*
X171897926Y-122640241D01*
X171947771Y-122689202D01*
X171963233Y-122757340D01*
X171939403Y-122823020D01*
X171883846Y-122865390D01*
X171839475Y-122873600D01*
X166334503Y-122873600D01*
X166275075Y-122858432D01*
X166268428Y-122854802D01*
X166133582Y-122804508D01*
X166133583Y-122804508D01*
X166073983Y-122798101D01*
X166073981Y-122798100D01*
X166073973Y-122798100D01*
X166073964Y-122798100D01*
X164278229Y-122798100D01*
X164278223Y-122798101D01*
X164218616Y-122804508D01*
X164084693Y-122854458D01*
X164084689Y-122854460D01*
X164083769Y-122854804D01*
X164058661Y-122873600D01*
X164001100Y-122873600D01*
X163998262Y-122918814D01*
X163968554Y-122941054D01*
X163964925Y-122945901D01*
X163964923Y-122945903D01*
X163882306Y-123056264D01*
X163882302Y-123056271D01*
X163832008Y-123191117D01*
X163825601Y-123250716D01*
X163825600Y-123250735D01*
X163825600Y-124000088D01*
X163805915Y-124067127D01*
X163753111Y-124112882D01*
X163683953Y-124122826D01*
X163620397Y-124093801D01*
X163582623Y-124035023D01*
X163579983Y-124024279D01*
X163549593Y-123871502D01*
X163549591Y-123871494D01*
X163477980Y-123698608D01*
X163391818Y-123569657D01*
X163066829Y-123894646D01*
X163036199Y-123841593D01*
X162943107Y-123748501D01*
X162890052Y-123717870D01*
X163215040Y-123392881D01*
X163215040Y-123392880D01*
X163086099Y-123306724D01*
X163086091Y-123306719D01*
X162913205Y-123235108D01*
X162913197Y-123235106D01*
X162729670Y-123198600D01*
X162542530Y-123198600D01*
X162359002Y-123235106D01*
X162358994Y-123235108D01*
X162186103Y-123306721D01*
X162057158Y-123392879D01*
X162057158Y-123392881D01*
X162382147Y-123717870D01*
X162329093Y-123748501D01*
X162236001Y-123841593D01*
X162205370Y-123894647D01*
X161880381Y-123569658D01*
X161880379Y-123569658D01*
X161794221Y-123698603D01*
X161722608Y-123871494D01*
X161722606Y-123871502D01*
X161686100Y-124055028D01*
X161686100Y-124242171D01*
X161722606Y-124425697D01*
X161722608Y-124425705D01*
X161794219Y-124598591D01*
X161794224Y-124598599D01*
X161880381Y-124727540D01*
X162205369Y-124402552D01*
X162236001Y-124455607D01*
X162329093Y-124548699D01*
X162382146Y-124579329D01*
X162057157Y-124904318D01*
X162186108Y-124990480D01*
X162358994Y-125062091D01*
X162359002Y-125062093D01*
X162542528Y-125098599D01*
X162542531Y-125098600D01*
X162729669Y-125098600D01*
X162729671Y-125098599D01*
X162913197Y-125062093D01*
X162913205Y-125062091D01*
X163086091Y-124990480D01*
X163215041Y-124904318D01*
X163215041Y-124904317D01*
X162890053Y-124579329D01*
X162943107Y-124548699D01*
X163036199Y-124455607D01*
X163066829Y-124402553D01*
X163391817Y-124727541D01*
X163391818Y-124727541D01*
X163477980Y-124598591D01*
X163549591Y-124425705D01*
X163549593Y-124425697D01*
X163579983Y-124272919D01*
X163612367Y-124211008D01*
X163673083Y-124176434D01*
X163742853Y-124180173D01*
X163799525Y-124221039D01*
X163825106Y-124286057D01*
X163825600Y-124297110D01*
X163825600Y-125046470D01*
X163825601Y-125046476D01*
X163832008Y-125106083D01*
X163847615Y-125147927D01*
X163849108Y-125158003D01*
X163852364Y-125163843D01*
X163855190Y-125199024D01*
X163848443Y-125306553D01*
X163824599Y-125372228D01*
X163769033Y-125414587D01*
X163723825Y-125422785D01*
X161061528Y-125404297D01*
X160994627Y-125384147D01*
X160949240Y-125331027D01*
X160940920Y-125305224D01*
X160801100Y-124623600D01*
X160801099Y-124623599D01*
X160801099Y-124623598D01*
X159704274Y-123526773D01*
X159051100Y-122873600D01*
X153268400Y-122873600D01*
X153201361Y-122853915D01*
X153155606Y-122801111D01*
X153144400Y-122749600D01*
X153144400Y-120836817D01*
X155851101Y-120836817D01*
X155861012Y-120904849D01*
X155912315Y-121009791D01*
X155994911Y-121092387D01*
X156099848Y-121143687D01*
X156099851Y-121143688D01*
X156167880Y-121153599D01*
X156626099Y-121153599D01*
X156876100Y-121153599D01*
X157334318Y-121153599D01*
X157402349Y-121143687D01*
X157507291Y-121092384D01*
X157589887Y-121009788D01*
X157641187Y-120904851D01*
X157641188Y-120904848D01*
X157651100Y-120836819D01*
X157651100Y-120786817D01*
X161901101Y-120786817D01*
X161911012Y-120854849D01*
X161962315Y-120959791D01*
X162044911Y-121042387D01*
X162149848Y-121093687D01*
X162149851Y-121093688D01*
X162217880Y-121103599D01*
X162676099Y-121103599D01*
X162926100Y-121103599D01*
X163384318Y-121103599D01*
X163452349Y-121093687D01*
X163557291Y-121042384D01*
X163639887Y-120959788D01*
X163691187Y-120854851D01*
X163691188Y-120854848D01*
X163701100Y-120786819D01*
X163701100Y-120786817D01*
X167951101Y-120786817D01*
X167961012Y-120854849D01*
X168012315Y-120959791D01*
X168094911Y-121042387D01*
X168199848Y-121093687D01*
X168199851Y-121093688D01*
X168267880Y-121103599D01*
X168726099Y-121103599D01*
X168976100Y-121103599D01*
X169434318Y-121103599D01*
X169502349Y-121093687D01*
X169607291Y-121042384D01*
X169689887Y-120959788D01*
X169741187Y-120854851D01*
X169741188Y-120854848D01*
X169751100Y-120786819D01*
X169751100Y-119628600D01*
X168976100Y-119628600D01*
X168976100Y-121103599D01*
X168726099Y-121103599D01*
X168726100Y-121103598D01*
X168726100Y-119628600D01*
X167951101Y-119628600D01*
X167951101Y-120786817D01*
X163701100Y-120786817D01*
X163701100Y-119628600D01*
X162926100Y-119628600D01*
X162926100Y-121103599D01*
X162676099Y-121103599D01*
X162676100Y-121103598D01*
X162676100Y-119628600D01*
X161901101Y-119628600D01*
X161901101Y-120786817D01*
X157651100Y-120786817D01*
X157651100Y-119678600D01*
X156876100Y-119678600D01*
X156876100Y-121153599D01*
X156626099Y-121153599D01*
X156626100Y-121153598D01*
X156626100Y-119678600D01*
X155851101Y-119678600D01*
X155851101Y-120836817D01*
X153144400Y-120836817D01*
X153144400Y-120628600D01*
X152551100Y-120628600D01*
X152551100Y-120378600D01*
X153144400Y-120378600D01*
X153144400Y-119627238D01*
X153144399Y-117997600D01*
X153164084Y-117930561D01*
X153216887Y-117884806D01*
X153268399Y-117873600D01*
X155836762Y-117873600D01*
X155903801Y-117893285D01*
G37*
%TD.AperFunction*%
%TD*%
M02*
