%TF.GenerationSoftware,KiCad,Pcbnew,10.0.1*%
%TF.CreationDate,2026-08-22T13:05:36-07:00*%
%TF.ProjectId,BurnWire,4275726e-5769-4726-952e-6b696361645f,rev?*%
%TF.SameCoordinates,Original*%
%TF.FileFunction,Copper,L2,Bot*%
%TF.FilePolarity,Positive*%
%FSLAX46Y46*%
G04 Gerber Fmt 4.6, Leading zero omitted, Abs format (unit mm)*
G04 Created by KiCad (PCBNEW 10.0.1) date 2026-08-22 13:05:36*
%MOMM*%
%LPD*%
G01*
G04 APERTURE LIST*
%TA.AperFunction,ComponentPad*%
%ADD10C,1.524000*%
%TD*%
%TA.AperFunction,ComponentPad*%
%ADD11R,1.700000X1.700000*%
%TD*%
%TA.AperFunction,ComponentPad*%
%ADD12C,1.700000*%
%TD*%
%TA.AperFunction,ViaPad*%
%ADD13C,0.500000*%
%TD*%
%TA.AperFunction,ViaPad*%
%ADD14C,0.600000*%
%TD*%
%TA.AperFunction,Conductor*%
%ADD15C,0.254000*%
%TD*%
G04 APERTURE END LIST*
D10*
%TO.P,TP2,1*%
%TO.N,+VBATT*%
X121076500Y-115123600D03*
%TD*%
%TO.P,TP5,1*%
%TO.N,GND*%
X154926500Y-128023600D03*
%TD*%
%TO.P,TP3,1*%
%TO.N,/BURN_NEG*%
X132326500Y-129023600D03*
%TD*%
D11*
%TO.P,J4,1,Pin_1_1*%
%TO.N,TO_COMPUTE*%
X169876100Y-128698600D03*
%TD*%
D10*
%TO.P,TP4,1*%
%TO.N,GND*%
X150401100Y-113223600D03*
%TD*%
D11*
%TO.P,J1,1,Pin_1_1*%
%TO.N,/ENABLE*%
X119251100Y-128023600D03*
D12*
%TO.P,J1,2,Pin_2_2*%
%TO.N,+VBATT*%
X116711100Y-128023600D03*
%TO.P,J1,3,Pin_3_3*%
%TO.N,PGOOD*%
X114171100Y-128023600D03*
%TO.P,J1,4,Pin_4_4*%
%TO.N,GND*%
X111631100Y-128023600D03*
%TO.P,J1,5,Pin_5_5*%
X109091100Y-128023600D03*
%TO.P,J1,6,Pin_6_6*%
X106551100Y-128023600D03*
%TD*%
D11*
%TO.P,J3,1,Pin_1_1*%
%TO.N,/BURN_NEG*%
X165176100Y-124148600D03*
D12*
%TO.P,J3,2,Pin_2_2*%
%TO.N,/BURN_POS*%
X162636100Y-124148600D03*
%TD*%
D11*
%TO.P,J2,1,1_1*%
%TO.N,+VBATT*%
X106551100Y-113348600D03*
D12*
%TO.P,J2,2,2_2*%
%TO.N,GND*%
X106551100Y-115888600D03*
%TD*%
D10*
%TO.P,TP1,1*%
%TO.N,/BURN_POS*%
X172301100Y-121873600D03*
%TD*%
D13*
%TO.N,+VBATT*%
X126476100Y-122073600D03*
X128001100Y-128538130D03*
%TO.N,/BURN_POS*%
X139601100Y-128923600D03*
X161494540Y-127330160D03*
%TO.N,GND*%
X109101100Y-129448600D03*
X144701100Y-125373600D03*
X139181100Y-127283600D03*
X117301100Y-115873600D03*
X130461100Y-119893600D03*
X125801100Y-129873600D03*
X108301100Y-114873600D03*
X178301100Y-114873600D03*
X133801100Y-125423600D03*
X120801100Y-129873600D03*
X137701100Y-123123600D03*
X153301100Y-124873600D03*
X175801100Y-129873600D03*
X148301100Y-114873600D03*
X160801100Y-129873600D03*
X130801100Y-129873600D03*
X118301100Y-114873600D03*
X145791100Y-128803600D03*
X174201100Y-115823600D03*
X173301100Y-114873600D03*
X175901100Y-112523600D03*
X148301100Y-124873600D03*
X159001100Y-126823600D03*
X129051100Y-115373600D03*
X168651100Y-113798600D03*
X160901100Y-129123600D03*
X138301100Y-124873600D03*
X115801100Y-129873600D03*
X155801100Y-129292600D03*
X110211100Y-125763600D03*
X177901100Y-129423600D03*
X177801100Y-124623600D03*
X106551100Y-129423600D03*
X107581100Y-125133600D03*
X160501100Y-113903600D03*
X159176100Y-112223600D03*
X133901100Y-121923600D03*
X142871100Y-127993600D03*
X153301100Y-114873600D03*
X157101100Y-129123600D03*
X115801100Y-119873600D03*
X177601100Y-115723600D03*
X143341100Y-126873600D03*
X128301100Y-114873600D03*
X167676100Y-115323600D03*
X179401100Y-128023600D03*
X150801100Y-129292600D03*
X134201100Y-128723600D03*
X163301100Y-114873600D03*
X143301100Y-114873600D03*
X133301100Y-114873600D03*
X170901100Y-116148600D03*
X137701100Y-124323600D03*
X176401100Y-127123600D03*
X111676100Y-129423600D03*
X143501100Y-128523600D03*
X158301100Y-124873600D03*
%TO.N,/BURN_NEG*%
X172576100Y-127548600D03*
D14*
%TO.N,PGOOD*%
X115251100Y-125043600D03*
D13*
X123801100Y-125123600D03*
%TD*%
%TO.N,+VBATT*%
D15*
X126481460Y-122078960D02*
X126481460Y-127018490D01*
X126476100Y-122073600D02*
X126481460Y-122078960D01*
X126481460Y-127018490D02*
X128001100Y-128538130D01*
%TO.N,/BURN_POS*%
X158901100Y-129923600D02*
X161494540Y-127330160D01*
X139601100Y-128923600D02*
X140601100Y-129923600D01*
X140601100Y-129923600D02*
X158901100Y-129923600D01*
%TO.N,/BURN_NEG*%
X134526100Y-131648600D02*
X132326500Y-129449000D01*
X172576100Y-127548600D02*
X172576100Y-129873600D01*
X172576100Y-129873600D02*
X170801100Y-131648600D01*
X132326500Y-129449000D02*
X132326500Y-129023600D01*
X170801100Y-131648600D02*
X134526100Y-131648600D01*
%TO.N,PGOOD*%
X115331100Y-125123600D02*
X115251100Y-125043600D01*
X123801100Y-125123600D02*
X115331100Y-125123600D01*
%TD*%
%TA.AperFunction,Conductor*%
%TO.N,GND*%
G36*
X175193639Y-30523785D02*
G01*
X175239394Y-30576589D01*
X175250600Y-30628100D01*
X175250600Y-40319491D01*
X175284708Y-40446787D01*
X175317654Y-40503850D01*
X175350600Y-40560914D01*
X175443786Y-40654100D01*
X175557914Y-40719992D01*
X175685208Y-40754100D01*
X175816992Y-40754100D01*
X182126600Y-40754100D01*
X182193639Y-40773785D01*
X182239394Y-40826589D01*
X182250600Y-40878100D01*
X182250600Y-134079100D01*
X182230915Y-134146139D01*
X182178111Y-134191894D01*
X182126600Y-134203100D01*
X175685208Y-134203100D01*
X175557912Y-134237208D01*
X175443786Y-134303100D01*
X175443783Y-134303102D01*
X175350602Y-134396283D01*
X175350600Y-134396286D01*
X175284708Y-134510412D01*
X175250600Y-134637708D01*
X175250600Y-144302899D01*
X175230915Y-144369938D01*
X175178111Y-144415693D01*
X175126685Y-144426899D01*
X100625685Y-144477962D01*
X100558632Y-144458323D01*
X100512841Y-144405551D01*
X100501600Y-144353962D01*
X100501600Y-139825749D01*
X112050600Y-139825749D01*
X112050600Y-140081450D01*
X112070056Y-140229225D01*
X112083974Y-140334940D01*
X112101726Y-140401191D01*
X112150150Y-140581912D01*
X112150153Y-140581922D01*
X112247994Y-140818131D01*
X112247999Y-140818142D01*
X112375834Y-141039557D01*
X112375845Y-141039573D01*
X112531488Y-141242411D01*
X112531494Y-141242418D01*
X112712281Y-141423205D01*
X112712287Y-141423210D01*
X112915135Y-141578861D01*
X112915142Y-141578865D01*
X113136557Y-141706700D01*
X113136562Y-141706702D01*
X113136565Y-141706704D01*
X113372787Y-141804550D01*
X113619760Y-141870726D01*
X113873257Y-141904100D01*
X113873264Y-141904100D01*
X114128936Y-141904100D01*
X114128943Y-141904100D01*
X114382440Y-141870726D01*
X114629413Y-141804550D01*
X114865635Y-141706704D01*
X115087065Y-141578861D01*
X115289913Y-141423210D01*
X115470710Y-141242413D01*
X115626361Y-141039565D01*
X115754204Y-140818135D01*
X115852050Y-140581913D01*
X115918226Y-140334940D01*
X115951600Y-140081443D01*
X115951600Y-139825757D01*
X115951599Y-139825749D01*
X166800600Y-139825749D01*
X166800600Y-140081450D01*
X166820056Y-140229225D01*
X166833974Y-140334940D01*
X166851726Y-140401191D01*
X166900150Y-140581912D01*
X166900153Y-140581922D01*
X166997994Y-140818131D01*
X166997999Y-140818142D01*
X167125834Y-141039557D01*
X167125845Y-141039573D01*
X167281488Y-141242411D01*
X167281494Y-141242418D01*
X167462281Y-141423205D01*
X167462287Y-141423210D01*
X167665135Y-141578861D01*
X167665142Y-141578865D01*
X167886557Y-141706700D01*
X167886562Y-141706702D01*
X167886565Y-141706704D01*
X168122787Y-141804550D01*
X168369760Y-141870726D01*
X168623257Y-141904100D01*
X168623264Y-141904100D01*
X168878936Y-141904100D01*
X168878943Y-141904100D01*
X169132440Y-141870726D01*
X169379413Y-141804550D01*
X169615635Y-141706704D01*
X169837065Y-141578861D01*
X170039913Y-141423210D01*
X170220710Y-141242413D01*
X170376361Y-141039565D01*
X170504204Y-140818135D01*
X170602050Y-140581913D01*
X170668226Y-140334940D01*
X170701600Y-140081443D01*
X170701600Y-139825757D01*
X170668226Y-139572260D01*
X170602050Y-139325287D01*
X170504204Y-139089065D01*
X170504202Y-139089062D01*
X170504200Y-139089057D01*
X170376365Y-138867642D01*
X170376361Y-138867635D01*
X170220710Y-138664787D01*
X170220705Y-138664781D01*
X170039918Y-138483994D01*
X170039911Y-138483988D01*
X169837073Y-138328345D01*
X169837071Y-138328343D01*
X169837065Y-138328339D01*
X169837060Y-138328336D01*
X169837057Y-138328334D01*
X169615642Y-138200499D01*
X169615631Y-138200494D01*
X169379422Y-138102653D01*
X169379415Y-138102651D01*
X169379413Y-138102650D01*
X169132440Y-138036474D01*
X169076107Y-138029057D01*
X168878950Y-138003100D01*
X168878943Y-138003100D01*
X168623257Y-138003100D01*
X168623249Y-138003100D01*
X168397926Y-138032765D01*
X168369760Y-138036474D01*
X168122787Y-138102650D01*
X168122777Y-138102653D01*
X167886568Y-138200494D01*
X167886557Y-138200499D01*
X167665142Y-138328334D01*
X167665126Y-138328345D01*
X167462288Y-138483988D01*
X167462281Y-138483994D01*
X167281494Y-138664781D01*
X167281488Y-138664788D01*
X167125845Y-138867626D01*
X167125834Y-138867642D01*
X166997999Y-139089057D01*
X166997994Y-139089068D01*
X166900153Y-139325277D01*
X166900150Y-139325287D01*
X166833974Y-139572261D01*
X166800600Y-139825749D01*
X115951599Y-139825749D01*
X115918226Y-139572260D01*
X115852050Y-139325287D01*
X115754204Y-139089065D01*
X115754202Y-139089062D01*
X115754200Y-139089057D01*
X115626365Y-138867642D01*
X115626361Y-138867635D01*
X115470710Y-138664787D01*
X115470705Y-138664781D01*
X115289918Y-138483994D01*
X115289911Y-138483988D01*
X115087073Y-138328345D01*
X115087071Y-138328343D01*
X115087065Y-138328339D01*
X115087060Y-138328336D01*
X115087057Y-138328334D01*
X114865642Y-138200499D01*
X114865631Y-138200494D01*
X114629422Y-138102653D01*
X114629415Y-138102651D01*
X114629413Y-138102650D01*
X114382440Y-138036474D01*
X114326107Y-138029057D01*
X114128950Y-138003100D01*
X114128943Y-138003100D01*
X113873257Y-138003100D01*
X113873249Y-138003100D01*
X113647926Y-138032765D01*
X113619760Y-138036474D01*
X113372787Y-138102650D01*
X113372777Y-138102653D01*
X113136568Y-138200494D01*
X113136557Y-138200499D01*
X112915142Y-138328334D01*
X112915126Y-138328345D01*
X112712288Y-138483988D01*
X112712281Y-138483994D01*
X112531494Y-138664781D01*
X112531488Y-138664788D01*
X112375845Y-138867626D01*
X112375834Y-138867642D01*
X112247999Y-139089057D01*
X112247994Y-139089068D01*
X112150153Y-139325277D01*
X112150150Y-139325287D01*
X112083974Y-139572261D01*
X112050600Y-139825749D01*
X100501600Y-139825749D01*
X100501600Y-127936707D01*
X105447100Y-127936707D01*
X105447100Y-128110492D01*
X105474283Y-128282121D01*
X105527984Y-128447393D01*
X105606874Y-128602222D01*
X105685143Y-128709949D01*
X105685144Y-128709950D01*
X106119334Y-128275759D01*
X106151001Y-128330607D01*
X106244093Y-128423699D01*
X106298939Y-128455364D01*
X105864748Y-128889555D01*
X105972477Y-128967825D01*
X106127306Y-129046715D01*
X106292578Y-129100416D01*
X106464208Y-129127600D01*
X106637992Y-129127600D01*
X106809621Y-129100416D01*
X106974893Y-129046715D01*
X107129714Y-128967829D01*
X107129720Y-128967825D01*
X107237449Y-128889555D01*
X107237450Y-128889554D01*
X106803260Y-128455364D01*
X106858107Y-128423699D01*
X106951199Y-128330607D01*
X106982864Y-128275760D01*
X107417054Y-128709950D01*
X107417055Y-128709949D01*
X107495325Y-128602220D01*
X107495329Y-128602214D01*
X107574215Y-128447393D01*
X107627916Y-128282121D01*
X107655100Y-128110492D01*
X107655100Y-127936707D01*
X107987100Y-127936707D01*
X107987100Y-128110492D01*
X108014283Y-128282121D01*
X108067984Y-128447393D01*
X108146874Y-128602222D01*
X108225143Y-128709949D01*
X108225144Y-128709950D01*
X108659334Y-128275759D01*
X108691001Y-128330607D01*
X108784093Y-128423699D01*
X108838939Y-128455364D01*
X108404748Y-128889555D01*
X108512477Y-128967825D01*
X108667306Y-129046715D01*
X108832578Y-129100416D01*
X109004208Y-129127600D01*
X109177992Y-129127600D01*
X109349621Y-129100416D01*
X109514893Y-129046715D01*
X109669714Y-128967829D01*
X109669720Y-128967825D01*
X109777449Y-128889555D01*
X109777450Y-128889554D01*
X109343260Y-128455364D01*
X109398107Y-128423699D01*
X109491199Y-128330607D01*
X109522864Y-128275760D01*
X109957054Y-128709950D01*
X109957055Y-128709949D01*
X110035325Y-128602220D01*
X110035329Y-128602214D01*
X110114215Y-128447393D01*
X110167916Y-128282121D01*
X110195100Y-128110492D01*
X110195100Y-127936707D01*
X110527100Y-127936707D01*
X110527100Y-128110492D01*
X110554283Y-128282121D01*
X110607984Y-128447393D01*
X110686874Y-128602222D01*
X110765143Y-128709949D01*
X110765144Y-128709950D01*
X111199334Y-128275759D01*
X111231001Y-128330607D01*
X111324093Y-128423699D01*
X111378939Y-128455364D01*
X110944748Y-128889555D01*
X111052477Y-128967825D01*
X111207306Y-129046715D01*
X111372578Y-129100416D01*
X111544208Y-129127600D01*
X111717992Y-129127600D01*
X111889621Y-129100416D01*
X112054893Y-129046715D01*
X112209714Y-128967829D01*
X112209720Y-128967825D01*
X112317449Y-128889555D01*
X112317450Y-128889554D01*
X111883260Y-128455364D01*
X111938107Y-128423699D01*
X112031199Y-128330607D01*
X112062864Y-128275760D01*
X112497054Y-128709950D01*
X112497055Y-128709949D01*
X112575325Y-128602220D01*
X112575329Y-128602214D01*
X112654218Y-128447387D01*
X112656078Y-128442896D01*
X112657576Y-128443516D01*
X112692994Y-128391699D01*
X112757348Y-128364488D01*
X112826196Y-128376389D01*
X112877682Y-128423623D01*
X112889438Y-128449358D01*
X112919544Y-128542016D01*
X113016051Y-128731420D01*
X113140990Y-128903386D01*
X113291313Y-129053709D01*
X113463279Y-129178648D01*
X113463281Y-129178649D01*
X113463284Y-129178651D01*
X113652688Y-129275157D01*
X113854857Y-129340846D01*
X114064813Y-129374100D01*
X114064814Y-129374100D01*
X114277386Y-129374100D01*
X114277387Y-129374100D01*
X114487343Y-129340846D01*
X114689512Y-129275157D01*
X114878916Y-129178651D01*
X114949182Y-129127600D01*
X115050886Y-129053709D01*
X115050888Y-129053706D01*
X115050892Y-129053704D01*
X115201204Y-128903392D01*
X115201206Y-128903388D01*
X115201209Y-128903386D01*
X115326148Y-128731420D01*
X115326147Y-128731420D01*
X115326151Y-128731416D01*
X115330614Y-128722654D01*
X115378588Y-128671859D01*
X115446408Y-128655063D01*
X115512544Y-128677599D01*
X115551584Y-128722654D01*
X115554289Y-128727962D01*
X115556051Y-128731420D01*
X115680990Y-128903386D01*
X115831313Y-129053709D01*
X116003279Y-129178648D01*
X116003281Y-129178649D01*
X116003284Y-129178651D01*
X116192688Y-129275157D01*
X116394857Y-129340846D01*
X116604813Y-129374100D01*
X116604814Y-129374100D01*
X116817386Y-129374100D01*
X116817387Y-129374100D01*
X117027343Y-129340846D01*
X117229512Y-129275157D01*
X117418916Y-129178651D01*
X117590892Y-129053704D01*
X117704429Y-128940166D01*
X117765748Y-128906684D01*
X117835440Y-128911668D01*
X117891374Y-128953539D01*
X117908289Y-128984517D01*
X117957302Y-129115928D01*
X117957306Y-129115935D01*
X118043552Y-129231144D01*
X118043555Y-129231147D01*
X118158764Y-129317393D01*
X118158771Y-129317397D01*
X118293617Y-129367691D01*
X118293616Y-129367691D01*
X118300544Y-129368435D01*
X118353227Y-129374100D01*
X120148972Y-129374099D01*
X120208583Y-129367691D01*
X120343431Y-129317396D01*
X120458646Y-129231146D01*
X120544896Y-129115931D01*
X120595191Y-128981083D01*
X120601600Y-128921473D01*
X120601599Y-127125728D01*
X120595191Y-127066117D01*
X120593910Y-127062683D01*
X120544897Y-126931271D01*
X120544893Y-126931264D01*
X120458647Y-126816055D01*
X120458644Y-126816052D01*
X120343435Y-126729806D01*
X120343428Y-126729802D01*
X120208582Y-126679508D01*
X120208583Y-126679508D01*
X120148983Y-126673101D01*
X120148981Y-126673100D01*
X120148973Y-126673100D01*
X120148964Y-126673100D01*
X118353229Y-126673100D01*
X118353223Y-126673101D01*
X118293616Y-126679508D01*
X118158771Y-126729802D01*
X118158764Y-126729806D01*
X118043555Y-126816052D01*
X118043552Y-126816055D01*
X117957306Y-126931264D01*
X117957303Y-126931269D01*
X117908289Y-127062683D01*
X117866417Y-127118616D01*
X117800953Y-127143033D01*
X117732680Y-127128181D01*
X117704426Y-127107030D01*
X117590886Y-126993490D01*
X117418920Y-126868551D01*
X117229514Y-126772044D01*
X117229513Y-126772043D01*
X117229512Y-126772043D01*
X117027343Y-126706354D01*
X117027341Y-126706353D01*
X117027340Y-126706353D01*
X116866057Y-126680808D01*
X116817387Y-126673100D01*
X116604813Y-126673100D01*
X116556142Y-126680808D01*
X116394860Y-126706353D01*
X116192685Y-126772044D01*
X116003279Y-126868551D01*
X115831313Y-126993490D01*
X115680990Y-127143813D01*
X115556049Y-127315782D01*
X115551584Y-127324546D01*
X115503609Y-127375342D01*
X115435788Y-127392136D01*
X115369653Y-127369598D01*
X115330616Y-127324546D01*
X115326150Y-127315782D01*
X115201209Y-127143813D01*
X115050886Y-126993490D01*
X114878920Y-126868551D01*
X114689514Y-126772044D01*
X114689513Y-126772043D01*
X114689512Y-126772043D01*
X114487343Y-126706354D01*
X114487341Y-126706353D01*
X114487340Y-126706353D01*
X114326057Y-126680808D01*
X114277387Y-126673100D01*
X114064813Y-126673100D01*
X114016142Y-126680808D01*
X113854860Y-126706353D01*
X113652685Y-126772044D01*
X113463279Y-126868551D01*
X113291313Y-126993490D01*
X113140990Y-127143813D01*
X113016051Y-127315779D01*
X112919544Y-127505183D01*
X112889438Y-127597841D01*
X112850000Y-127655516D01*
X112785641Y-127682714D01*
X112716795Y-127670799D01*
X112665319Y-127623554D01*
X112656457Y-127604146D01*
X112656078Y-127604304D01*
X112654218Y-127599812D01*
X112575325Y-127444977D01*
X112497055Y-127337249D01*
X112497055Y-127337248D01*
X112062864Y-127771439D01*
X112031199Y-127716593D01*
X111938107Y-127623501D01*
X111883259Y-127591834D01*
X112317450Y-127157644D01*
X112317449Y-127157643D01*
X112209722Y-127079374D01*
X112054893Y-127000484D01*
X111889621Y-126946783D01*
X111717992Y-126919600D01*
X111544208Y-126919600D01*
X111372578Y-126946783D01*
X111207306Y-127000484D01*
X111052479Y-127079373D01*
X111052475Y-127079375D01*
X110944749Y-127157642D01*
X110944749Y-127157644D01*
X111378940Y-127591834D01*
X111324093Y-127623501D01*
X111231001Y-127716593D01*
X111199335Y-127771440D01*
X110765144Y-127337249D01*
X110765142Y-127337249D01*
X110686875Y-127444975D01*
X110686873Y-127444979D01*
X110607984Y-127599806D01*
X110554283Y-127765078D01*
X110527100Y-127936707D01*
X110195100Y-127936707D01*
X110167916Y-127765078D01*
X110114215Y-127599806D01*
X110035325Y-127444977D01*
X109957055Y-127337249D01*
X109957055Y-127337248D01*
X109522864Y-127771439D01*
X109491199Y-127716593D01*
X109398107Y-127623501D01*
X109343259Y-127591834D01*
X109777450Y-127157644D01*
X109777449Y-127157643D01*
X109669722Y-127079374D01*
X109514893Y-127000484D01*
X109349621Y-126946783D01*
X109177992Y-126919600D01*
X109004208Y-126919600D01*
X108832578Y-126946783D01*
X108667306Y-127000484D01*
X108512479Y-127079373D01*
X108512475Y-127079375D01*
X108404749Y-127157642D01*
X108404749Y-127157644D01*
X108838940Y-127591834D01*
X108784093Y-127623501D01*
X108691001Y-127716593D01*
X108659335Y-127771440D01*
X108225144Y-127337249D01*
X108225142Y-127337249D01*
X108146875Y-127444975D01*
X108146873Y-127444979D01*
X108067984Y-127599806D01*
X108014283Y-127765078D01*
X107987100Y-127936707D01*
X107655100Y-127936707D01*
X107627916Y-127765078D01*
X107574215Y-127599806D01*
X107495325Y-127444977D01*
X107417055Y-127337249D01*
X107417055Y-127337248D01*
X106982864Y-127771439D01*
X106951199Y-127716593D01*
X106858107Y-127623501D01*
X106803259Y-127591834D01*
X107237450Y-127157644D01*
X107237449Y-127157643D01*
X107129722Y-127079374D01*
X106974893Y-127000484D01*
X106809621Y-126946783D01*
X106637992Y-126919600D01*
X106464208Y-126919600D01*
X106292578Y-126946783D01*
X106127306Y-127000484D01*
X105972479Y-127079373D01*
X105972475Y-127079375D01*
X105864749Y-127157642D01*
X105864749Y-127157644D01*
X106298940Y-127591834D01*
X106244093Y-127623501D01*
X106151001Y-127716593D01*
X106119335Y-127771440D01*
X105685144Y-127337249D01*
X105685142Y-127337249D01*
X105606875Y-127444975D01*
X105606873Y-127444979D01*
X105527984Y-127599806D01*
X105474283Y-127765078D01*
X105447100Y-127936707D01*
X100501600Y-127936707D01*
X100501600Y-124964753D01*
X114450600Y-124964753D01*
X114450600Y-125122446D01*
X114481361Y-125277089D01*
X114481364Y-125277101D01*
X114541702Y-125422772D01*
X114541709Y-125422785D01*
X114629310Y-125553888D01*
X114629313Y-125553892D01*
X114740807Y-125665386D01*
X114740811Y-125665389D01*
X114871914Y-125752990D01*
X114871927Y-125752997D01*
X114958087Y-125788685D01*
X115017603Y-125813337D01*
X115172253Y-125844099D01*
X115172256Y-125844100D01*
X115172258Y-125844100D01*
X115329944Y-125844100D01*
X115329945Y-125844099D01*
X115484597Y-125813337D01*
X115544125Y-125788680D01*
X115612065Y-125760539D01*
X115659517Y-125751100D01*
X123351741Y-125751100D01*
X123418780Y-125770785D01*
X123420625Y-125771993D01*
X123445605Y-125788684D01*
X123582187Y-125845258D01*
X123582191Y-125845258D01*
X123582192Y-125845259D01*
X123727179Y-125874100D01*
X123727182Y-125874100D01*
X123875020Y-125874100D01*
X123972562Y-125854696D01*
X124020013Y-125845258D01*
X124156595Y-125788684D01*
X124279516Y-125706551D01*
X124384051Y-125602016D01*
X124466184Y-125479095D01*
X124522758Y-125342513D01*
X124542964Y-125240935D01*
X124551600Y-125197520D01*
X124551600Y-125049679D01*
X124522759Y-124904692D01*
X124522758Y-124904691D01*
X124522758Y-124904687D01*
X124474758Y-124788804D01*
X124466187Y-124768111D01*
X124466180Y-124768098D01*
X124384051Y-124645184D01*
X124384048Y-124645180D01*
X124279519Y-124540651D01*
X124279515Y-124540648D01*
X124156601Y-124458519D01*
X124156588Y-124458512D01*
X124020017Y-124401943D01*
X124020007Y-124401940D01*
X123875020Y-124373100D01*
X123875018Y-124373100D01*
X123727182Y-124373100D01*
X123727180Y-124373100D01*
X123582192Y-124401940D01*
X123582182Y-124401943D01*
X123445608Y-124458514D01*
X123420631Y-124475203D01*
X123353953Y-124496080D01*
X123351741Y-124496100D01*
X115887040Y-124496100D01*
X115820001Y-124476415D01*
X115799358Y-124459780D01*
X115761392Y-124421813D01*
X115761388Y-124421810D01*
X115630285Y-124334209D01*
X115630272Y-124334202D01*
X115484601Y-124273864D01*
X115484589Y-124273861D01*
X115329945Y-124243100D01*
X115329942Y-124243100D01*
X115172258Y-124243100D01*
X115172255Y-124243100D01*
X115017610Y-124273861D01*
X115017598Y-124273864D01*
X114871927Y-124334202D01*
X114871914Y-124334209D01*
X114740811Y-124421810D01*
X114740807Y-124421813D01*
X114629313Y-124533307D01*
X114629310Y-124533311D01*
X114541709Y-124664414D01*
X114541702Y-124664427D01*
X114481364Y-124810098D01*
X114481361Y-124810110D01*
X114450600Y-124964753D01*
X100501600Y-124964753D01*
X100501600Y-122147520D01*
X125725599Y-122147520D01*
X125754440Y-122292507D01*
X125754443Y-122292517D01*
X125811012Y-122429088D01*
X125811020Y-122429102D01*
X125833061Y-122462088D01*
X125853940Y-122528765D01*
X125853960Y-122530980D01*
X125853960Y-127080297D01*
X125878072Y-127201517D01*
X125878074Y-127201525D01*
X125911522Y-127282275D01*
X125925375Y-127315719D01*
X125925380Y-127315728D01*
X125972213Y-127385818D01*
X125972214Y-127385819D01*
X125994050Y-127418500D01*
X125994051Y-127418501D01*
X127239645Y-128664094D01*
X127273130Y-128725417D01*
X127273581Y-128727582D01*
X127279440Y-128757039D01*
X127279442Y-128757045D01*
X127336012Y-128893618D01*
X127336019Y-128893631D01*
X127418148Y-129016545D01*
X127418151Y-129016549D01*
X127522680Y-129121078D01*
X127522684Y-129121081D01*
X127645598Y-129203210D01*
X127645611Y-129203217D01*
X127713041Y-129231147D01*
X127782187Y-129259788D01*
X127782191Y-129259788D01*
X127782192Y-129259789D01*
X127927179Y-129288630D01*
X127927182Y-129288630D01*
X128075020Y-129288630D01*
X128172562Y-129269226D01*
X128220013Y-129259788D01*
X128356595Y-129203214D01*
X128479516Y-129121081D01*
X128584051Y-129016546D01*
X128645728Y-128924239D01*
X131064000Y-128924239D01*
X131064000Y-129122961D01*
X131076710Y-129203210D01*
X131095087Y-129319237D01*
X131156493Y-129508229D01*
X131156494Y-129508232D01*
X131228730Y-129650000D01*
X131246713Y-129685294D01*
X131363519Y-129846064D01*
X131504036Y-129986581D01*
X131664806Y-130103387D01*
X131751649Y-130147635D01*
X131841867Y-130193605D01*
X131841870Y-130193606D01*
X131925665Y-130220832D01*
X132030864Y-130255013D01*
X132227139Y-130286100D01*
X132227141Y-130286100D01*
X132232002Y-130286483D01*
X132231869Y-130288170D01*
X132291858Y-130305785D01*
X132312500Y-130322419D01*
X134038689Y-132048608D01*
X134126092Y-132136011D01*
X134126093Y-132136012D01*
X134228860Y-132204679D01*
X134228873Y-132204686D01*
X134343060Y-132251983D01*
X134343065Y-132251985D01*
X134343069Y-132251985D01*
X134343070Y-132251986D01*
X134464294Y-132276100D01*
X134464297Y-132276100D01*
X170862904Y-132276100D01*
X170862905Y-132276099D01*
X170984135Y-132251986D01*
X171064884Y-132218537D01*
X171098333Y-132204683D01*
X171201108Y-132136011D01*
X171288511Y-132048608D01*
X173063511Y-130273608D01*
X173098774Y-130220833D01*
X173132183Y-130170833D01*
X173179485Y-130056635D01*
X173193420Y-129986581D01*
X173203600Y-129935405D01*
X173203600Y-127997957D01*
X173223285Y-127930918D01*
X173224499Y-127929065D01*
X173241184Y-127904095D01*
X173297758Y-127767513D01*
X173320036Y-127655516D01*
X173326600Y-127622520D01*
X173326600Y-127474679D01*
X173297759Y-127329692D01*
X173297758Y-127329691D01*
X173297758Y-127329687D01*
X173291972Y-127315719D01*
X173241187Y-127193111D01*
X173241180Y-127193098D01*
X173159051Y-127070184D01*
X173159048Y-127070180D01*
X173054519Y-126965651D01*
X173054515Y-126965648D01*
X172931601Y-126883519D01*
X172931588Y-126883512D01*
X172795017Y-126826943D01*
X172795007Y-126826940D01*
X172650020Y-126798100D01*
X172650018Y-126798100D01*
X172502182Y-126798100D01*
X172502180Y-126798100D01*
X172357192Y-126826940D01*
X172357182Y-126826943D01*
X172220611Y-126883512D01*
X172220598Y-126883519D01*
X172097684Y-126965648D01*
X172097680Y-126965651D01*
X171993151Y-127070180D01*
X171993148Y-127070184D01*
X171911019Y-127193098D01*
X171911012Y-127193111D01*
X171854443Y-127329682D01*
X171854440Y-127329692D01*
X171825600Y-127474679D01*
X171825600Y-127474682D01*
X171825600Y-127622518D01*
X171825600Y-127622520D01*
X171825599Y-127622520D01*
X171854440Y-127767507D01*
X171854443Y-127767517D01*
X171911013Y-127904090D01*
X171911015Y-127904093D01*
X171911016Y-127904095D01*
X171917040Y-127913111D01*
X171927701Y-127929065D01*
X171948580Y-127995742D01*
X171948600Y-127997957D01*
X171948600Y-129562319D01*
X171928915Y-129629358D01*
X171912281Y-129650000D01*
X170577500Y-130984781D01*
X170516177Y-131018266D01*
X170489819Y-131021100D01*
X134837381Y-131021100D01*
X134770342Y-131001415D01*
X134749700Y-130984781D01*
X133484817Y-129719898D01*
X133451332Y-129658575D01*
X133456316Y-129588883D01*
X133462004Y-129575941D01*
X133496505Y-129508232D01*
X133557913Y-129319236D01*
X133589000Y-129122961D01*
X133589000Y-128997520D01*
X138850599Y-128997520D01*
X138879440Y-129142507D01*
X138879443Y-129142517D01*
X138936012Y-129279088D01*
X138936019Y-129279101D01*
X139018148Y-129402015D01*
X139018151Y-129402019D01*
X139122680Y-129506548D01*
X139122684Y-129506551D01*
X139245598Y-129588680D01*
X139245611Y-129588687D01*
X139382182Y-129645256D01*
X139382187Y-129645258D01*
X139411643Y-129651117D01*
X139473553Y-129683500D01*
X139475134Y-129685053D01*
X140113689Y-130323608D01*
X140201092Y-130411011D01*
X140201094Y-130411013D01*
X140201096Y-130411014D01*
X140303856Y-130479676D01*
X140303858Y-130479677D01*
X140303867Y-130479683D01*
X140328872Y-130490040D01*
X140351171Y-130499277D01*
X140393354Y-130516749D01*
X140418066Y-130526986D01*
X140539292Y-130551099D01*
X140539296Y-130551100D01*
X140539297Y-130551100D01*
X158962904Y-130551100D01*
X158962905Y-130551099D01*
X159084135Y-130526986D01*
X159164884Y-130493537D01*
X159198333Y-130479683D01*
X159301108Y-130411011D01*
X159388511Y-130323608D01*
X161620506Y-128091611D01*
X161681827Y-128058128D01*
X161683895Y-128057697D01*
X161713453Y-128051818D01*
X161850035Y-127995244D01*
X161972956Y-127913111D01*
X162077491Y-127808576D01*
X162082730Y-127800735D01*
X168525600Y-127800735D01*
X168525600Y-129596470D01*
X168525601Y-129596476D01*
X168532008Y-129656083D01*
X168582302Y-129790928D01*
X168582306Y-129790935D01*
X168668552Y-129906144D01*
X168668555Y-129906147D01*
X168783764Y-129992393D01*
X168783771Y-129992397D01*
X168918617Y-130042691D01*
X168918616Y-130042691D01*
X168925544Y-130043435D01*
X168978227Y-130049100D01*
X170773972Y-130049099D01*
X170833583Y-130042691D01*
X170968431Y-129992396D01*
X171083646Y-129906146D01*
X171169896Y-129790931D01*
X171220191Y-129656083D01*
X171226600Y-129596473D01*
X171226599Y-127800728D01*
X171220191Y-127741117D01*
X171215490Y-127728514D01*
X171169897Y-127606271D01*
X171169893Y-127606264D01*
X171083647Y-127491055D01*
X171083644Y-127491052D01*
X170968435Y-127404806D01*
X170968428Y-127404802D01*
X170833582Y-127354508D01*
X170833583Y-127354508D01*
X170773983Y-127348101D01*
X170773981Y-127348100D01*
X170773973Y-127348100D01*
X170773964Y-127348100D01*
X168978229Y-127348100D01*
X168978223Y-127348101D01*
X168918616Y-127354508D01*
X168783771Y-127404802D01*
X168783764Y-127404806D01*
X168668555Y-127491052D01*
X168668552Y-127491055D01*
X168582306Y-127606264D01*
X168582302Y-127606271D01*
X168532008Y-127741117D01*
X168528019Y-127778225D01*
X168525601Y-127800723D01*
X168525600Y-127800735D01*
X162082730Y-127800735D01*
X162159624Y-127685655D01*
X162216198Y-127549073D01*
X162236904Y-127444979D01*
X162245040Y-127404080D01*
X162245040Y-127256239D01*
X162216199Y-127111252D01*
X162216198Y-127111249D01*
X162216198Y-127111247D01*
X162203378Y-127080297D01*
X162159627Y-126974671D01*
X162159620Y-126974658D01*
X162077491Y-126851744D01*
X162077488Y-126851740D01*
X161972959Y-126747211D01*
X161972955Y-126747208D01*
X161850041Y-126665079D01*
X161850028Y-126665072D01*
X161713457Y-126608503D01*
X161713447Y-126608500D01*
X161568460Y-126579660D01*
X161568458Y-126579660D01*
X161420622Y-126579660D01*
X161420620Y-126579660D01*
X161275632Y-126608500D01*
X161275622Y-126608503D01*
X161139051Y-126665072D01*
X161139038Y-126665079D01*
X161016124Y-126747208D01*
X161016120Y-126747211D01*
X160911591Y-126851740D01*
X160911588Y-126851744D01*
X160829459Y-126974658D01*
X160829452Y-126974671D01*
X160772882Y-127111244D01*
X160772881Y-127111249D01*
X160767021Y-127140707D01*
X160734634Y-127202618D01*
X160733085Y-127204194D01*
X158677500Y-129259781D01*
X158616177Y-129293266D01*
X158589819Y-129296100D01*
X140912381Y-129296100D01*
X140845342Y-129276415D01*
X140824700Y-129259781D01*
X140362553Y-128797634D01*
X140329068Y-128736311D01*
X140328634Y-128734230D01*
X140322758Y-128704687D01*
X140280315Y-128602220D01*
X140266187Y-128568111D01*
X140266180Y-128568098D01*
X140184051Y-128445184D01*
X140184048Y-128445180D01*
X140079519Y-128340651D01*
X140079515Y-128340648D01*
X139956601Y-128258519D01*
X139956592Y-128258514D01*
X139892172Y-128231831D01*
X139892170Y-128231830D01*
X139820017Y-128201943D01*
X139820007Y-128201940D01*
X139675020Y-128173100D01*
X139675018Y-128173100D01*
X139527182Y-128173100D01*
X139527180Y-128173100D01*
X139382192Y-128201940D01*
X139382182Y-128201943D01*
X139245611Y-128258512D01*
X139245598Y-128258519D01*
X139122684Y-128340648D01*
X139122680Y-128340651D01*
X139018151Y-128445180D01*
X139018148Y-128445184D01*
X138936019Y-128568098D01*
X138936012Y-128568111D01*
X138879443Y-128704682D01*
X138879440Y-128704692D01*
X138850600Y-128849679D01*
X138850600Y-128849682D01*
X138850600Y-128997518D01*
X138850600Y-128997520D01*
X138850599Y-128997520D01*
X133589000Y-128997520D01*
X133589000Y-128924239D01*
X133588957Y-128923969D01*
X133579299Y-128862987D01*
X133562519Y-128757045D01*
X133557913Y-128727964D01*
X133505970Y-128568098D01*
X133496506Y-128538970D01*
X133496505Y-128538967D01*
X133437772Y-128423699D01*
X133406287Y-128361906D01*
X133289481Y-128201136D01*
X133148964Y-128060619D01*
X133145535Y-128058128D01*
X133107177Y-128030259D01*
X133107176Y-128030258D01*
X132988194Y-127943813D01*
X132974248Y-127936707D01*
X132895535Y-127896600D01*
X153915857Y-127896600D01*
X154566089Y-127896600D01*
X154545500Y-127973440D01*
X154545500Y-128073760D01*
X154566089Y-128150600D01*
X153915857Y-128150600D01*
X153949542Y-128319948D01*
X153949544Y-128319956D01*
X154026130Y-128504853D01*
X154026135Y-128504862D01*
X154137320Y-128671261D01*
X154137323Y-128671265D01*
X154278834Y-128812776D01*
X154278838Y-128812779D01*
X154445237Y-128923964D01*
X154445246Y-128923969D01*
X154630141Y-129000554D01*
X154630151Y-129000557D01*
X154799499Y-129034242D01*
X154799500Y-129034242D01*
X154799500Y-128384011D01*
X154876340Y-128404600D01*
X154976660Y-128404600D01*
X155053500Y-128384011D01*
X155053500Y-129034242D01*
X155222848Y-129000557D01*
X155222858Y-129000554D01*
X155407753Y-128923969D01*
X155407762Y-128923964D01*
X155574161Y-128812779D01*
X155574165Y-128812776D01*
X155715676Y-128671265D01*
X155715679Y-128671261D01*
X155826864Y-128504862D01*
X155826869Y-128504853D01*
X155903455Y-128319956D01*
X155903457Y-128319948D01*
X155937143Y-128150600D01*
X155286911Y-128150600D01*
X155307500Y-128073760D01*
X155307500Y-127973440D01*
X155286911Y-127896600D01*
X155937143Y-127896600D01*
X155903457Y-127727251D01*
X155903455Y-127727243D01*
X155826869Y-127542346D01*
X155826864Y-127542337D01*
X155715679Y-127375938D01*
X155715676Y-127375934D01*
X155574165Y-127234423D01*
X155574161Y-127234420D01*
X155407762Y-127123235D01*
X155407753Y-127123230D01*
X155222856Y-127046644D01*
X155222848Y-127046642D01*
X155053500Y-127012956D01*
X155053500Y-127663188D01*
X154976660Y-127642600D01*
X154876340Y-127642600D01*
X154799500Y-127663188D01*
X154799500Y-127012956D01*
X154630151Y-127046642D01*
X154630143Y-127046644D01*
X154445246Y-127123230D01*
X154445237Y-127123235D01*
X154278838Y-127234420D01*
X154278834Y-127234423D01*
X154137323Y-127375934D01*
X154137320Y-127375938D01*
X154026135Y-127542337D01*
X154026130Y-127542346D01*
X153949544Y-127727243D01*
X153949542Y-127727251D01*
X153915857Y-127896600D01*
X132895535Y-127896600D01*
X132811132Y-127853594D01*
X132811129Y-127853593D01*
X132622137Y-127792187D01*
X132466376Y-127767517D01*
X132425861Y-127761100D01*
X132227139Y-127761100D01*
X132186687Y-127767507D01*
X132030862Y-127792187D01*
X131841870Y-127853593D01*
X131841867Y-127853594D01*
X131664805Y-127943813D01*
X131504033Y-128060621D01*
X131363521Y-128201133D01*
X131246713Y-128361905D01*
X131156494Y-128538967D01*
X131156493Y-128538970D01*
X131095087Y-128727962D01*
X131075809Y-128849679D01*
X131064000Y-128924239D01*
X128645728Y-128924239D01*
X128666184Y-128893625D01*
X128722758Y-128757043D01*
X128751600Y-128612048D01*
X128751600Y-128464212D01*
X128751600Y-128464209D01*
X128722759Y-128319222D01*
X128722758Y-128319221D01*
X128722758Y-128319217D01*
X128722756Y-128319212D01*
X128666187Y-128182641D01*
X128666180Y-128182628D01*
X128584051Y-128059714D01*
X128584048Y-128059710D01*
X128479519Y-127955181D01*
X128479515Y-127955178D01*
X128356601Y-127873049D01*
X128356588Y-127873042D01*
X128220015Y-127816472D01*
X128220009Y-127816470D01*
X128190552Y-127810611D01*
X128128641Y-127778225D01*
X128127064Y-127776675D01*
X127145279Y-126794890D01*
X127111794Y-126733567D01*
X127108960Y-126707209D01*
X127108960Y-124042313D01*
X161285600Y-124042313D01*
X161285600Y-124254886D01*
X161317851Y-124458514D01*
X161318854Y-124464843D01*
X161377449Y-124645180D01*
X161384544Y-124667014D01*
X161481051Y-124856420D01*
X161605990Y-125028386D01*
X161756313Y-125178709D01*
X161928279Y-125303648D01*
X161928281Y-125303649D01*
X161928284Y-125303651D01*
X162117688Y-125400157D01*
X162319857Y-125465846D01*
X162529813Y-125499100D01*
X162529814Y-125499100D01*
X162742386Y-125499100D01*
X162742387Y-125499100D01*
X162952343Y-125465846D01*
X163154512Y-125400157D01*
X163343916Y-125303651D01*
X163515892Y-125178704D01*
X163629429Y-125065166D01*
X163690748Y-125031684D01*
X163760440Y-125036668D01*
X163816374Y-125078539D01*
X163833289Y-125109517D01*
X163882302Y-125240928D01*
X163882306Y-125240935D01*
X163968552Y-125356144D01*
X163968555Y-125356147D01*
X164083764Y-125442393D01*
X164083771Y-125442397D01*
X164218617Y-125492691D01*
X164218616Y-125492691D01*
X164225544Y-125493435D01*
X164278227Y-125499100D01*
X166073972Y-125499099D01*
X166133583Y-125492691D01*
X166268431Y-125442396D01*
X166383646Y-125356146D01*
X166469896Y-125240931D01*
X166520191Y-125106083D01*
X166526600Y-125046473D01*
X166526599Y-123250728D01*
X166520191Y-123191117D01*
X166518910Y-123187683D01*
X166469897Y-123056271D01*
X166469893Y-123056264D01*
X166383647Y-122941055D01*
X166383644Y-122941052D01*
X166268435Y-122854806D01*
X166268428Y-122854802D01*
X166133582Y-122804508D01*
X166133583Y-122804508D01*
X166073983Y-122798101D01*
X166073981Y-122798100D01*
X166073973Y-122798100D01*
X166073964Y-122798100D01*
X164278229Y-122798100D01*
X164278223Y-122798101D01*
X164218616Y-122804508D01*
X164083771Y-122854802D01*
X164083764Y-122854806D01*
X163968555Y-122941052D01*
X163968552Y-122941055D01*
X163882306Y-123056264D01*
X163882303Y-123056269D01*
X163833289Y-123187683D01*
X163791417Y-123243616D01*
X163725953Y-123268033D01*
X163657680Y-123253181D01*
X163629426Y-123232030D01*
X163515886Y-123118490D01*
X163343920Y-122993551D01*
X163154514Y-122897044D01*
X163154513Y-122897043D01*
X163154512Y-122897043D01*
X162952343Y-122831354D01*
X162952341Y-122831353D01*
X162952340Y-122831353D01*
X162791057Y-122805808D01*
X162742387Y-122798100D01*
X162529813Y-122798100D01*
X162481142Y-122805808D01*
X162319860Y-122831353D01*
X162117685Y-122897044D01*
X161928279Y-122993551D01*
X161756313Y-123118490D01*
X161605990Y-123268813D01*
X161481051Y-123440779D01*
X161384544Y-123630185D01*
X161318853Y-123832360D01*
X161285600Y-124042313D01*
X127108960Y-124042313D01*
X127108960Y-122514936D01*
X127128645Y-122447897D01*
X127129858Y-122446045D01*
X127141184Y-122429095D01*
X127197758Y-122292513D01*
X127226600Y-122147518D01*
X127226600Y-121999682D01*
X127226600Y-121999679D01*
X127197759Y-121854692D01*
X127197758Y-121854691D01*
X127197758Y-121854687D01*
X127182073Y-121816819D01*
X127164436Y-121774239D01*
X171038600Y-121774239D01*
X171038600Y-121972960D01*
X171069687Y-122169237D01*
X171131093Y-122358229D01*
X171131094Y-122358232D01*
X171191774Y-122477321D01*
X171221313Y-122535294D01*
X171338119Y-122696064D01*
X171478636Y-122836581D01*
X171639406Y-122953387D01*
X171718228Y-122993549D01*
X171816467Y-123043605D01*
X171816470Y-123043606D01*
X171855450Y-123056271D01*
X172005464Y-123105013D01*
X172201739Y-123136100D01*
X172201740Y-123136100D01*
X172400460Y-123136100D01*
X172400461Y-123136100D01*
X172596736Y-123105013D01*
X172785732Y-123043605D01*
X172962794Y-122953387D01*
X173123564Y-122836581D01*
X173264081Y-122696064D01*
X173380887Y-122535294D01*
X173471105Y-122358232D01*
X173532513Y-122169236D01*
X173563600Y-121972961D01*
X173563600Y-121774239D01*
X173532513Y-121577964D01*
X173501809Y-121483466D01*
X173471106Y-121388970D01*
X173471105Y-121388967D01*
X173380886Y-121211905D01*
X173264081Y-121051136D01*
X173123564Y-120910619D01*
X172962794Y-120793813D01*
X172785732Y-120703594D01*
X172785729Y-120703593D01*
X172596737Y-120642187D01*
X172498598Y-120626643D01*
X172400461Y-120611100D01*
X172201739Y-120611100D01*
X172136314Y-120621462D01*
X172005462Y-120642187D01*
X171816470Y-120703593D01*
X171816467Y-120703594D01*
X171639405Y-120793813D01*
X171478633Y-120910621D01*
X171338121Y-121051133D01*
X171221313Y-121211905D01*
X171131094Y-121388967D01*
X171131093Y-121388970D01*
X171069687Y-121577962D01*
X171038600Y-121774239D01*
X127164436Y-121774239D01*
X127141187Y-121718111D01*
X127141180Y-121718098D01*
X127059051Y-121595184D01*
X127059048Y-121595180D01*
X126954519Y-121490651D01*
X126954515Y-121490648D01*
X126831601Y-121408519D01*
X126831588Y-121408512D01*
X126695017Y-121351943D01*
X126695007Y-121351940D01*
X126550020Y-121323100D01*
X126550018Y-121323100D01*
X126402182Y-121323100D01*
X126402180Y-121323100D01*
X126257192Y-121351940D01*
X126257182Y-121351943D01*
X126120611Y-121408512D01*
X126120598Y-121408519D01*
X125997684Y-121490648D01*
X125997680Y-121490651D01*
X125893151Y-121595180D01*
X125893148Y-121595184D01*
X125811019Y-121718098D01*
X125811012Y-121718111D01*
X125754443Y-121854682D01*
X125754440Y-121854692D01*
X125725600Y-121999679D01*
X125725600Y-121999682D01*
X125725600Y-122147518D01*
X125725600Y-122147520D01*
X125725599Y-122147520D01*
X100501600Y-122147520D01*
X100501600Y-112450735D01*
X105200600Y-112450735D01*
X105200600Y-114246470D01*
X105200601Y-114246476D01*
X105207008Y-114306083D01*
X105257302Y-114440928D01*
X105257306Y-114440935D01*
X105343552Y-114556144D01*
X105343555Y-114556147D01*
X105458764Y-114642393D01*
X105458771Y-114642397D01*
X105593617Y-114692691D01*
X105593616Y-114692691D01*
X105600544Y-114693435D01*
X105653227Y-114699100D01*
X105937360Y-114699099D01*
X106004397Y-114718783D01*
X106050152Y-114771587D01*
X106060096Y-114840746D01*
X106031071Y-114904301D01*
X105993656Y-114933582D01*
X105972485Y-114944369D01*
X105972475Y-114944375D01*
X105864749Y-115022642D01*
X105864749Y-115022644D01*
X106298940Y-115456834D01*
X106244093Y-115488501D01*
X106151001Y-115581593D01*
X106119335Y-115636440D01*
X105685144Y-115202249D01*
X105685142Y-115202249D01*
X105606875Y-115309975D01*
X105606873Y-115309979D01*
X105527984Y-115464806D01*
X105474283Y-115630078D01*
X105447100Y-115801707D01*
X105447100Y-115975492D01*
X105474283Y-116147121D01*
X105527984Y-116312393D01*
X105606874Y-116467222D01*
X105685143Y-116574949D01*
X105685144Y-116574950D01*
X106119334Y-116140759D01*
X106151001Y-116195607D01*
X106244093Y-116288699D01*
X106298939Y-116320364D01*
X105864748Y-116754555D01*
X105972477Y-116832825D01*
X106127306Y-116911715D01*
X106292578Y-116965416D01*
X106464208Y-116992600D01*
X106637992Y-116992600D01*
X106809621Y-116965416D01*
X106974893Y-116911715D01*
X107129714Y-116832829D01*
X107129720Y-116832825D01*
X107237449Y-116754555D01*
X107237450Y-116754554D01*
X106803260Y-116320364D01*
X106858107Y-116288699D01*
X106951199Y-116195607D01*
X106982864Y-116140760D01*
X107417054Y-116574950D01*
X107417055Y-116574949D01*
X107495325Y-116467220D01*
X107495329Y-116467214D01*
X107574215Y-116312393D01*
X107627916Y-116147121D01*
X107655100Y-115975492D01*
X107655100Y-115801707D01*
X107627916Y-115630078D01*
X107574215Y-115464806D01*
X107495325Y-115309977D01*
X107417055Y-115202249D01*
X107417055Y-115202248D01*
X106982864Y-115636439D01*
X106951199Y-115581593D01*
X106858107Y-115488501D01*
X106803259Y-115456834D01*
X107235854Y-115024239D01*
X119814000Y-115024239D01*
X119814000Y-115222960D01*
X119845087Y-115419237D01*
X119906493Y-115608229D01*
X119906494Y-115608232D01*
X119957836Y-115708994D01*
X119996713Y-115785294D01*
X120113519Y-115946064D01*
X120254036Y-116086581D01*
X120414806Y-116203387D01*
X120501649Y-116247635D01*
X120591867Y-116293605D01*
X120591870Y-116293606D01*
X120649692Y-116312393D01*
X120780864Y-116355013D01*
X120977139Y-116386100D01*
X120977140Y-116386100D01*
X121175860Y-116386100D01*
X121175861Y-116386100D01*
X121372136Y-116355013D01*
X121561132Y-116293605D01*
X121738194Y-116203387D01*
X121898964Y-116086581D01*
X122039481Y-115946064D01*
X122156287Y-115785294D01*
X122246505Y-115608232D01*
X122307913Y-115419236D01*
X122339000Y-115222961D01*
X122339000Y-115024239D01*
X122307913Y-114827964D01*
X122246505Y-114638968D01*
X122246505Y-114638967D01*
X122156286Y-114461905D01*
X122039481Y-114301136D01*
X121898964Y-114160619D01*
X121738194Y-114043813D01*
X121677281Y-114012776D01*
X121561132Y-113953594D01*
X121561129Y-113953593D01*
X121372137Y-113892187D01*
X121240040Y-113871265D01*
X121175861Y-113861100D01*
X120977139Y-113861100D01*
X120912985Y-113871261D01*
X120780862Y-113892187D01*
X120591870Y-113953593D01*
X120591867Y-113953594D01*
X120414805Y-114043813D01*
X120254033Y-114160621D01*
X120113521Y-114301133D01*
X119996713Y-114461905D01*
X119906494Y-114638967D01*
X119906493Y-114638970D01*
X119845087Y-114827962D01*
X119814000Y-115024239D01*
X107235854Y-115024239D01*
X107237450Y-115022643D01*
X107129722Y-114944374D01*
X107108545Y-114933584D01*
X107057749Y-114885610D01*
X107040954Y-114817789D01*
X107063491Y-114751654D01*
X107118206Y-114708202D01*
X107164839Y-114699099D01*
X107448972Y-114699099D01*
X107508583Y-114692691D01*
X107643431Y-114642396D01*
X107758646Y-114556146D01*
X107844896Y-114440931D01*
X107895191Y-114306083D01*
X107901600Y-114246473D01*
X107901599Y-113096600D01*
X149390457Y-113096600D01*
X150040689Y-113096600D01*
X150020100Y-113173440D01*
X150020100Y-113273760D01*
X150040689Y-113350600D01*
X149390457Y-113350600D01*
X149424142Y-113519948D01*
X149424144Y-113519956D01*
X149500730Y-113704853D01*
X149500735Y-113704862D01*
X149611920Y-113871261D01*
X149611923Y-113871265D01*
X149753434Y-114012776D01*
X149753438Y-114012779D01*
X149919837Y-114123964D01*
X149919846Y-114123969D01*
X150104741Y-114200554D01*
X150104751Y-114200557D01*
X150274099Y-114234242D01*
X150274100Y-114234242D01*
X150274100Y-113584011D01*
X150350940Y-113604600D01*
X150451260Y-113604600D01*
X150528100Y-113584011D01*
X150528100Y-114234242D01*
X150697448Y-114200557D01*
X150697458Y-114200554D01*
X150882353Y-114123969D01*
X150882362Y-114123964D01*
X151048761Y-114012779D01*
X151048765Y-114012776D01*
X151190276Y-113871265D01*
X151190279Y-113871261D01*
X151301464Y-113704862D01*
X151301469Y-113704853D01*
X151378055Y-113519956D01*
X151378057Y-113519948D01*
X151411743Y-113350600D01*
X150761511Y-113350600D01*
X150782100Y-113273760D01*
X150782100Y-113173440D01*
X150761511Y-113096600D01*
X151411743Y-113096600D01*
X151378057Y-112927251D01*
X151378055Y-112927243D01*
X151301469Y-112742346D01*
X151301464Y-112742337D01*
X151190279Y-112575938D01*
X151190276Y-112575934D01*
X151048765Y-112434423D01*
X151048761Y-112434420D01*
X150882362Y-112323235D01*
X150882353Y-112323230D01*
X150697456Y-112246644D01*
X150697448Y-112246642D01*
X150528100Y-112212956D01*
X150528100Y-112863188D01*
X150451260Y-112842600D01*
X150350940Y-112842600D01*
X150274100Y-112863188D01*
X150274100Y-112212956D01*
X150104751Y-112246642D01*
X150104743Y-112246644D01*
X149919846Y-112323230D01*
X149919837Y-112323235D01*
X149753438Y-112434420D01*
X149753434Y-112434423D01*
X149611923Y-112575934D01*
X149611920Y-112575938D01*
X149500735Y-112742337D01*
X149500730Y-112742346D01*
X149424144Y-112927243D01*
X149424142Y-112927251D01*
X149390457Y-113096600D01*
X107901599Y-113096600D01*
X107901599Y-112450728D01*
X107895191Y-112391117D01*
X107844896Y-112256269D01*
X107844895Y-112256268D01*
X107844893Y-112256264D01*
X107758647Y-112141055D01*
X107758644Y-112141052D01*
X107643435Y-112054806D01*
X107643428Y-112054802D01*
X107508582Y-112004508D01*
X107508583Y-112004508D01*
X107448983Y-111998101D01*
X107448981Y-111998100D01*
X107448973Y-111998100D01*
X107448964Y-111998100D01*
X105653229Y-111998100D01*
X105653223Y-111998101D01*
X105593616Y-112004508D01*
X105458771Y-112054802D01*
X105458764Y-112054806D01*
X105343555Y-112141052D01*
X105343552Y-112141055D01*
X105257306Y-112256264D01*
X105257302Y-112256271D01*
X105207008Y-112391117D01*
X105202353Y-112434420D01*
X105200601Y-112450723D01*
X105200600Y-112450735D01*
X100501600Y-112450735D01*
X100501600Y-68578100D01*
X100521285Y-68511061D01*
X100574089Y-68465306D01*
X100625600Y-68454100D01*
X108166990Y-68454100D01*
X108166992Y-68454100D01*
X108294286Y-68419992D01*
X108408414Y-68354100D01*
X108501600Y-68260914D01*
X108567492Y-68146786D01*
X108601600Y-68019492D01*
X108601600Y-47387708D01*
X108567492Y-47260414D01*
X108501600Y-47146286D01*
X108408414Y-47053100D01*
X108351350Y-47020154D01*
X108294287Y-46987208D01*
X108230639Y-46970154D01*
X108166992Y-46953100D01*
X108166991Y-46953100D01*
X100625600Y-46953100D01*
X100558561Y-46933415D01*
X100512806Y-46880611D01*
X100501600Y-46829100D01*
X100501600Y-34875749D01*
X112050600Y-34875749D01*
X112050600Y-35131450D01*
X112070056Y-35279225D01*
X112083974Y-35384940D01*
X112101726Y-35451191D01*
X112150150Y-35631912D01*
X112150153Y-35631922D01*
X112247994Y-35868131D01*
X112247999Y-35868142D01*
X112375834Y-36089557D01*
X112375845Y-36089573D01*
X112531488Y-36292411D01*
X112531494Y-36292418D01*
X112712281Y-36473205D01*
X112712287Y-36473210D01*
X112915135Y-36628861D01*
X112915142Y-36628865D01*
X113136557Y-36756700D01*
X113136562Y-36756702D01*
X113136565Y-36756704D01*
X113372787Y-36854550D01*
X113619760Y-36920726D01*
X113873257Y-36954100D01*
X113873264Y-36954100D01*
X114128936Y-36954100D01*
X114128943Y-36954100D01*
X114382440Y-36920726D01*
X114629413Y-36854550D01*
X114865635Y-36756704D01*
X115087065Y-36628861D01*
X115289913Y-36473210D01*
X115470710Y-36292413D01*
X115626361Y-36089565D01*
X115754204Y-35868135D01*
X115852050Y-35631913D01*
X115918226Y-35384940D01*
X115951600Y-35131443D01*
X115951600Y-34875757D01*
X115951599Y-34875749D01*
X166800600Y-34875749D01*
X166800600Y-35131450D01*
X166820056Y-35279225D01*
X166833974Y-35384940D01*
X166851726Y-35451191D01*
X166900150Y-35631912D01*
X166900153Y-35631922D01*
X166997994Y-35868131D01*
X166997999Y-35868142D01*
X167125834Y-36089557D01*
X167125845Y-36089573D01*
X167281488Y-36292411D01*
X167281494Y-36292418D01*
X167462281Y-36473205D01*
X167462287Y-36473210D01*
X167665135Y-36628861D01*
X167665142Y-36628865D01*
X167886557Y-36756700D01*
X167886562Y-36756702D01*
X167886565Y-36756704D01*
X168122787Y-36854550D01*
X168369760Y-36920726D01*
X168623257Y-36954100D01*
X168623264Y-36954100D01*
X168878936Y-36954100D01*
X168878943Y-36954100D01*
X169132440Y-36920726D01*
X169379413Y-36854550D01*
X169615635Y-36756704D01*
X169837065Y-36628861D01*
X170039913Y-36473210D01*
X170220710Y-36292413D01*
X170376361Y-36089565D01*
X170504204Y-35868135D01*
X170602050Y-35631913D01*
X170668226Y-35384940D01*
X170701600Y-35131443D01*
X170701600Y-34875757D01*
X170668226Y-34622260D01*
X170602050Y-34375287D01*
X170504204Y-34139065D01*
X170504202Y-34139062D01*
X170504200Y-34139057D01*
X170376365Y-33917642D01*
X170376361Y-33917635D01*
X170220710Y-33714787D01*
X170220705Y-33714781D01*
X170039918Y-33533994D01*
X170039911Y-33533988D01*
X169837073Y-33378345D01*
X169837071Y-33378343D01*
X169837065Y-33378339D01*
X169837060Y-33378336D01*
X169837057Y-33378334D01*
X169615642Y-33250499D01*
X169615631Y-33250494D01*
X169379422Y-33152653D01*
X169379415Y-33152651D01*
X169379413Y-33152650D01*
X169132440Y-33086474D01*
X169076107Y-33079057D01*
X168878950Y-33053100D01*
X168878943Y-33053100D01*
X168623257Y-33053100D01*
X168623249Y-33053100D01*
X168397926Y-33082765D01*
X168369760Y-33086474D01*
X168122787Y-33152650D01*
X168122777Y-33152653D01*
X167886568Y-33250494D01*
X167886557Y-33250499D01*
X167665142Y-33378334D01*
X167665126Y-33378345D01*
X167462288Y-33533988D01*
X167462281Y-33533994D01*
X167281494Y-33714781D01*
X167281488Y-33714788D01*
X167125845Y-33917626D01*
X167125834Y-33917642D01*
X166997999Y-34139057D01*
X166997994Y-34139068D01*
X166900153Y-34375277D01*
X166900150Y-34375287D01*
X166833974Y-34622261D01*
X166800600Y-34875749D01*
X115951599Y-34875749D01*
X115918226Y-34622260D01*
X115852050Y-34375287D01*
X115754204Y-34139065D01*
X115754202Y-34139062D01*
X115754200Y-34139057D01*
X115626365Y-33917642D01*
X115626361Y-33917635D01*
X115470710Y-33714787D01*
X115470705Y-33714781D01*
X115289918Y-33533994D01*
X115289911Y-33533988D01*
X115087073Y-33378345D01*
X115087071Y-33378343D01*
X115087065Y-33378339D01*
X115087060Y-33378336D01*
X115087057Y-33378334D01*
X114865642Y-33250499D01*
X114865631Y-33250494D01*
X114629422Y-33152653D01*
X114629415Y-33152651D01*
X114629413Y-33152650D01*
X114382440Y-33086474D01*
X114326107Y-33079057D01*
X114128950Y-33053100D01*
X114128943Y-33053100D01*
X113873257Y-33053100D01*
X113873249Y-33053100D01*
X113647926Y-33082765D01*
X113619760Y-33086474D01*
X113372787Y-33152650D01*
X113372777Y-33152653D01*
X113136568Y-33250494D01*
X113136557Y-33250499D01*
X112915142Y-33378334D01*
X112915126Y-33378345D01*
X112712288Y-33533988D01*
X112712281Y-33533994D01*
X112531494Y-33714781D01*
X112531488Y-33714788D01*
X112375845Y-33917626D01*
X112375834Y-33917642D01*
X112247999Y-34139057D01*
X112247994Y-34139068D01*
X112150153Y-34375277D01*
X112150150Y-34375287D01*
X112083974Y-34622261D01*
X112050600Y-34875749D01*
X100501600Y-34875749D01*
X100501600Y-30628100D01*
X100521285Y-30561061D01*
X100574089Y-30515306D01*
X100625600Y-30504100D01*
X175126600Y-30504100D01*
X175193639Y-30523785D01*
G37*
%TD.AperFunction*%
%TD*%
M02*
