%TF.GenerationSoftware,KiCad,Pcbnew,10.0.1*%
%TF.CreationDate,2026-08-22T13:05:36-07:00*%
%TF.ProjectId,BurnWire,4275726e-5769-4726-952e-6b696361645f,rev?*%
%TF.SameCoordinates,Original*%
%TF.FileFunction,Legend,Top*%
%TF.FilePolarity,Positive*%
%FSLAX46Y46*%
G04 Gerber Fmt 4.6, Leading zero omitted, Abs format (unit mm)*
G04 Created by KiCad (PCBNEW 10.0.1) date 2026-08-22 13:05:36*
%MOMM*%
%LPD*%
G01*
G04 APERTURE LIST*
%ADD10C,0.254000*%
%ADD11C,0.150000*%
%ADD12C,0.120000*%
%ADD13C,0.200000*%
%ADD14C,0.152400*%
G04 APERTURE END LIST*
D10*
X106025933Y-125072399D02*
X105977552Y-125169161D01*
X105977552Y-125169161D02*
X105977552Y-125314304D01*
X105977552Y-125314304D02*
X106025933Y-125459447D01*
X106025933Y-125459447D02*
X106122695Y-125556209D01*
X106122695Y-125556209D02*
X106219457Y-125604590D01*
X106219457Y-125604590D02*
X106412981Y-125652971D01*
X106412981Y-125652971D02*
X106558124Y-125652971D01*
X106558124Y-125652971D02*
X106751648Y-125604590D01*
X106751648Y-125604590D02*
X106848410Y-125556209D01*
X106848410Y-125556209D02*
X106945172Y-125459447D01*
X106945172Y-125459447D02*
X106993552Y-125314304D01*
X106993552Y-125314304D02*
X106993552Y-125217542D01*
X106993552Y-125217542D02*
X106945172Y-125072399D01*
X106945172Y-125072399D02*
X106896791Y-125024018D01*
X106896791Y-125024018D02*
X106558124Y-125024018D01*
X106558124Y-125024018D02*
X106558124Y-125217542D01*
X106993552Y-124588590D02*
X105977552Y-124588590D01*
X105977552Y-124588590D02*
X106993552Y-124008018D01*
X106993552Y-124008018D02*
X105977552Y-124008018D01*
X106993552Y-123524209D02*
X105977552Y-123524209D01*
X105977552Y-123524209D02*
X105977552Y-123282304D01*
X105977552Y-123282304D02*
X106025933Y-123137161D01*
X106025933Y-123137161D02*
X106122695Y-123040399D01*
X106122695Y-123040399D02*
X106219457Y-122992018D01*
X106219457Y-122992018D02*
X106412981Y-122943637D01*
X106412981Y-122943637D02*
X106558124Y-122943637D01*
X106558124Y-122943637D02*
X106751648Y-122992018D01*
X106751648Y-122992018D02*
X106848410Y-123040399D01*
X106848410Y-123040399D02*
X106945172Y-123137161D01*
X106945172Y-123137161D02*
X106993552Y-123282304D01*
X106993552Y-123282304D02*
X106993552Y-123524209D01*
X108495933Y-125212399D02*
X108447552Y-125309161D01*
X108447552Y-125309161D02*
X108447552Y-125454304D01*
X108447552Y-125454304D02*
X108495933Y-125599447D01*
X108495933Y-125599447D02*
X108592695Y-125696209D01*
X108592695Y-125696209D02*
X108689457Y-125744590D01*
X108689457Y-125744590D02*
X108882981Y-125792971D01*
X108882981Y-125792971D02*
X109028124Y-125792971D01*
X109028124Y-125792971D02*
X109221648Y-125744590D01*
X109221648Y-125744590D02*
X109318410Y-125696209D01*
X109318410Y-125696209D02*
X109415172Y-125599447D01*
X109415172Y-125599447D02*
X109463552Y-125454304D01*
X109463552Y-125454304D02*
X109463552Y-125357542D01*
X109463552Y-125357542D02*
X109415172Y-125212399D01*
X109415172Y-125212399D02*
X109366791Y-125164018D01*
X109366791Y-125164018D02*
X109028124Y-125164018D01*
X109028124Y-125164018D02*
X109028124Y-125357542D01*
X109463552Y-124728590D02*
X108447552Y-124728590D01*
X108447552Y-124728590D02*
X109463552Y-124148018D01*
X109463552Y-124148018D02*
X108447552Y-124148018D01*
X109463552Y-123664209D02*
X108447552Y-123664209D01*
X108447552Y-123664209D02*
X108447552Y-123422304D01*
X108447552Y-123422304D02*
X108495933Y-123277161D01*
X108495933Y-123277161D02*
X108592695Y-123180399D01*
X108592695Y-123180399D02*
X108689457Y-123132018D01*
X108689457Y-123132018D02*
X108882981Y-123083637D01*
X108882981Y-123083637D02*
X109028124Y-123083637D01*
X109028124Y-123083637D02*
X109221648Y-123132018D01*
X109221648Y-123132018D02*
X109318410Y-123180399D01*
X109318410Y-123180399D02*
X109415172Y-123277161D01*
X109415172Y-123277161D02*
X109463552Y-123422304D01*
X109463552Y-123422304D02*
X109463552Y-123664209D01*
X111175933Y-125482399D02*
X111127552Y-125579161D01*
X111127552Y-125579161D02*
X111127552Y-125724304D01*
X111127552Y-125724304D02*
X111175933Y-125869447D01*
X111175933Y-125869447D02*
X111272695Y-125966209D01*
X111272695Y-125966209D02*
X111369457Y-126014590D01*
X111369457Y-126014590D02*
X111562981Y-126062971D01*
X111562981Y-126062971D02*
X111708124Y-126062971D01*
X111708124Y-126062971D02*
X111901648Y-126014590D01*
X111901648Y-126014590D02*
X111998410Y-125966209D01*
X111998410Y-125966209D02*
X112095172Y-125869447D01*
X112095172Y-125869447D02*
X112143552Y-125724304D01*
X112143552Y-125724304D02*
X112143552Y-125627542D01*
X112143552Y-125627542D02*
X112095172Y-125482399D01*
X112095172Y-125482399D02*
X112046791Y-125434018D01*
X112046791Y-125434018D02*
X111708124Y-125434018D01*
X111708124Y-125434018D02*
X111708124Y-125627542D01*
X112143552Y-124998590D02*
X111127552Y-124998590D01*
X111127552Y-124998590D02*
X112143552Y-124418018D01*
X112143552Y-124418018D02*
X111127552Y-124418018D01*
X112143552Y-123934209D02*
X111127552Y-123934209D01*
X111127552Y-123934209D02*
X111127552Y-123692304D01*
X111127552Y-123692304D02*
X111175933Y-123547161D01*
X111175933Y-123547161D02*
X111272695Y-123450399D01*
X111272695Y-123450399D02*
X111369457Y-123402018D01*
X111369457Y-123402018D02*
X111562981Y-123353637D01*
X111562981Y-123353637D02*
X111708124Y-123353637D01*
X111708124Y-123353637D02*
X111901648Y-123402018D01*
X111901648Y-123402018D02*
X111998410Y-123450399D01*
X111998410Y-123450399D02*
X112095172Y-123547161D01*
X112095172Y-123547161D02*
X112143552Y-123692304D01*
X112143552Y-123692304D02*
X112143552Y-123934209D01*
X114523552Y-134664590D02*
X113507552Y-134664590D01*
X113507552Y-134664590D02*
X113507552Y-134277542D01*
X113507552Y-134277542D02*
X113555933Y-134180780D01*
X113555933Y-134180780D02*
X113604314Y-134132399D01*
X113604314Y-134132399D02*
X113701076Y-134084018D01*
X113701076Y-134084018D02*
X113846219Y-134084018D01*
X113846219Y-134084018D02*
X113942981Y-134132399D01*
X113942981Y-134132399D02*
X113991362Y-134180780D01*
X113991362Y-134180780D02*
X114039743Y-134277542D01*
X114039743Y-134277542D02*
X114039743Y-134664590D01*
X113555933Y-133116399D02*
X113507552Y-133213161D01*
X113507552Y-133213161D02*
X113507552Y-133358304D01*
X113507552Y-133358304D02*
X113555933Y-133503447D01*
X113555933Y-133503447D02*
X113652695Y-133600209D01*
X113652695Y-133600209D02*
X113749457Y-133648590D01*
X113749457Y-133648590D02*
X113942981Y-133696971D01*
X113942981Y-133696971D02*
X114088124Y-133696971D01*
X114088124Y-133696971D02*
X114281648Y-133648590D01*
X114281648Y-133648590D02*
X114378410Y-133600209D01*
X114378410Y-133600209D02*
X114475172Y-133503447D01*
X114475172Y-133503447D02*
X114523552Y-133358304D01*
X114523552Y-133358304D02*
X114523552Y-133261542D01*
X114523552Y-133261542D02*
X114475172Y-133116399D01*
X114475172Y-133116399D02*
X114426791Y-133068018D01*
X114426791Y-133068018D02*
X114088124Y-133068018D01*
X114088124Y-133068018D02*
X114088124Y-133261542D01*
X113507552Y-132439066D02*
X113507552Y-132245542D01*
X113507552Y-132245542D02*
X113555933Y-132148780D01*
X113555933Y-132148780D02*
X113652695Y-132052018D01*
X113652695Y-132052018D02*
X113846219Y-132003637D01*
X113846219Y-132003637D02*
X114184886Y-132003637D01*
X114184886Y-132003637D02*
X114378410Y-132052018D01*
X114378410Y-132052018D02*
X114475172Y-132148780D01*
X114475172Y-132148780D02*
X114523552Y-132245542D01*
X114523552Y-132245542D02*
X114523552Y-132439066D01*
X114523552Y-132439066D02*
X114475172Y-132535828D01*
X114475172Y-132535828D02*
X114378410Y-132632590D01*
X114378410Y-132632590D02*
X114184886Y-132680971D01*
X114184886Y-132680971D02*
X113846219Y-132680971D01*
X113846219Y-132680971D02*
X113652695Y-132632590D01*
X113652695Y-132632590D02*
X113555933Y-132535828D01*
X113555933Y-132535828D02*
X113507552Y-132439066D01*
X113507552Y-131374685D02*
X113507552Y-131181161D01*
X113507552Y-131181161D02*
X113555933Y-131084399D01*
X113555933Y-131084399D02*
X113652695Y-130987637D01*
X113652695Y-130987637D02*
X113846219Y-130939256D01*
X113846219Y-130939256D02*
X114184886Y-130939256D01*
X114184886Y-130939256D02*
X114378410Y-130987637D01*
X114378410Y-130987637D02*
X114475172Y-131084399D01*
X114475172Y-131084399D02*
X114523552Y-131181161D01*
X114523552Y-131181161D02*
X114523552Y-131374685D01*
X114523552Y-131374685D02*
X114475172Y-131471447D01*
X114475172Y-131471447D02*
X114378410Y-131568209D01*
X114378410Y-131568209D02*
X114184886Y-131616590D01*
X114184886Y-131616590D02*
X113846219Y-131616590D01*
X113846219Y-131616590D02*
X113652695Y-131568209D01*
X113652695Y-131568209D02*
X113555933Y-131471447D01*
X113555933Y-131471447D02*
X113507552Y-131374685D01*
X114523552Y-130503828D02*
X113507552Y-130503828D01*
X113507552Y-130503828D02*
X113507552Y-130261923D01*
X113507552Y-130261923D02*
X113555933Y-130116780D01*
X113555933Y-130116780D02*
X113652695Y-130020018D01*
X113652695Y-130020018D02*
X113749457Y-129971637D01*
X113749457Y-129971637D02*
X113942981Y-129923256D01*
X113942981Y-129923256D02*
X114088124Y-129923256D01*
X114088124Y-129923256D02*
X114281648Y-129971637D01*
X114281648Y-129971637D02*
X114378410Y-130020018D01*
X114378410Y-130020018D02*
X114475172Y-130116780D01*
X114475172Y-130116780D02*
X114523552Y-130261923D01*
X114523552Y-130261923D02*
X114523552Y-130503828D01*
X116986505Y-132734590D02*
X116986505Y-131960495D01*
X117373552Y-132347542D02*
X116599457Y-132347542D01*
X117373552Y-130944494D02*
X117373552Y-131525066D01*
X117373552Y-131234780D02*
X116357552Y-131234780D01*
X116357552Y-131234780D02*
X116502695Y-131331542D01*
X116502695Y-131331542D02*
X116599457Y-131428304D01*
X116599457Y-131428304D02*
X116647838Y-131525066D01*
X116454314Y-130557447D02*
X116405933Y-130509066D01*
X116405933Y-130509066D02*
X116357552Y-130412304D01*
X116357552Y-130412304D02*
X116357552Y-130170399D01*
X116357552Y-130170399D02*
X116405933Y-130073637D01*
X116405933Y-130073637D02*
X116454314Y-130025256D01*
X116454314Y-130025256D02*
X116551076Y-129976875D01*
X116551076Y-129976875D02*
X116647838Y-129976875D01*
X116647838Y-129976875D02*
X116792981Y-130025256D01*
X116792981Y-130025256D02*
X117373552Y-130605828D01*
X117373552Y-130605828D02*
X117373552Y-129976875D01*
X119481362Y-131544590D02*
X119481362Y-131205923D01*
X120013552Y-131060780D02*
X120013552Y-131544590D01*
X120013552Y-131544590D02*
X118997552Y-131544590D01*
X118997552Y-131544590D02*
X118997552Y-131060780D01*
X120013552Y-130625352D02*
X118997552Y-130625352D01*
X118997552Y-130625352D02*
X120013552Y-130044780D01*
X120013552Y-130044780D02*
X118997552Y-130044780D01*
X162370109Y-121779005D02*
X163144205Y-121779005D01*
X162757157Y-122166052D02*
X162757157Y-121391957D01*
X105389347Y-118172454D02*
X105244205Y-118099883D01*
X105244205Y-118099883D02*
X105026490Y-118099883D01*
X105026490Y-118099883D02*
X104808776Y-118172454D01*
X104808776Y-118172454D02*
X104663633Y-118317597D01*
X104663633Y-118317597D02*
X104591062Y-118462740D01*
X104591062Y-118462740D02*
X104518490Y-118753026D01*
X104518490Y-118753026D02*
X104518490Y-118970740D01*
X104518490Y-118970740D02*
X104591062Y-119261026D01*
X104591062Y-119261026D02*
X104663633Y-119406169D01*
X104663633Y-119406169D02*
X104808776Y-119551312D01*
X104808776Y-119551312D02*
X105026490Y-119623883D01*
X105026490Y-119623883D02*
X105171633Y-119623883D01*
X105171633Y-119623883D02*
X105389347Y-119551312D01*
X105389347Y-119551312D02*
X105461919Y-119478740D01*
X105461919Y-119478740D02*
X105461919Y-118970740D01*
X105461919Y-118970740D02*
X105171633Y-118970740D01*
X106115062Y-119623883D02*
X106115062Y-118099883D01*
X106115062Y-118099883D02*
X106985919Y-119623883D01*
X106985919Y-119623883D02*
X106985919Y-118099883D01*
X107711633Y-119623883D02*
X107711633Y-118099883D01*
X107711633Y-118099883D02*
X108074490Y-118099883D01*
X108074490Y-118099883D02*
X108292204Y-118172454D01*
X108292204Y-118172454D02*
X108437347Y-118317597D01*
X108437347Y-118317597D02*
X108509918Y-118462740D01*
X108509918Y-118462740D02*
X108582490Y-118753026D01*
X108582490Y-118753026D02*
X108582490Y-118970740D01*
X108582490Y-118970740D02*
X108509918Y-119261026D01*
X108509918Y-119261026D02*
X108437347Y-119406169D01*
X108437347Y-119406169D02*
X108292204Y-119551312D01*
X108292204Y-119551312D02*
X108074490Y-119623883D01*
X108074490Y-119623883D02*
X107711633Y-119623883D01*
X105393347Y-109579883D02*
X105901347Y-111103883D01*
X105901347Y-111103883D02*
X106409347Y-109579883D01*
X106917348Y-111103883D02*
X106917348Y-109579883D01*
X107643062Y-111103883D02*
X107643062Y-109579883D01*
X107643062Y-109579883D02*
X108513919Y-111103883D01*
X108513919Y-111103883D02*
X108513919Y-109579883D01*
D11*
X165510680Y-117470266D02*
X165558300Y-117517885D01*
X165558300Y-117517885D02*
X165605919Y-117660742D01*
X165605919Y-117660742D02*
X165605919Y-117755980D01*
X165605919Y-117755980D02*
X165558300Y-117898837D01*
X165558300Y-117898837D02*
X165463061Y-117994075D01*
X165463061Y-117994075D02*
X165367823Y-118041694D01*
X165367823Y-118041694D02*
X165177347Y-118089313D01*
X165177347Y-118089313D02*
X165034490Y-118089313D01*
X165034490Y-118089313D02*
X164844014Y-118041694D01*
X164844014Y-118041694D02*
X164748776Y-117994075D01*
X164748776Y-117994075D02*
X164653538Y-117898837D01*
X164653538Y-117898837D02*
X164605919Y-117755980D01*
X164605919Y-117755980D02*
X164605919Y-117660742D01*
X164605919Y-117660742D02*
X164653538Y-117517885D01*
X164653538Y-117517885D02*
X164701157Y-117470266D01*
X164605919Y-117136932D02*
X164605919Y-116517885D01*
X164605919Y-116517885D02*
X164986871Y-116851218D01*
X164986871Y-116851218D02*
X164986871Y-116708361D01*
X164986871Y-116708361D02*
X165034490Y-116613123D01*
X165034490Y-116613123D02*
X165082109Y-116565504D01*
X165082109Y-116565504D02*
X165177347Y-116517885D01*
X165177347Y-116517885D02*
X165415442Y-116517885D01*
X165415442Y-116517885D02*
X165510680Y-116565504D01*
X165510680Y-116565504D02*
X165558300Y-116613123D01*
X165558300Y-116613123D02*
X165605919Y-116708361D01*
X165605919Y-116708361D02*
X165605919Y-116994075D01*
X165605919Y-116994075D02*
X165558300Y-117089313D01*
X165558300Y-117089313D02*
X165510680Y-117136932D01*
X159460680Y-117470266D02*
X159508300Y-117517885D01*
X159508300Y-117517885D02*
X159555919Y-117660742D01*
X159555919Y-117660742D02*
X159555919Y-117755980D01*
X159555919Y-117755980D02*
X159508300Y-117898837D01*
X159508300Y-117898837D02*
X159413061Y-117994075D01*
X159413061Y-117994075D02*
X159317823Y-118041694D01*
X159317823Y-118041694D02*
X159127347Y-118089313D01*
X159127347Y-118089313D02*
X158984490Y-118089313D01*
X158984490Y-118089313D02*
X158794014Y-118041694D01*
X158794014Y-118041694D02*
X158698776Y-117994075D01*
X158698776Y-117994075D02*
X158603538Y-117898837D01*
X158603538Y-117898837D02*
X158555919Y-117755980D01*
X158555919Y-117755980D02*
X158555919Y-117660742D01*
X158555919Y-117660742D02*
X158603538Y-117517885D01*
X158603538Y-117517885D02*
X158651157Y-117470266D01*
X158889252Y-116613123D02*
X159555919Y-116613123D01*
X158508300Y-116851218D02*
X159222585Y-117089313D01*
X159222585Y-117089313D02*
X159222585Y-116470266D01*
X170115919Y-121720266D02*
X169639728Y-122053599D01*
X170115919Y-122291694D02*
X169115919Y-122291694D01*
X169115919Y-122291694D02*
X169115919Y-121910742D01*
X169115919Y-121910742D02*
X169163538Y-121815504D01*
X169163538Y-121815504D02*
X169211157Y-121767885D01*
X169211157Y-121767885D02*
X169306395Y-121720266D01*
X169306395Y-121720266D02*
X169449252Y-121720266D01*
X169449252Y-121720266D02*
X169544490Y-121767885D01*
X169544490Y-121767885D02*
X169592109Y-121815504D01*
X169592109Y-121815504D02*
X169639728Y-121910742D01*
X169639728Y-121910742D02*
X169639728Y-122291694D01*
X169449252Y-120863123D02*
X170115919Y-120863123D01*
X169068300Y-121101218D02*
X169782585Y-121339313D01*
X169782585Y-121339313D02*
X169782585Y-120720266D01*
D10*
X127937100Y-131365423D02*
X127429100Y-130639709D01*
X127066243Y-131365423D02*
X127066243Y-129841423D01*
X127066243Y-129841423D02*
X127646814Y-129841423D01*
X127646814Y-129841423D02*
X127791957Y-129913994D01*
X127791957Y-129913994D02*
X127864528Y-129986566D01*
X127864528Y-129986566D02*
X127937100Y-130131709D01*
X127937100Y-130131709D02*
X127937100Y-130349423D01*
X127937100Y-130349423D02*
X127864528Y-130494566D01*
X127864528Y-130494566D02*
X127791957Y-130567137D01*
X127791957Y-130567137D02*
X127646814Y-130639709D01*
X127646814Y-130639709D02*
X127066243Y-130639709D01*
X129388528Y-131365423D02*
X128517671Y-131365423D01*
X128953100Y-131365423D02*
X128953100Y-129841423D01*
X128953100Y-129841423D02*
X128807957Y-130059137D01*
X128807957Y-130059137D02*
X128662814Y-130204280D01*
X128662814Y-130204280D02*
X128517671Y-130276852D01*
D11*
X128444433Y-119323180D02*
X128396814Y-119370800D01*
X128396814Y-119370800D02*
X128253957Y-119418419D01*
X128253957Y-119418419D02*
X128158719Y-119418419D01*
X128158719Y-119418419D02*
X128015862Y-119370800D01*
X128015862Y-119370800D02*
X127920624Y-119275561D01*
X127920624Y-119275561D02*
X127873005Y-119180323D01*
X127873005Y-119180323D02*
X127825386Y-118989847D01*
X127825386Y-118989847D02*
X127825386Y-118846990D01*
X127825386Y-118846990D02*
X127873005Y-118656514D01*
X127873005Y-118656514D02*
X127920624Y-118561276D01*
X127920624Y-118561276D02*
X128015862Y-118466038D01*
X128015862Y-118466038D02*
X128158719Y-118418419D01*
X128158719Y-118418419D02*
X128253957Y-118418419D01*
X128253957Y-118418419D02*
X128396814Y-118466038D01*
X128396814Y-118466038D02*
X128444433Y-118513657D01*
X129396814Y-119418419D02*
X128825386Y-119418419D01*
X129111100Y-119418419D02*
X129111100Y-118418419D01*
X129111100Y-118418419D02*
X129015862Y-118561276D01*
X129015862Y-118561276D02*
X128920624Y-118656514D01*
X128920624Y-118656514D02*
X128825386Y-118704133D01*
X153996900Y-119958419D02*
X153996900Y-120196514D01*
X153758805Y-120101276D02*
X153996900Y-120196514D01*
X153996900Y-120196514D02*
X154234995Y-120101276D01*
X153854043Y-120386990D02*
X153996900Y-120196514D01*
X153996900Y-120196514D02*
X154139757Y-120386990D01*
X153996899Y-121048780D02*
X153996899Y-120810685D01*
X154234994Y-120905923D02*
X153996899Y-120810685D01*
X153996899Y-120810685D02*
X153758804Y-120905923D01*
X154139756Y-120620209D02*
X153996899Y-120810685D01*
X153996899Y-120810685D02*
X153854042Y-120620209D01*
X145105919Y-124711694D02*
X144105919Y-124711694D01*
X144105919Y-124711694D02*
X144105919Y-124473599D01*
X144105919Y-124473599D02*
X144153538Y-124330742D01*
X144153538Y-124330742D02*
X144248776Y-124235504D01*
X144248776Y-124235504D02*
X144344014Y-124187885D01*
X144344014Y-124187885D02*
X144534490Y-124140266D01*
X144534490Y-124140266D02*
X144677347Y-124140266D01*
X144677347Y-124140266D02*
X144867823Y-124187885D01*
X144867823Y-124187885D02*
X144963061Y-124235504D01*
X144963061Y-124235504D02*
X145058300Y-124330742D01*
X145058300Y-124330742D02*
X145105919Y-124473599D01*
X145105919Y-124473599D02*
X145105919Y-124711694D01*
X145105919Y-123187885D02*
X145105919Y-123759313D01*
X145105919Y-123473599D02*
X144105919Y-123473599D01*
X144105919Y-123473599D02*
X144248776Y-123568837D01*
X144248776Y-123568837D02*
X144344014Y-123664075D01*
X144344014Y-123664075D02*
X144391633Y-123759313D01*
X165162766Y-125383419D02*
X165162766Y-126097704D01*
X165162766Y-126097704D02*
X165115147Y-126240561D01*
X165115147Y-126240561D02*
X165019909Y-126335800D01*
X165019909Y-126335800D02*
X164877052Y-126383419D01*
X164877052Y-126383419D02*
X164781814Y-126383419D01*
X166067528Y-125716752D02*
X166067528Y-126383419D01*
X165829433Y-125335800D02*
X165591338Y-126050085D01*
X165591338Y-126050085D02*
X166210385Y-126050085D01*
X121475919Y-128356933D02*
X122190204Y-128356933D01*
X122190204Y-128356933D02*
X122333061Y-128404552D01*
X122333061Y-128404552D02*
X122428300Y-128499790D01*
X122428300Y-128499790D02*
X122475919Y-128642647D01*
X122475919Y-128642647D02*
X122475919Y-128737885D01*
X122475919Y-127356933D02*
X122475919Y-127928361D01*
X122475919Y-127642647D02*
X121475919Y-127642647D01*
X121475919Y-127642647D02*
X121618776Y-127737885D01*
X121618776Y-127737885D02*
X121714014Y-127833123D01*
X121714014Y-127833123D02*
X121761633Y-127928361D01*
X131319195Y-119358419D02*
X131319195Y-120167942D01*
X131319195Y-120167942D02*
X131366814Y-120263180D01*
X131366814Y-120263180D02*
X131414433Y-120310800D01*
X131414433Y-120310800D02*
X131509671Y-120358419D01*
X131509671Y-120358419D02*
X131700147Y-120358419D01*
X131700147Y-120358419D02*
X131795385Y-120310800D01*
X131795385Y-120310800D02*
X131843004Y-120263180D01*
X131843004Y-120263180D02*
X131890623Y-120167942D01*
X131890623Y-120167942D02*
X131890623Y-119358419D01*
X132890623Y-120358419D02*
X132319195Y-120358419D01*
X132604909Y-120358419D02*
X132604909Y-119358419D01*
X132604909Y-119358419D02*
X132509671Y-119501276D01*
X132509671Y-119501276D02*
X132414433Y-119596514D01*
X132414433Y-119596514D02*
X132319195Y-119644133D01*
X164905919Y-126906933D02*
X165620204Y-126906933D01*
X165620204Y-126906933D02*
X165763061Y-126954552D01*
X165763061Y-126954552D02*
X165858300Y-127049790D01*
X165858300Y-127049790D02*
X165905919Y-127192647D01*
X165905919Y-127192647D02*
X165905919Y-127287885D01*
X164905919Y-126525980D02*
X164905919Y-125906933D01*
X164905919Y-125906933D02*
X165286871Y-126240266D01*
X165286871Y-126240266D02*
X165286871Y-126097409D01*
X165286871Y-126097409D02*
X165334490Y-126002171D01*
X165334490Y-126002171D02*
X165382109Y-125954552D01*
X165382109Y-125954552D02*
X165477347Y-125906933D01*
X165477347Y-125906933D02*
X165715442Y-125906933D01*
X165715442Y-125906933D02*
X165810680Y-125954552D01*
X165810680Y-125954552D02*
X165858300Y-126002171D01*
X165858300Y-126002171D02*
X165905919Y-126097409D01*
X165905919Y-126097409D02*
X165905919Y-126383123D01*
X165905919Y-126383123D02*
X165858300Y-126478361D01*
X165858300Y-126478361D02*
X165810680Y-126525980D01*
X103992766Y-112728419D02*
X103992766Y-113442704D01*
X103992766Y-113442704D02*
X103945147Y-113585561D01*
X103945147Y-113585561D02*
X103849909Y-113680800D01*
X103849909Y-113680800D02*
X103707052Y-113728419D01*
X103707052Y-113728419D02*
X103611814Y-113728419D01*
X104421338Y-112823657D02*
X104468957Y-112776038D01*
X104468957Y-112776038D02*
X104564195Y-112728419D01*
X104564195Y-112728419D02*
X104802290Y-112728419D01*
X104802290Y-112728419D02*
X104897528Y-112776038D01*
X104897528Y-112776038D02*
X104945147Y-112823657D01*
X104945147Y-112823657D02*
X104992766Y-112918895D01*
X104992766Y-112918895D02*
X104992766Y-113014133D01*
X104992766Y-113014133D02*
X104945147Y-113156990D01*
X104945147Y-113156990D02*
X104373719Y-113728419D01*
X104373719Y-113728419D02*
X104992766Y-113728419D01*
X134444433Y-117753180D02*
X134396814Y-117800800D01*
X134396814Y-117800800D02*
X134253957Y-117848419D01*
X134253957Y-117848419D02*
X134158719Y-117848419D01*
X134158719Y-117848419D02*
X134015862Y-117800800D01*
X134015862Y-117800800D02*
X133920624Y-117705561D01*
X133920624Y-117705561D02*
X133873005Y-117610323D01*
X133873005Y-117610323D02*
X133825386Y-117419847D01*
X133825386Y-117419847D02*
X133825386Y-117276990D01*
X133825386Y-117276990D02*
X133873005Y-117086514D01*
X133873005Y-117086514D02*
X133920624Y-116991276D01*
X133920624Y-116991276D02*
X134015862Y-116896038D01*
X134015862Y-116896038D02*
X134158719Y-116848419D01*
X134158719Y-116848419D02*
X134253957Y-116848419D01*
X134253957Y-116848419D02*
X134396814Y-116896038D01*
X134396814Y-116896038D02*
X134444433Y-116943657D01*
X134825386Y-116943657D02*
X134873005Y-116896038D01*
X134873005Y-116896038D02*
X134968243Y-116848419D01*
X134968243Y-116848419D02*
X135206338Y-116848419D01*
X135206338Y-116848419D02*
X135301576Y-116896038D01*
X135301576Y-116896038D02*
X135349195Y-116943657D01*
X135349195Y-116943657D02*
X135396814Y-117038895D01*
X135396814Y-117038895D02*
X135396814Y-117134133D01*
X135396814Y-117134133D02*
X135349195Y-117276990D01*
X135349195Y-117276990D02*
X134777767Y-117848419D01*
X134777767Y-117848419D02*
X135396814Y-117848419D01*
X113334433Y-123678419D02*
X113001100Y-123202228D01*
X112763005Y-123678419D02*
X112763005Y-122678419D01*
X112763005Y-122678419D02*
X113143957Y-122678419D01*
X113143957Y-122678419D02*
X113239195Y-122726038D01*
X113239195Y-122726038D02*
X113286814Y-122773657D01*
X113286814Y-122773657D02*
X113334433Y-122868895D01*
X113334433Y-122868895D02*
X113334433Y-123011752D01*
X113334433Y-123011752D02*
X113286814Y-123106990D01*
X113286814Y-123106990D02*
X113239195Y-123154609D01*
X113239195Y-123154609D02*
X113143957Y-123202228D01*
X113143957Y-123202228D02*
X112763005Y-123202228D01*
X114286814Y-123678419D02*
X113715386Y-123678419D01*
X114001100Y-123678419D02*
X114001100Y-122678419D01*
X114001100Y-122678419D02*
X113905862Y-122821276D01*
X113905862Y-122821276D02*
X113810624Y-122916514D01*
X113810624Y-122916514D02*
X113715386Y-122964133D01*
X137454433Y-127788419D02*
X137121100Y-127312228D01*
X136883005Y-127788419D02*
X136883005Y-126788419D01*
X136883005Y-126788419D02*
X137263957Y-126788419D01*
X137263957Y-126788419D02*
X137359195Y-126836038D01*
X137359195Y-126836038D02*
X137406814Y-126883657D01*
X137406814Y-126883657D02*
X137454433Y-126978895D01*
X137454433Y-126978895D02*
X137454433Y-127121752D01*
X137454433Y-127121752D02*
X137406814Y-127216990D01*
X137406814Y-127216990D02*
X137359195Y-127264609D01*
X137359195Y-127264609D02*
X137263957Y-127312228D01*
X137263957Y-127312228D02*
X136883005Y-127312228D01*
X137835386Y-126883657D02*
X137883005Y-126836038D01*
X137883005Y-126836038D02*
X137978243Y-126788419D01*
X137978243Y-126788419D02*
X138216338Y-126788419D01*
X138216338Y-126788419D02*
X138311576Y-126836038D01*
X138311576Y-126836038D02*
X138359195Y-126883657D01*
X138359195Y-126883657D02*
X138406814Y-126978895D01*
X138406814Y-126978895D02*
X138406814Y-127074133D01*
X138406814Y-127074133D02*
X138359195Y-127216990D01*
X138359195Y-127216990D02*
X137787767Y-127788419D01*
X137787767Y-127788419D02*
X138406814Y-127788419D01*
X135144433Y-132388419D02*
X134811100Y-131912228D01*
X134573005Y-132388419D02*
X134573005Y-131388419D01*
X134573005Y-131388419D02*
X134953957Y-131388419D01*
X134953957Y-131388419D02*
X135049195Y-131436038D01*
X135049195Y-131436038D02*
X135096814Y-131483657D01*
X135096814Y-131483657D02*
X135144433Y-131578895D01*
X135144433Y-131578895D02*
X135144433Y-131721752D01*
X135144433Y-131721752D02*
X135096814Y-131816990D01*
X135096814Y-131816990D02*
X135049195Y-131864609D01*
X135049195Y-131864609D02*
X134953957Y-131912228D01*
X134953957Y-131912228D02*
X134573005Y-131912228D01*
X136001576Y-131388419D02*
X135811100Y-131388419D01*
X135811100Y-131388419D02*
X135715862Y-131436038D01*
X135715862Y-131436038D02*
X135668243Y-131483657D01*
X135668243Y-131483657D02*
X135573005Y-131626514D01*
X135573005Y-131626514D02*
X135525386Y-131816990D01*
X135525386Y-131816990D02*
X135525386Y-132197942D01*
X135525386Y-132197942D02*
X135573005Y-132293180D01*
X135573005Y-132293180D02*
X135620624Y-132340800D01*
X135620624Y-132340800D02*
X135715862Y-132388419D01*
X135715862Y-132388419D02*
X135906338Y-132388419D01*
X135906338Y-132388419D02*
X136001576Y-132340800D01*
X136001576Y-132340800D02*
X136049195Y-132293180D01*
X136049195Y-132293180D02*
X136096814Y-132197942D01*
X136096814Y-132197942D02*
X136096814Y-131959847D01*
X136096814Y-131959847D02*
X136049195Y-131864609D01*
X136049195Y-131864609D02*
X136001576Y-131816990D01*
X136001576Y-131816990D02*
X135906338Y-131769371D01*
X135906338Y-131769371D02*
X135715862Y-131769371D01*
X135715862Y-131769371D02*
X135620624Y-131816990D01*
X135620624Y-131816990D02*
X135573005Y-131864609D01*
X135573005Y-131864609D02*
X135525386Y-131959847D01*
X138604433Y-132238419D02*
X138271100Y-131762228D01*
X138033005Y-132238419D02*
X138033005Y-131238419D01*
X138033005Y-131238419D02*
X138413957Y-131238419D01*
X138413957Y-131238419D02*
X138509195Y-131286038D01*
X138509195Y-131286038D02*
X138556814Y-131333657D01*
X138556814Y-131333657D02*
X138604433Y-131428895D01*
X138604433Y-131428895D02*
X138604433Y-131571752D01*
X138604433Y-131571752D02*
X138556814Y-131666990D01*
X138556814Y-131666990D02*
X138509195Y-131714609D01*
X138509195Y-131714609D02*
X138413957Y-131762228D01*
X138413957Y-131762228D02*
X138033005Y-131762228D01*
X139509195Y-131238419D02*
X139033005Y-131238419D01*
X139033005Y-131238419D02*
X138985386Y-131714609D01*
X138985386Y-131714609D02*
X139033005Y-131666990D01*
X139033005Y-131666990D02*
X139128243Y-131619371D01*
X139128243Y-131619371D02*
X139366338Y-131619371D01*
X139366338Y-131619371D02*
X139461576Y-131666990D01*
X139461576Y-131666990D02*
X139509195Y-131714609D01*
X139509195Y-131714609D02*
X139556814Y-131809847D01*
X139556814Y-131809847D02*
X139556814Y-132047942D01*
X139556814Y-132047942D02*
X139509195Y-132143180D01*
X139509195Y-132143180D02*
X139461576Y-132190800D01*
X139461576Y-132190800D02*
X139366338Y-132238419D01*
X139366338Y-132238419D02*
X139128243Y-132238419D01*
X139128243Y-132238419D02*
X139033005Y-132190800D01*
X139033005Y-132190800D02*
X138985386Y-132143180D01*
X174874433Y-128228419D02*
X174541100Y-127752228D01*
X174303005Y-128228419D02*
X174303005Y-127228419D01*
X174303005Y-127228419D02*
X174683957Y-127228419D01*
X174683957Y-127228419D02*
X174779195Y-127276038D01*
X174779195Y-127276038D02*
X174826814Y-127323657D01*
X174826814Y-127323657D02*
X174874433Y-127418895D01*
X174874433Y-127418895D02*
X174874433Y-127561752D01*
X174874433Y-127561752D02*
X174826814Y-127656990D01*
X174826814Y-127656990D02*
X174779195Y-127704609D01*
X174779195Y-127704609D02*
X174683957Y-127752228D01*
X174683957Y-127752228D02*
X174303005Y-127752228D01*
X175207767Y-127228419D02*
X175826814Y-127228419D01*
X175826814Y-127228419D02*
X175493481Y-127609371D01*
X175493481Y-127609371D02*
X175636338Y-127609371D01*
X175636338Y-127609371D02*
X175731576Y-127656990D01*
X175731576Y-127656990D02*
X175779195Y-127704609D01*
X175779195Y-127704609D02*
X175826814Y-127799847D01*
X175826814Y-127799847D02*
X175826814Y-128037942D01*
X175826814Y-128037942D02*
X175779195Y-128133180D01*
X175779195Y-128133180D02*
X175731576Y-128180800D01*
X175731576Y-128180800D02*
X175636338Y-128228419D01*
X175636338Y-128228419D02*
X175350624Y-128228419D01*
X175350624Y-128228419D02*
X175255386Y-128180800D01*
X175255386Y-128180800D02*
X175207767Y-128133180D01*
X153410680Y-117520266D02*
X153458300Y-117567885D01*
X153458300Y-117567885D02*
X153505919Y-117710742D01*
X153505919Y-117710742D02*
X153505919Y-117805980D01*
X153505919Y-117805980D02*
X153458300Y-117948837D01*
X153458300Y-117948837D02*
X153363061Y-118044075D01*
X153363061Y-118044075D02*
X153267823Y-118091694D01*
X153267823Y-118091694D02*
X153077347Y-118139313D01*
X153077347Y-118139313D02*
X152934490Y-118139313D01*
X152934490Y-118139313D02*
X152744014Y-118091694D01*
X152744014Y-118091694D02*
X152648776Y-118044075D01*
X152648776Y-118044075D02*
X152553538Y-117948837D01*
X152553538Y-117948837D02*
X152505919Y-117805980D01*
X152505919Y-117805980D02*
X152505919Y-117710742D01*
X152505919Y-117710742D02*
X152553538Y-117567885D01*
X152553538Y-117567885D02*
X152601157Y-117520266D01*
X152505919Y-116615504D02*
X152505919Y-117091694D01*
X152505919Y-117091694D02*
X152982109Y-117139313D01*
X152982109Y-117139313D02*
X152934490Y-117091694D01*
X152934490Y-117091694D02*
X152886871Y-116996456D01*
X152886871Y-116996456D02*
X152886871Y-116758361D01*
X152886871Y-116758361D02*
X152934490Y-116663123D01*
X152934490Y-116663123D02*
X152982109Y-116615504D01*
X152982109Y-116615504D02*
X153077347Y-116567885D01*
X153077347Y-116567885D02*
X153315442Y-116567885D01*
X153315442Y-116567885D02*
X153410680Y-116615504D01*
X153410680Y-116615504D02*
X153458300Y-116663123D01*
X153458300Y-116663123D02*
X153505919Y-116758361D01*
X153505919Y-116758361D02*
X153505919Y-116996456D01*
X153505919Y-116996456D02*
X153458300Y-117091694D01*
X153458300Y-117091694D02*
X153410680Y-117139313D01*
%TO.C,C3*%
D12*
X166091100Y-114543600D02*
X167791100Y-114543600D01*
X166091100Y-118999163D02*
X166091100Y-114543600D01*
X166853600Y-120616100D02*
X167478600Y-120616100D01*
X167155537Y-120063600D02*
X166091100Y-118999163D01*
X167155537Y-120063600D02*
X167791100Y-120063600D01*
X167166100Y-120928600D02*
X167166100Y-120303600D01*
X170546663Y-120063600D02*
X169911100Y-120063600D01*
X170546663Y-120063600D02*
X171611100Y-118999163D01*
X171611100Y-114543600D02*
X169911100Y-114543600D01*
X171611100Y-118999163D02*
X171611100Y-114543600D01*
%TO.C,C4*%
X160041100Y-114543600D02*
X161741100Y-114543600D01*
X160041100Y-118999163D02*
X160041100Y-114543600D01*
X160803600Y-120616100D02*
X161428600Y-120616100D01*
X161105537Y-120063600D02*
X160041100Y-118999163D01*
X161105537Y-120063600D02*
X161741100Y-120063600D01*
X161116100Y-120928600D02*
X161116100Y-120303600D01*
X164496663Y-120063600D02*
X163861100Y-120063600D01*
X164496663Y-120063600D02*
X165561100Y-118999163D01*
X165561100Y-114543600D02*
X163861100Y-114543600D01*
X165561100Y-118999163D02*
X165561100Y-114543600D01*
%TO.C,R4*%
X168966100Y-124846536D02*
X168966100Y-125300664D01*
X170436100Y-124846536D02*
X170436100Y-125300664D01*
%TO.C,R1*%
D13*
X127251100Y-125323600D02*
X128751100Y-125323600D01*
X127251100Y-128123610D02*
X127251100Y-125323600D01*
X127251100Y-128123610D02*
X128751100Y-128123610D01*
X128751100Y-128123610D02*
X128751100Y-125323600D01*
%TO.C,C1*%
D12*
X127816100Y-122109852D02*
X127816100Y-121587348D01*
X129286100Y-122109852D02*
X129286100Y-121587348D01*
%TO.C,L1*%
D14*
X148968181Y-123729400D02*
X150796019Y-123729400D01*
X150796019Y-117277800D02*
X148968181Y-117277800D01*
%TO.C,D1*%
X138880600Y-120752500D02*
X138880600Y-126594500D01*
X138880600Y-126594500D02*
X139567761Y-126594500D01*
X139567761Y-120752500D02*
X138880600Y-120752500D01*
X140341100Y-127229500D02*
X141611100Y-127229500D01*
X140341100Y-127991500D02*
X141611100Y-127991500D01*
X140976100Y-126975500D02*
X140976100Y-128245500D01*
X140976100Y-127991500D02*
X140341100Y-127229500D01*
X140976100Y-127991500D02*
X140468100Y-127229500D01*
X140976100Y-127991500D02*
X140595100Y-127229500D01*
X140976100Y-127991500D02*
X140722100Y-127229500D01*
X140976100Y-127991500D02*
X140849100Y-127229500D01*
X140976100Y-127991500D02*
X141103100Y-127229500D01*
X140976100Y-127991500D02*
X141230100Y-127229500D01*
X140976100Y-127991500D02*
X141357100Y-127229500D01*
X140976100Y-127991500D02*
X141484100Y-127229500D01*
X140976100Y-127991500D02*
X141611100Y-127229500D01*
X142384439Y-126594500D02*
X143071600Y-126594500D01*
X143071600Y-120752500D02*
X142384439Y-120752500D01*
X143071600Y-126594500D02*
X143071600Y-120752500D01*
%TO.C,J4*%
D12*
X159786100Y-127368600D02*
X159786100Y-130028600D01*
X159786100Y-127368600D02*
X168416100Y-127368600D01*
X159786100Y-127488600D02*
X168416100Y-127488600D01*
X159786100Y-127604055D02*
X168416100Y-127604055D01*
X159786100Y-127719509D02*
X168416100Y-127719509D01*
X159786100Y-127834964D02*
X168416100Y-127834964D01*
X159786100Y-127950418D02*
X168416100Y-127950418D01*
X159786100Y-128065873D02*
X168416100Y-128065873D01*
X159786100Y-128181327D02*
X168416100Y-128181327D01*
X159786100Y-128296782D02*
X168416100Y-128296782D01*
X159786100Y-128412236D02*
X168416100Y-128412236D01*
X159786100Y-128527691D02*
X168416100Y-128527691D01*
X159786100Y-128643145D02*
X168416100Y-128643145D01*
X159786100Y-128758600D02*
X168416100Y-128758600D01*
X159786100Y-128874055D02*
X168416100Y-128874055D01*
X159786100Y-128989509D02*
X168416100Y-128989509D01*
X159786100Y-129104964D02*
X168416100Y-129104964D01*
X159786100Y-129220418D02*
X168416100Y-129220418D01*
X159786100Y-129335873D02*
X168416100Y-129335873D01*
X159786100Y-129451327D02*
X168416100Y-129451327D01*
X159786100Y-129566782D02*
X168416100Y-129566782D01*
X159786100Y-129682236D02*
X168416100Y-129682236D01*
X159786100Y-129797691D02*
X168416100Y-129797691D01*
X159786100Y-129913145D02*
X168416100Y-129913145D01*
X159786100Y-130028600D02*
X168416100Y-130028600D01*
X168416100Y-127368600D02*
X168416100Y-130028600D01*
X168416100Y-128338600D02*
X168766100Y-128338600D01*
X168416100Y-129058600D02*
X168766100Y-129058600D01*
X169876100Y-127368600D02*
X170986100Y-127368600D01*
X170986100Y-127368600D02*
X170986100Y-128698600D01*
%TO.C,J1*%
X105221100Y-126693600D02*
X105221100Y-129353600D01*
X117981100Y-126693600D02*
X105221100Y-126693600D01*
X117981100Y-126693600D02*
X117981100Y-129353600D01*
X117981100Y-129353600D02*
X105221100Y-129353600D01*
X120581100Y-128023600D02*
X120581100Y-129353600D01*
X120581100Y-129353600D02*
X119251100Y-129353600D01*
%TO.C,U1*%
X131616100Y-121098600D02*
X135736100Y-121098600D01*
X131616100Y-121193600D02*
X131616100Y-121098600D01*
X131616100Y-126218600D02*
X131616100Y-126123600D01*
X135736100Y-121098600D02*
X135736100Y-121193600D01*
X135736100Y-126123600D02*
X135736100Y-126218600D01*
X135736100Y-126218600D02*
X131616100Y-126218600D01*
X131076100Y-121188600D02*
X130836100Y-120858600D01*
X131316100Y-120858600D01*
X131076100Y-121188600D01*
G36*
X131076100Y-121188600D02*
G01*
X130836100Y-120858600D01*
X131316100Y-120858600D01*
X131076100Y-121188600D01*
G37*
%TO.C,J3*%
X161306100Y-122818600D02*
X161306100Y-125478600D01*
X163906100Y-122818600D02*
X161306100Y-122818600D01*
X163906100Y-122818600D02*
X163906100Y-125478600D01*
X163906100Y-125478600D02*
X161306100Y-125478600D01*
X166506100Y-124148600D02*
X166506100Y-125478600D01*
X166506100Y-125478600D02*
X165176100Y-125478600D01*
%TO.C,J2*%
X105171100Y-111968600D02*
X106551100Y-111968600D01*
X105171100Y-113348600D02*
X105171100Y-111968600D01*
X105171100Y-114618600D02*
X105171100Y-117268600D01*
X105171100Y-114618600D02*
X107931100Y-114618600D01*
X105171100Y-117268600D02*
X107931100Y-117268600D01*
X107931100Y-114618600D02*
X107931100Y-117268600D01*
%TO.C,C2*%
X135262352Y-119088600D02*
X134739848Y-119088600D01*
X135262352Y-120558600D02*
X134739848Y-120558600D01*
%TO.C,R1*%
X115124036Y-124338600D02*
X115578164Y-124338600D01*
X115124036Y-125808600D02*
X115578164Y-125808600D01*
%TO.C,R2*%
X134778164Y-126638600D02*
X134324036Y-126638600D01*
X134778164Y-128108600D02*
X134324036Y-128108600D01*
%TO.C,R6*%
X135058876Y-129551100D02*
X135568324Y-129551100D01*
X135058876Y-130596100D02*
X135568324Y-130596100D01*
%TO.C,R5*%
X138408876Y-129551100D02*
X138918324Y-129551100D01*
X138408876Y-130596100D02*
X138918324Y-130596100D01*
%TO.C,R3*%
X177778164Y-123238600D02*
X173424036Y-123238600D01*
X177778164Y-126658600D02*
X173424036Y-126658600D01*
%TO.C,C5*%
X153991100Y-114593600D02*
X155691100Y-114593600D01*
X153991100Y-119049163D02*
X153991100Y-114593600D01*
X154753600Y-120666100D02*
X155378600Y-120666100D01*
X155055537Y-120113600D02*
X153991100Y-119049163D01*
X155055537Y-120113600D02*
X155691100Y-120113600D01*
X155066100Y-120978600D02*
X155066100Y-120353600D01*
X158446663Y-120113600D02*
X157811100Y-120113600D01*
X158446663Y-120113600D02*
X159511100Y-119049163D01*
X159511100Y-114593600D02*
X157811100Y-114593600D01*
X159511100Y-119049163D02*
X159511100Y-114593600D01*
%TD*%
M02*
