%TF.GenerationSoftware,KiCad,Pcbnew,9.0.4*%
%TF.CreationDate,2026-02-08T14:40:35-05:00*%
%TF.ProjectId,BurnWire,4275726e-5769-4726-952e-6b696361645f,rev?*%
%TF.SameCoordinates,Original*%
%TF.FileFunction,Copper,L1,Top*%
%TF.FilePolarity,Positive*%
%FSLAX46Y46*%
G04 Gerber Fmt 4.6, Leading zero omitted, Abs format (unit mm)*
G04 Created by KiCad (PCBNEW 9.0.4) date 2026-02-08 14:40:35*
%MOMM*%
%LPD*%
G01*
G04 APERTURE LIST*
G04 Aperture macros list*
%AMRoundRect*
0 Rectangle with rounded corners*
0 $1 Rounding radius*
0 $2 $3 $4 $5 $6 $7 $8 $9 X,Y pos of 4 corners*
0 Add a 4 corners polygon primitive as box body*
4,1,4,$2,$3,$4,$5,$6,$7,$8,$9,$2,$3,0*
0 Add four circle primitives for the rounded corners*
1,1,$1+$1,$2,$3*
1,1,$1+$1,$4,$5*
1,1,$1+$1,$6,$7*
1,1,$1+$1,$8,$9*
0 Add four rect primitives between the rounded corners*
20,1,$1+$1,$2,$3,$4,$5,0*
20,1,$1+$1,$4,$5,$6,$7,0*
20,1,$1+$1,$6,$7,$8,$9,0*
20,1,$1+$1,$8,$9,$2,$3,0*%
G04 Aperture macros list end*
%TA.AperFunction,SMDPad,CuDef*%
%ADD10R,1.193800X2.006600*%
%TD*%
%TA.AperFunction,ComponentPad*%
%ADD11R,1.508000X1.508000*%
%TD*%
%TA.AperFunction,ComponentPad*%
%ADD12C,1.508000*%
%TD*%
%TA.AperFunction,ComponentPad*%
%ADD13RoundRect,0.650000X-0.650000X-0.650000X0.650000X-0.650000X0.650000X0.650000X-0.650000X0.650000X0*%
%TD*%
%TA.AperFunction,ComponentPad*%
%ADD14C,2.600000*%
%TD*%
%TA.AperFunction,SMDPad,CuDef*%
%ADD15RoundRect,0.150000X-0.150000X0.825000X-0.150000X-0.825000X0.150000X-0.825000X0.150000X0.825000X0*%
%TD*%
%TA.AperFunction,HeatsinkPad*%
%ADD16R,3.000000X2.290000*%
%TD*%
%TA.AperFunction,ComponentPad*%
%ADD17C,1.400000*%
%TD*%
%TA.AperFunction,SMDPad,CuDef*%
%ADD18R,3.000000X1.600000*%
%TD*%
%TA.AperFunction,SMDPad,CuDef*%
%ADD19R,2.184400X2.209800*%
%TD*%
%TA.AperFunction,ComponentPad*%
%ADD20RoundRect,0.250000X-0.750000X-0.750000X0.750000X-0.750000X0.750000X0.750000X-0.750000X0.750000X0*%
%TD*%
%TA.AperFunction,ComponentPad*%
%ADD21C,2.000000*%
%TD*%
%TA.AperFunction,ComponentPad*%
%ADD22RoundRect,0.650000X0.650000X0.650000X-0.650000X0.650000X-0.650000X-0.650000X0.650000X-0.650000X0*%
%TD*%
%TA.AperFunction,ViaPad*%
%ADD23C,1.016000*%
%TD*%
%TA.AperFunction,Conductor*%
%ADD24C,0.635000*%
%TD*%
G04 APERTURE END LIST*
D10*
%TO.P,L1,1,1*%
%TO.N,/Vout*%
X152354600Y-79200000D03*
%TO.P,L1,2,2*%
%TO.N,Net-(U1-SW)*%
X154945400Y-79200000D03*
%TD*%
D11*
%TO.P,J1,1,1*%
%TO.N,/VBatt*%
X135900000Y-79200000D03*
D12*
%TO.P,J1,2,2*%
%TO.N,GND*%
X138400000Y-79200000D03*
%TO.P,J1,3,3*%
%TO.N,/VCutN*%
X140900000Y-79200000D03*
%TO.P,J1,4,4*%
%TO.N,/EN*%
X143400000Y-79200000D03*
%TO.P,J1,5,5*%
%TO.N,Net-(U1-PGOOD)*%
X145900000Y-79200000D03*
%TO.P,J1,6,6*%
%TO.N,/Vout*%
X148400000Y-79200000D03*
%TD*%
D13*
%TO.P,TP1,1,1*%
%TO.N,Net-(U1-SW)*%
X158570000Y-106500000D03*
D14*
%TO.P,TP1,2*%
%TO.N,N/C*%
X163650000Y-106500000D03*
%TD*%
D15*
%TO.P,U1,1,BST*%
%TO.N,Net-(U1-BST)*%
X135300000Y-85270000D03*
%TO.P,U1,2,Vin*%
%TO.N,/VBatt*%
X136800000Y-85295000D03*
%TO.P,U1,3,EN*%
%TO.N,/EN*%
X138300000Y-85270000D03*
%TO.P,U1,4,PGOOD*%
%TO.N,Net-(U1-PGOOD)*%
X139800000Y-85270000D03*
%TO.P,U1,5,FB*%
%TO.N,Net-(U1-FB)*%
X139800000Y-91270000D03*
%TO.P,U1,6,NC*%
%TO.N,unconnected-(U1-NC-Pad6)*%
X138300000Y-91270000D03*
%TO.P,U1,7,GND*%
%TO.N,GND*%
X136800000Y-91270000D03*
%TO.P,U1,8,SW*%
%TO.N,Net-(U1-SW)*%
X135300000Y-91270000D03*
D16*
%TO.P,U1,9,PADGND*%
%TO.N,GND*%
X137800000Y-88270000D03*
%TD*%
D17*
%TO.P,R3,1*%
%TO.N,/VBatt*%
X139110000Y-75400000D03*
%TO.P,R3,2*%
%TO.N,Net-(U1-PGOOD)*%
X144190000Y-75400000D03*
%TD*%
D18*
%TO.P,C5,1*%
%TO.N,/Vout*%
X168050000Y-88600000D03*
%TO.P,C5,2*%
%TO.N,GND*%
X163650000Y-88600000D03*
%TD*%
%TO.P,C4,1*%
%TO.N,/Vout*%
X171950000Y-79150000D03*
%TO.P,C4,2*%
%TO.N,GND*%
X167550000Y-79150000D03*
%TD*%
D17*
%TO.P,R1,1*%
%TO.N,Net-(U1-FB)*%
X144700000Y-93800000D03*
%TO.P,R1,2*%
%TO.N,/VCutN*%
X147240000Y-93800000D03*
%TD*%
%TO.P,R2,1*%
%TO.N,/VCutN*%
X143910000Y-84950000D03*
%TO.P,R2,2*%
%TO.N,GND*%
X148990000Y-84950000D03*
%TD*%
D19*
%TO.P,CR1,1*%
%TO.N,Net-(U1-SW)*%
X159054200Y-98050000D03*
%TO.P,CR1,2*%
%TO.N,GND*%
X155345800Y-98050000D03*
%TD*%
D20*
%TO.P,C2,1*%
%TO.N,/VBatt*%
X134550000Y-98792500D03*
D21*
%TO.P,C2,2*%
%TO.N,GND*%
X149550000Y-98792500D03*
%TD*%
D18*
%TO.P,C3,1*%
%TO.N,/Vout*%
X162950000Y-79150000D03*
%TO.P,C3,2*%
%TO.N,GND*%
X158550000Y-79150000D03*
%TD*%
D22*
%TO.P,TP2,1,1*%
%TO.N,/VCutN*%
X149090000Y-89500000D03*
D14*
%TO.P,TP2,2*%
%TO.N,N/C*%
X144010000Y-89500000D03*
%TD*%
D20*
%TO.P,C1,1*%
%TO.N,Net-(U1-BST)*%
X134450000Y-106442500D03*
D21*
%TO.P,C1,2*%
%TO.N,Net-(U1-SW)*%
X149450000Y-106442500D03*
%TD*%
D23*
%TO.N,Net-(U1-SW)*%
X151543424Y-105106576D03*
X155700000Y-105100000D03*
%TO.N,/VCutN*%
X138750000Y-81300000D03*
X142400000Y-84900000D03*
%TD*%
D24*
%TO.N,/VBatt*%
X135900000Y-79200000D02*
X131568500Y-83531500D01*
X134442500Y-98792500D02*
X134550000Y-98792500D01*
X131568500Y-83531500D02*
X131568500Y-95918500D01*
X131568500Y-95918500D02*
X134442500Y-98792500D01*
%TO.N,/Vout*%
X152354600Y-79200000D02*
X151680500Y-78525900D01*
X151680500Y-78525900D02*
X151680500Y-75769500D01*
X151680500Y-75769500D02*
X153500000Y-73950000D01*
X153500000Y-73950000D02*
X160850000Y-73950000D01*
X160850000Y-73950000D02*
X162950000Y-76050000D01*
X162950000Y-76050000D02*
X162950000Y-79150000D01*
%TO.N,GND*%
X163100000Y-71950000D02*
X163450000Y-71950000D01*
X169253500Y-72246500D02*
X174481500Y-77474500D01*
X163100000Y-71950000D02*
X168957000Y-71950000D01*
X168957000Y-71950000D02*
X169253500Y-72246500D01*
X174481500Y-77474500D02*
X174481500Y-91468500D01*
X174481500Y-91468500D02*
X172700000Y-93250000D01*
X172700000Y-93250000D02*
X168450000Y-93250000D01*
X168450000Y-93250000D02*
X166500000Y-95200000D01*
X138400000Y-79200000D02*
X138400000Y-78851597D01*
X138400000Y-78851597D02*
X145301597Y-71950000D01*
X145301597Y-71950000D02*
X163100000Y-71950000D01*
X163450000Y-71950000D02*
X164900000Y-73400000D01*
%TO.N,/Vout*%
X171950000Y-86900000D02*
X171950000Y-79150000D01*
X162950000Y-79150000D02*
X162950000Y-80450000D01*
X168050000Y-85550000D02*
X168050000Y-88600000D01*
X162950000Y-80450000D02*
X168050000Y-85550000D01*
%TO.N,/VCutN*%
X143860000Y-84900000D02*
X143910000Y-84950000D01*
X142400000Y-84900000D02*
X143860000Y-84900000D01*
%TO.N,Net-(U1-SW)*%
X157170000Y-105100000D02*
X158570000Y-106500000D01*
X135300000Y-91270000D02*
X135300000Y-94452534D01*
X135300000Y-94452534D02*
X147289966Y-106442500D01*
X155700000Y-105100000D02*
X157170000Y-105100000D01*
X162150000Y-102920000D02*
X162150000Y-99450000D01*
X160750000Y-98050000D02*
X159054200Y-98050000D01*
X150207500Y-106442500D02*
X151543424Y-105106576D01*
X149450000Y-106442500D02*
X150207500Y-106442500D01*
X147289966Y-106442500D02*
X149450000Y-106442500D01*
X162150000Y-99450000D02*
X160750000Y-98050000D01*
X158570000Y-106500000D02*
X162150000Y-102920000D01*
%TO.N,Net-(U1-BST)*%
X133671000Y-86899000D02*
X133671000Y-94621000D01*
X136503500Y-104389000D02*
X134450000Y-106442500D01*
X136503500Y-97453500D02*
X136503500Y-104389000D01*
X135300000Y-85270000D02*
X133671000Y-86899000D01*
X133671000Y-94621000D02*
X136503500Y-97453500D01*
%TO.N,GND*%
X136800000Y-91270000D02*
X136800000Y-92309742D01*
X147336500Y-86603500D02*
X148990000Y-84950000D01*
X143282758Y-98792500D02*
X149550000Y-98792500D01*
X157255808Y-108753500D02*
X149550000Y-101047692D01*
X136800000Y-92309742D02*
X143282758Y-98792500D01*
X166500000Y-106836931D02*
X166500000Y-95200000D01*
X136800000Y-91270000D02*
X136800000Y-89270000D01*
X158550000Y-83500000D02*
X163650000Y-88600000D01*
X163000000Y-88600000D02*
X163650000Y-88600000D01*
X164583431Y-108753500D02*
X157255808Y-108753500D01*
X136800000Y-89270000D02*
X137800000Y-88270000D01*
X158550000Y-79150000D02*
X158550000Y-83500000D01*
X150350000Y-98050000D02*
X155345800Y-98050000D01*
X149607500Y-98792500D02*
X150350000Y-98050000D01*
X167550000Y-76050000D02*
X167550000Y-79150000D01*
X143446500Y-86603500D02*
X147336500Y-86603500D01*
X164900000Y-73400000D02*
X167550000Y-76050000D01*
X155338300Y-98042500D02*
X155345800Y-98050000D01*
X141780000Y-88270000D02*
X143446500Y-86603500D01*
X166500000Y-95200000D02*
X163650000Y-92350000D01*
X149550000Y-98792500D02*
X149607500Y-98792500D01*
X164583431Y-108753500D02*
X166500000Y-106836931D01*
X149550000Y-101047692D02*
X149550000Y-98792500D01*
X137800000Y-88270000D02*
X141780000Y-88270000D01*
X163650000Y-92350000D02*
X163650000Y-88600000D01*
%TO.N,/VBatt*%
X136800000Y-80100000D02*
X136800000Y-85295000D01*
X139110000Y-75400000D02*
X136900000Y-75400000D01*
X135900000Y-79200000D02*
X136800000Y-80100000D01*
X135900000Y-76400000D02*
X135900000Y-79200000D01*
X136900000Y-75400000D02*
X135900000Y-76400000D01*
%TO.N,/Vout*%
X148400000Y-79200000D02*
X152354600Y-79200000D01*
X170250000Y-88600000D02*
X171950000Y-86900000D01*
X168050000Y-88600000D02*
X170250000Y-88600000D01*
%TO.N,/EN*%
X143400000Y-79200000D02*
X143330258Y-79200000D01*
X138300000Y-84230258D02*
X138300000Y-85270000D01*
X143330258Y-79200000D02*
X138300000Y-84230258D01*
%TO.N,Net-(U1-PGOOD)*%
X139830000Y-85270000D02*
X139800000Y-85270000D01*
X145900000Y-79200000D02*
X139830000Y-85270000D01*
X145900000Y-77150000D02*
X145900000Y-79200000D01*
X144190000Y-75400000D02*
X144190000Y-75440000D01*
X144190000Y-75440000D02*
X145900000Y-77150000D01*
%TO.N,/VCutN*%
X149090000Y-91950000D02*
X147240000Y-93800000D01*
X140850000Y-79200000D02*
X138750000Y-81300000D01*
X150643500Y-84265097D02*
X150643500Y-87946500D01*
X140900000Y-79200000D02*
X140850000Y-79200000D01*
X149090000Y-89500000D02*
X149090000Y-91950000D01*
X143910000Y-84950000D02*
X145563500Y-83296500D01*
X150643500Y-87946500D02*
X149090000Y-89500000D01*
X149674903Y-83296500D02*
X150643500Y-84265097D01*
X145563500Y-83296500D02*
X149674903Y-83296500D01*
%TO.N,Net-(U1-FB)*%
X144700000Y-93800000D02*
X142330000Y-93800000D01*
X142330000Y-93800000D02*
X139800000Y-91270000D01*
%TO.N,Net-(U1-SW)*%
X154945400Y-79200000D02*
X156000000Y-80254600D01*
X156000000Y-86550000D02*
X163200000Y-93750000D01*
X156000000Y-80254600D02*
X156000000Y-86550000D01*
X163200000Y-95600000D02*
X160750000Y-98050000D01*
X163200000Y-93750000D02*
X163200000Y-95600000D01*
%TD*%
M02*
