M48
; DRILL file {KiCad 9.0.4} date 2026-04-07T16:41:32-0400
; FORMAT={-:-/ absolute / metric / decimal}
; #@! TF.CreationDate,2026-04-07T16:41:32-04:00
; #@! TF.GenerationSoftware,Kicad,Pcbnew,9.0.4
; #@! TF.FileFunction,Plated,1,2,PTH
FMAT,2
METRIC
; #@! TA.AperFunction,Plated,PTH,ComponentDrill
T1C1.000
; #@! TA.AperFunction,Plated,PTH,ComponentDrill
T2C1.016
; #@! TA.AperFunction,Plated,PTH,ComponentDrill
T3C1.300
%
G90
G05
T1
X130.8Y-82.25
X133.3Y-82.25
X135.8Y-82.25
X138.3Y-82.25
X140.8Y-82.25
X143.032Y-99.858
X143.032Y-105.65
X143.3Y-82.25
X151.532Y-99.858
X151.532Y-105.65
T2
X121.12Y-95.21
X121.21Y-90.3
X126.2Y-95.21
X126.29Y-90.3
X133.4Y-87.61
X133.4Y-92.69
X134.07Y-95.45
X135.66Y-76.85
X137.3Y-100.6
X137.3Y-105.68
X139.07Y-95.45
X140.74Y-76.85
X144.56Y-94.9
X145.45Y-71.01
X145.45Y-76.09
X149.64Y-94.9
T3
X129.6Y-87.61
X129.6Y-92.69
X144.1Y-110.5
X149.18Y-110.5
M30
